# MagicaVoxel @ Ephtracy

# group
o 

# material
mtllib lion.mtl
usemtl palette

# normals
vn -1 0 0
vn 1 0 0
vn 0 0 1
vn 0 0 -1
vn 0 -1 0
vn 0 1 0

# texcoords
vt 0.0683594 0.5
vt 0.0878906 0.5
vt 0.115234 0.5
vt 0.990234 0.5

# verts
v -0.5 1.9 0.6
v -0.5 1.9 0.5
v -0.5 2.1 0.6
v -0.5 2.1 0.5
v -0.4 1.6 0.7
v -0.4 1.6 0.4
v -0.4 1.9 0.6
v -0.4 1.9 0.5
v -0.4 2.1 0.6
v -0.4 2.1 0.5
v -0.4 2.3 0.7
v -0.4 2.3 0.4
v -0.3 0 0.6
v -0.3 0 0.3
v -0.3 0 -0.3
v -0.3 0 -0.6
v -0.3 0.1 0.6
v -0.3 0.1 0.5
v -0.3 0.1 0.3
v -0.3 0.1 -0.3
v -0.3 0.1 -0.4
v -0.3 0.1 -0.6
v -0.3 0.5 0.5
v -0.3 0.5 0.3
v -0.3 0.5 -0.4
v -0.3 0.5 -0.6
v -0.3 0.7 0.5
v -0.3 0.7 -0.6
v -0.3 1 0.5
v -0.3 1 0.4
v -0.3 1.1 0.4
v -0.3 1.1 0.3
v -0.3 1.1 -0.5
v -0.3 1.1 -0.6
v -0.3 1.2 0.3
v -0.3 1.2 -0.5
v -0.3 1.5 0.7
v -0.3 1.5 0.4
v -0.3 1.6 0.8
v -0.3 1.6 0.7
v -0.3 1.6 0.4
v -0.3 1.6 0.3
v -0.3 2.3 0.8
v -0.3 2.3 0.7
v -0.3 2.3 0.4
v -0.3 2.3 0.3
v -0.3 2.4 0.7
v -0.3 2.4 0.4
v -0.2 0.8 -0.6
v -0.2 0.8 -0.7
v -0.2 1.1 -0.5
v -0.2 1.1 -0.6
v -0.2 1.1 -0.7
v -0.2 1.2 0.3
v -0.2 1.2 -0.5
v -0.2 1.2 -0.6
v -0.2 1.3 0.3
v -0.2 1.3 -0.5
v -0.2 1.7 1.1
v -0.2 1.7 0.8
v -0.2 1.9 1.1
v -0.2 1.9 0.9
v -0.2 2.2 0.9
v -0.2 2.2 0.8
v -5.96046e-008 0.8 -0.8
v -5.96046e-008 0.8 -1
v -5.96046e-008 0.8 -1.1
v -5.96046e-008 0.9 -0.7
v -5.96046e-008 0.9 -0.8
v -5.96046e-008 0.9 -0.9
v -5.96046e-008 0.9 -1
v -5.96046e-008 0.9 -1.1
v -5.96046e-008 1 -0.7
v -5.96046e-008 1 -0.9
v 0.2 0 0.6
v 0.2 0 0.3
v 0.2 0 -0.3
v 0.2 0 -0.6
v 0.2 0.1 0.6
v 0.2 0.1 0.5
v 0.2 0.1 0.3
v 0.2 0.1 -0.3
v 0.2 0.1 -0.4
v 0.2 0.1 -0.6
v 0.2 0.5 0.5
v 0.2 0.5 0.3
v 0.2 0.5 -0.4
v 0.2 0.5 -0.6
v 0.3 1 0.2
v 0.3 1 0.1
v 0.3 1.1 0.2
v 0.3 1.1 0.1
v -0.1 0 0.6
v -0.1 0 0.3
v -0.1 0 -0.3
v -0.1 0 -0.6
v -0.1 0.1 0.6
v -0.1 0.1 0.5
v -0.1 0.1 0.3
v -0.1 0.1 -0.3
v -0.1 0.1 -0.4
v -0.1 0.1 -0.6
v -0.1 0.5 0.5
v -0.1 0.5 0.3
v -0.1 0.5 -0.4
v -0.1 0.5 -0.6
v 0.0999999 0.8 -0.8
v 0.0999999 0.8 -1
v 0.0999999 0.8 -1.1
v 0.0999999 0.9 -0.7
v 0.0999999 0.9 -0.8
v 0.0999999 0.9 -0.9
v 0.0999999 0.9 -1
v 0.0999999 0.9 -1.1
v 0.0999999 1 -0.7
v 0.0999999 1 -0.9
v 0.2 1 0.2
v 0.2 1 0.1
v 0.2 1.1 0.2
v 0.2 1.1 0.1
v 0.3 0.8 -0.6
v 0.3 0.8 -0.7
v 0.3 1.1 -0.5
v 0.3 1.1 -0.6
v 0.3 1.1 -0.7
v 0.3 1.2 0.3
v 0.3 1.2 -0.5
v 0.3 1.2 -0.6
v 0.3 1.3 0.3
v 0.3 1.3 -0.5
v 0.3 1.7 1.1
v 0.3 1.7 0.8
v 0.3 1.9 1.1
v 0.3 1.9 0.9
v 0.3 2.2 0.9
v 0.3 2.2 0.8
v 0.4 0 0.6
v 0.4 0 0.3
v 0.4 0 -0.3
v 0.4 0 -0.6
v 0.4 0.1 0.6
v 0.4 0.1 0.5
v 0.4 0.1 0.3
v 0.4 0.1 -0.3
v 0.4 0.1 -0.4
v 0.4 0.1 -0.6
v 0.4 0.5 0.5
v 0.4 0.5 0.3
v 0.4 0.5 -0.4
v 0.4 0.5 -0.6
v 0.4 0.7 0.5
v 0.4 0.7 -0.6
v 0.4 1 0.5
v 0.4 1 0.4
v 0.4 1.1 0.4
v 0.4 1.1 0.3
v 0.4 1.1 -0.5
v 0.4 1.1 -0.6
v 0.4 1.2 0.3
v 0.4 1.2 -0.5
v 0.4 1.5 0.7
v 0.4 1.5 0.4
v 0.4 1.6 0.8
v 0.4 1.6 0.7
v 0.4 1.6 0.4
v 0.4 2.3 0.8
v 0.4 2.3 0.7
v 0.4 2.3 0.4
v 0.4 2.4 0.7
v 0.4 2.4 0.4
v 0.5 1.6 0.7
v 0.5 1.6 0.3
v 0.5 1.9 0.6
v 0.5 1.9 0.5
v 0.5 2.1 0.6
v 0.5 2.1 0.5
v 0.5 2.3 0.7
v 0.5 2.3 0.3
v 0.6 1.9 0.6
v 0.6 1.9 0.5
v 0.6 2.1 0.6
v 0.6 2.1 0.5
v -0.2 1.7 1.1
v -0.2 1.9 1.1
v -0.1 1.8 1.1
v -0.1 1.9 1.1
v 0.2 1.8 1.1
v 0.2 1.9 1.1
v 0.3 1.7 1.1
v 0.3 1.9 1.1
v -0.2 1.9 0.9
v -0.2 2.2 0.9
v -0.1 2 0.9
v -0.1 2.1 0.9
v -5.96046e-008 2 0.9
v -5.96046e-008 2.1 0.9
v 0.0999999 2 0.9
v 0.0999999 2.1 0.9
v 0.2 2 0.9
v 0.2 2.1 0.9
v 0.3 1.9 0.9
v 0.3 2.2 0.9
v -0.3 1.6 0.8
v -0.3 2.3 0.8
v -0.2 1.7 0.8
v -0.2 2.2 0.8
v 0.3 1.7 0.8
v 0.3 2.2 0.8
v 0.4 1.6 0.8
v 0.4 2.3 0.8
v -0.4 1.6 0.7
v -0.4 2.3 0.7
v -0.3 1.5 0.7
v -0.3 1.6 0.7
v -0.3 2.3 0.7
v -0.3 2.4 0.7
v 0.4 1.5 0.7
v 0.4 1.6 0.7
v 0.4 2.3 0.7
v 0.4 2.4 0.7
v 0.5 1.6 0.7
v 0.5 2.3 0.7
v -0.5 1.9 0.6
v -0.5 2.1 0.6
v -0.4 1.9 0.6
v -0.4 2.1 0.6
v -0.3 0 0.6
v -0.3 0.1 0.6
v -0.1 0 0.6
v -0.1 0.1 0.6
v 0.2 0 0.6
v 0.2 0.1 0.6
v 0.4 0 0.6
v 0.4 0.1 0.6
v 0.5 1.9 0.6
v 0.5 2.1 0.6
v 0.6 1.9 0.6
v 0.6 2.1 0.6
v -0.3 0.1 0.5
v -0.3 0.5 0.5
v -0.3 0.7 0.5
v -0.3 1 0.5
v -0.1 0.1 0.5
v -0.1 0.5 0.5
v 0.2 0.1 0.5
v 0.2 0.5 0.5
v 0.4 0.1 0.5
v 0.4 0.5 0.5
v 0.4 0.7 0.5
v 0.4 1 0.5
v -0.3 1 0.4
v -0.3 1.1 0.4
v 0.4 1 0.4
v 0.4 1.1 0.4
v -0.3 1.1 0.3
v -0.3 1.2 0.3
v -0.2 1.2 0.3
v -0.2 1.3 0.3
v 0.3 1.2 0.3
v 0.3 1.3 0.3
v 0.4 1.1 0.3
v 0.4 1.2 0.3
v 0.2 1 0.1
v 0.2 1.1 0.1
v 0.3 1 0.1
v 0.3 1.1 0.1
v -0.3 0 -0.3
v -0.3 0.1 -0.3
v -0.1 0 -0.3
v -0.1 0.1 -0.3
v 0.2 0 -0.3
v 0.2 0.1 -0.3
v 0.4 0 -0.3
v 0.4 0.1 -0.3
v -0.3 0.1 -0.4
v -0.3 0.5 -0.4
v -0.1 0.1 -0.4
v -0.1 0.5 -0.4
v 0.2 0.1 -0.4
v 0.2 0.5 -0.4
v 0.4 0.1 -0.4
v 0.4 0.5 -0.4
v -5.96046e-008 0.8 -0.8
v -5.96046e-008 0.9 -0.8
v 0.0999999 0.8 -0.8
v 0.0999999 0.9 -0.8
v -0.5 1.9 0.5
v -0.5 2.1 0.5
v -0.4 1.9 0.5
v -0.4 2.1 0.5
v 0.5 1.9 0.5
v 0.5 2.1 0.5
v 0.6 1.9 0.5
v 0.6 2.1 0.5
v -0.4 1.6 0.4
v -0.4 2.3 0.4
v -0.3 1.5 0.4
v -0.3 1.6 0.4
v -0.3 2.3 0.4
v -0.3 2.4 0.4
v -0.2 1.5 0.4
v -0.2 1.6 0.4
v -5.96046e-008 1.6 0.4
v 0.2 1.6 0.4
v 0.3 1.5 0.4
v 0.3 1.6 0.4
v 0.4 1.5 0.4
v 0.4 1.6 0.4
v 0.4 2.3 0.4
v 0.4 2.4 0.4
v -0.3 0 0.3
v -0.3 0.1 0.3
v -0.3 0.5 0.3
v -0.3 1.6 0.3
v -0.3 2.3 0.3
v -0.1 0 0.3
v -0.1 0.1 0.3
v -0.1 0.5 0.3
v -5.96046e-008 1.6 0.3
v -5.96046e-008 1.7 0.3
v 0.2 0 0.3
v 0.2 0.1 0.3
v 0.2 0.5 0.3
v 0.2 1.6 0.3
v 0.2 1.7 0.3
v 0.4 0 0.3
v 0.4 0.1 0.3
v 0.4 0.5 0.3
v 0.5 1.6 0.3
v 0.5 2.3 0.3
v 0.2 1 0.2
v 0.2 1.1 0.2
v 0.3 1 0.2
v 0.3 1.1 0.2
v -0.3 1.1 -0.5
v -0.3 1.2 -0.5
v -0.2 1.1 -0.5
v -0.2 1.2 -0.5
v -0.2 1.3 -0.5
v 0.3 1.1 -0.5
v 0.3 1.2 -0.5
v 0.3 1.3 -0.5
v 0.4 1.1 -0.5
v 0.4 1.2 -0.5
v -0.3 0 -0.6
v -0.3 0.1 -0.6
v -0.3 0.5 -0.6
v -0.3 0.7 -0.6
v -0.3 1.1 -0.6
v -0.2 0.8 -0.6
v -0.2 1.1 -0.6
v -0.2 1.2 -0.6
v -0.1 0 -0.6
v -0.1 0.1 -0.6
v -0.1 0.5 -0.6
v 0.2 0 -0.6
v 0.2 0.1 -0.6
v 0.2 0.5 -0.6
v 0.3 0.8 -0.6
v 0.3 1.1 -0.6
v 0.3 1.2 -0.6
v 0.4 0 -0.6
v 0.4 0.1 -0.6
v 0.4 0.5 -0.6
v 0.4 0.7 -0.6
v 0.4 1.1 -0.6
v -0.2 0.8 -0.7
v -0.2 1.1 -0.7
v -5.96046e-008 0.9 -0.7
v -5.96046e-008 1 -0.7
v 0.0999999 0.9 -0.7
v 0.0999999 1 -0.7
v 0.3 0.8 -0.7
v 0.3 1.1 -0.7
v -5.96046e-008 0.9 -0.9
v -5.96046e-008 1 -0.9
v 0.0999999 0.9 -0.9
v 0.0999999 1 -0.9
v -5.96046e-008 0.8 -1.1
v -5.96046e-008 0.9 -1.1
v 0.0999999 0.8 -1.1
v 0.0999999 0.9 -1.1
v -0.3 0 0.6
v -0.1 0 0.6
v 0.2 0 0.6
v 0.4 0 0.6
v -0.3 0 0.3
v -0.1 0 0.3
v 0.2 0 0.3
v 0.4 0 0.3
v -0.3 0 -0.3
v -0.1 0 -0.3
v 0.2 0 -0.3
v 0.4 0 -0.3
v -0.3 0 -0.6
v -0.1 0 -0.6
v 0.2 0 -0.6
v 0.4 0 -0.6
v -0.3 0.7 0.5
v 0.4 0.7 0.5
v -0.3 0.7 -0.6
v 0.4 0.7 -0.6
v -0.2 0.8 -0.6
v 0.3 0.8 -0.6
v -0.2 0.8 -0.7
v 0.3 0.8 -0.7
v -5.96046e-008 0.8 -0.8
v 0.0999999 0.8 -0.8
v -5.96046e-008 0.8 -1
v 0.0999999 0.8 -1
v -5.96046e-008 0.8 -1.1
v 0.0999999 0.8 -1.1
v -5.96046e-008 0.9 -0.7
v 0.0999999 0.9 -0.7
v -5.96046e-008 0.9 -0.8
v 0.0999999 0.9 -0.8
v 0.2 1.1 0.2
v 0.3 1.1 0.2
v 0.2 1.1 0.1
v 0.3 1.1 0.1
v -0.3 1.5 0.7
v 0.4 1.5 0.7
v -0.2 1.5 0.5
v 0.3 1.5 0.5
v -0.3 1.5 0.4
v -0.2 1.5 0.4
v 0.3 1.5 0.4
v 0.4 1.5 0.4
v -0.3 1.6 0.8
v 0.4 1.6 0.8
v -0.4 1.6 0.7
v -0.3 1.6 0.7
v 0.4 1.6 0.7
v 0.5 1.6 0.7
v -0.4 1.6 0.4
v -0.3 1.6 0.4
v -0.2 1.6 0.4
v -5.96046e-008 1.6 0.4
v 0.2 1.6 0.4
v 0.3 1.6 0.4
v 0.4 1.6 0.4
v -0.3 1.6 0.3
v -5.96046e-008 1.6 0.3
v 0.2 1.6 0.3
v 0.5 1.6 0.3
v -0.2 1.7 1.1
v 0.3 1.7 1.1
v -0.2 1.7 0.8
v 0.3 1.7 0.8
v -0.5 1.9 0.6
v -0.4 1.9 0.6
v 0.5 1.9 0.6
v 0.6 1.9 0.6
v -0.5 1.9 0.5
v -0.4 1.9 0.5
v 0.5 1.9 0.5
v 0.6 1.9 0.5
v -0.3 0.1 0.6
v -0.1 0.1 0.6
v 0.2 0.1 0.6
v 0.4 0.1 0.6
v -0.3 0.1 0.5
v -0.1 0.1 0.5
v 0.2 0.1 0.5
v 0.4 0.1 0.5
v -0.3 0.1 -0.3
v -0.1 0.1 -0.3
v 0.2 0.1 -0.3
v 0.4 0.1 -0.3
v -0.3 0.1 -0.4
v -0.1 0.1 -0.4
v 0.2 0.1 -0.4
v 0.4 0.1 -0.4
v -0.3 0.5 0.5
v -0.1 0.5 0.5
v 0.2 0.5 0.5
v 0.4 0.5 0.5
v -0.3 0.5 0.3
v -0.1 0.5 0.3
v 0.2 0.5 0.3
v 0.4 0.5 0.3
v -0.3 0.5 -0.4
v -0.1 0.5 -0.4
v 0.2 0.5 -0.4
v 0.4 0.5 -0.4
v -0.3 0.5 -0.6
v -0.1 0.5 -0.6
v 0.2 0.5 -0.6
v 0.4 0.5 -0.6
v -5.96046e-008 0.9 -0.9
v 0.0999999 0.9 -0.9
v -5.96046e-008 0.9 -1
v 0.0999999 0.9 -1
v -5.96046e-008 0.9 -1.1
v 0.0999999 0.9 -1.1
v -0.3 1 0.5
v 0.4 1 0.5
v -0.3 1 0.4
v 0.4 1 0.4
v 0.2 1 0.2
v 0.3 1 0.2
v 0.2 1 0.1
v 0.3 1 0.1
v -5.96046e-008 1 -0.7
v 0.0999999 1 -0.7
v -5.96046e-008 1 -0.9
v 0.0999999 1 -0.9
v -0.3 1.1 0.4
v 0.4 1.1 0.4
v -0.3 1.1 0.3
v 0.4 1.1 0.3
v -0.3 1.1 -0.5
v -0.2 1.1 -0.5
v 0.3 1.1 -0.5
v 0.4 1.1 -0.5
v -0.3 1.1 -0.6
v -0.2 1.1 -0.6
v 0.3 1.1 -0.6
v 0.4 1.1 -0.6
v -0.2 1.1 -0.7
v 0.3 1.1 -0.7
v -0.3 1.2 0.3
v -0.2 1.2 0.3
v 0.3 1.2 0.3
v 0.4 1.2 0.3
v -0.3 1.2 -0.5
v -0.2 1.2 -0.5
v 0.3 1.2 -0.5
v 0.4 1.2 -0.5
v -0.2 1.2 -0.6
v 0.3 1.2 -0.6
v -0.2 1.3 0.3
v 0.3 1.3 0.3
v -0.2 1.3 -0.5
v 0.3 1.3 -0.5
v -0.2 1.9 1.1
v -0.1 1.9 1.1
v 0.2 1.9 1.1
v 0.3 1.9 1.1
v -0.1 1.9 1
v 0.2 1.9 1
v -0.2 1.9 0.9
v 0.3 1.9 0.9
v -0.5 2.1 0.6
v -0.4 2.1 0.6
v 0.5 2.1 0.6
v 0.6 2.1 0.6
v -0.5 2.1 0.5
v -0.4 2.1 0.5
v 0.5 2.1 0.5
v 0.6 2.1 0.5
v -0.2 2.2 0.9
v 0.3 2.2 0.9
v -0.2 2.2 0.8
v 0.3 2.2 0.8
v -0.3 2.3 0.8
v 0.4 2.3 0.8
v -0.4 2.3 0.7
v -0.3 2.3 0.7
v 0.4 2.3 0.7
v 0.5 2.3 0.7
v -0.4 2.3 0.4
v -0.3 2.3 0.4
v 0.4 2.3 0.4
v -0.3 2.3 0.3
v 0.5 2.3 0.3
v -0.3 2.4 0.7
v 0.4 2.4 0.7
v -0.3 2.4 0.4
v 0.4 2.4 0.4

# faces
f 3/1/1 2/1/1 1/1/1
f 4/1/1 2/1/1 3/1/1
f 7/3/1 6/3/1 5/3/1
f 8/3/1 6/3/1 7/3/1
f 9/3/1 7/3/1 5/3/1
f 10/3/1 6/3/1 8/3/1
f 11/3/1 9/3/1 5/3/1
f 11/3/1 10/3/1 9/3/1
f 12/3/1 6/3/1 10/3/1
f 12/3/1 10/3/1 11/3/1
f 17/2/1 14/2/1 13/2/1
f 18/2/1 14/2/1 17/2/1
f 19/2/1 14/2/1 18/2/1
f 20/2/1 16/2/1 15/2/1
f 21/2/1 16/2/1 20/2/1
f 22/2/1 16/2/1 21/2/1
f 23/1/1 19/1/1 18/1/1
f 24/1/1 19/1/1 23/1/1
f 25/1/1 22/1/1 21/1/1
f 26/1/1 22/1/1 25/1/1
f 29/1/1 28/1/1 27/1/1
f 30/1/1 28/1/1 29/1/1
f 31/1/1 28/1/1 30/1/1
f 32/1/1 28/1/1 31/1/1
f 33/1/1 28/1/1 32/1/1
f 34/1/1 28/1/1 33/1/1
f 35/1/1 33/1/1 32/1/1
f 36/1/1 33/1/1 35/1/1
f 40/3/1 38/3/1 37/3/1
f 41/3/1 38/3/1 40/3/1
f 43/3/1 40/3/1 39/3/1
f 44/3/1 40/3/1 43/3/1
f 45/3/1 42/3/1 41/3/1
f 46/3/1 42/3/1 45/3/1
f 47/3/1 45/3/1 44/3/1
f 48/3/1 45/3/1 47/3/1
f 52/1/1 50/1/1 49/1/1
f 53/1/1 50/1/1 52/1/1
f 55/1/1 52/1/1 51/1/1
f 56/1/1 52/1/1 55/1/1
f 57/1/1 55/1/1 54/1/1
f 58/1/1 55/1/1 57/1/1
f 61/1/1 60/1/1 59/1/1
f 62/1/1 60/1/1 61/1/1
f 63/1/1 60/1/1 62/1/1
f 64/1/1 60/1/1 63/1/1
f 69/1/1 66/1/1 65/1/1
f 70/1/1 66/1/1 69/1/1
f 71/3/1 67/3/1 66/3/1
f 71/1/1 66/1/1 70/1/1
f 72/3/1 67/3/1 71/3/1
f 73/1/1 70/1/1 69/1/1
f 73/1/1 69/1/1 68/1/1
f 74/1/1 70/1/1 73/1/1
f 79/2/1 76/2/1 75/2/1
f 80/2/1 76/2/1 79/2/1
f 81/2/1 76/2/1 80/2/1
f 82/2/1 78/2/1 77/2/1
f 83/2/1 78/2/1 82/2/1
f 84/2/1 78/2/1 83/2/1
f 85/1/1 81/1/1 80/1/1
f 86/1/1 81/1/1 85/1/1
f 87/1/1 84/1/1 83/1/1
f 88/1/1 84/1/1 87/1/1
f 91/1/1 90/1/1 89/1/1
f 92/1/1 90/1/1 91/1/1
f 93/2/2 94/2/2 97/2/2
f 97/2/2 94/2/2 98/2/2
f 98/2/2 94/2/2 99/2/2
f 95/2/2 96/2/2 100/2/2
f 100/2/2 96/2/2 101/2/2
f 101/2/2 96/2/2 102/2/2
f 98/1/2 99/1/2 103/1/2
f 103/1/2 99/1/2 104/1/2
f 101/1/2 102/1/2 105/1/2
f 105/1/2 102/1/2 106/1/2
f 107/1/2 108/1/2 111/1/2
f 111/1/2 108/1/2 112/1/2
f 108/3/2 109/3/2 113/3/2
f 112/1/2 108/1/2 113/1/2
f 113/3/2 109/3/2 114/3/2
f 111/1/2 112/1/2 115/1/2
f 110/1/2 111/1/2 115/1/2
f 115/1/2 112/1/2 116/1/2
f 117/1/2 118/1/2 119/1/2
f 119/1/2 118/1/2 120/1/2
f 121/1/2 122/1/2 124/1/2
f 124/1/2 122/1/2 125/1/2
f 123/1/2 124/1/2 127/1/2
f 127/1/2 124/1/2 128/1/2
f 126/1/2 127/1/2 129/1/2
f 129/1/2 127/1/2 130/1/2
f 131/1/2 132/1/2 133/1/2
f 133/1/2 132/1/2 134/1/2
f 134/1/2 132/1/2 135/1/2
f 135/1/2 132/1/2 136/1/2
f 137/2/2 138/2/2 141/2/2
f 141/2/2 138/2/2 142/2/2
f 142/2/2 138/2/2 143/2/2
f 139/2/2 140/2/2 144/2/2
f 144/2/2 140/2/2 145/2/2
f 145/2/2 140/2/2 146/2/2
f 142/1/2 143/1/2 147/1/2
f 147/1/2 143/1/2 148/1/2
f 145/1/2 146/1/2 149/1/2
f 149/1/2 146/1/2 150/1/2
f 151/1/2 152/1/2 153/1/2
f 153/1/2 152/1/2 154/1/2
f 154/1/2 152/1/2 155/1/2
f 155/1/2 152/1/2 156/1/2
f 156/1/2 152/1/2 157/1/2
f 157/1/2 152/1/2 158/1/2
f 156/1/2 157/1/2 159/1/2
f 159/1/2 157/1/2 160/1/2
f 161/3/2 162/3/2 164/3/2
f 164/3/2 162/3/2 165/3/2
f 163/3/2 164/3/2 166/3/2
f 166/3/2 164/3/2 167/3/2
f 167/3/2 168/3/2 169/3/2
f 169/3/2 168/3/2 170/3/2
f 171/3/2 172/3/2 173/3/2
f 173/3/2 172/3/2 174/3/2
f 171/3/2 173/3/2 175/3/2
f 174/3/2 172/3/2 176/3/2
f 171/3/2 175/3/2 177/3/2
f 175/3/2 176/3/2 177/3/2
f 176/3/2 172/3/2 178/3/2
f 177/3/2 176/3/2 178/3/2
f 179/1/2 180/1/2 181/1/2
f 181/1/2 180/1/2 182/1/2
f 185/1/3 184/1/3 183/1/3
f 186/1/3 184/1/3 185/1/3
f 187/1/3 185/1/3 183/1/3
f 187/2/3 186/2/3 185/2/3
f 188/2/3 186/2/3 187/2/3
f 189/1/3 187/1/3 183/1/3
f 189/1/3 188/1/3 187/1/3
f 190/1/3 188/1/3 189/1/3
f 193/1/3 192/1/3 191/1/3
f 194/1/3 192/1/3 193/1/3
f 195/1/3 193/1/3 191/1/3
f 195/4/3 194/4/3 193/4/3
f 196/1/3 192/1/3 194/1/3
f 196/4/3 194/4/3 195/4/3
f 197/1/3 195/1/3 191/1/3
f 197/1/3 196/1/3 195/1/3
f 198/1/3 192/1/3 196/1/3
f 198/1/3 196/1/3 197/1/3
f 199/1/3 197/1/3 191/1/3
f 199/4/3 198/4/3 197/4/3
f 200/1/3 192/1/3 198/1/3
f 200/4/3 198/4/3 199/4/3
f 201/1/3 199/1/3 191/1/3
f 201/1/3 200/1/3 199/1/3
f 202/1/3 192/1/3 200/1/3
f 202/1/3 200/1/3 201/1/3
f 205/3/3 204/3/3 203/3/3
f 206/3/3 204/3/3 205/3/3
f 207/3/3 205/3/3 203/3/3
f 208/3/3 204/3/3 206/3/3
f 209/3/3 207/3/3 203/3/3
f 209/3/3 208/3/3 207/3/3
f 210/3/3 204/3/3 208/3/3
f 210/3/3 208/3/3 209/3/3
f 214/3/3 212/3/3 211/3/3
f 215/3/3 212/3/3 214/3/3
f 217/3/3 214/3/3 213/3/3
f 218/3/3 214/3/3 217/3/3
f 219/3/3 216/3/3 215/3/3
f 220/3/3 216/3/3 219/3/3
f 221/3/3 219/3/3 218/3/3
f 222/3/3 219/3/3 221/3/3
f 225/1/3 224/1/3 223/1/3
f 226/1/3 224/1/3 225/1/3
f 229/2/3 228/2/3 227/2/3
f 230/2/3 228/2/3 229/2/3
f 233/2/3 232/2/3 231/2/3
f 234/2/3 232/2/3 233/2/3
f 237/1/3 236/1/3 235/1/3
f 238/1/3 236/1/3 237/1/3
f 243/1/3 240/1/3 239/1/3
f 244/1/3 240/1/3 243/1/3
f 247/1/3 246/1/3 245/1/3
f 248/1/3 246/1/3 247/1/3
f 249/1/3 242/1/3 241/1/3
f 250/1/3 242/1/3 249/1/3
f 253/1/3 252/1/3 251/1/3
f 254/1/3 252/1/3 253/1/3
f 257/1/3 256/1/3 255/1/3
f 259/1/3 257/1/3 255/1/3
f 259/1/3 258/1/3 257/1/3
f 260/1/3 258/1/3 259/1/3
f 261/1/3 259/1/3 255/1/3
f 262/1/3 259/1/3 261/1/3
f 265/1/3 264/1/3 263/1/3
f 266/1/3 264/1/3 265/1/3
f 269/2/3 268/2/3 267/2/3
f 270/2/3 268/2/3 269/2/3
f 273/2/3 272/2/3 271/2/3
f 274/2/3 272/2/3 273/2/3
f 277/1/3 276/1/3 275/1/3
f 278/1/3 276/1/3 277/1/3
f 281/1/3 280/1/3 279/1/3
f 282/1/3 280/1/3 281/1/3
f 285/1/3 284/1/3 283/1/3
f 286/1/3 284/1/3 285/1/3
f 287/1/4 288/1/4 289/1/4
f 289/1/4 288/1/4 290/1/4
f 291/1/4 292/1/4 293/1/4
f 293/1/4 292/1/4 294/1/4
f 295/3/4 296/3/4 298/3/4
f 298/3/4 296/3/4 299/3/4
f 297/3/4 298/3/4 301/3/4
f 301/3/4 298/3/4 302/3/4
f 301/1/4 302/1/4 303/1/4
f 301/1/4 303/1/4 304/1/4
f 301/1/4 304/1/4 305/1/4
f 305/1/4 304/1/4 306/1/4
f 305/3/4 306/3/4 307/3/4
f 307/3/4 306/3/4 308/3/4
f 299/3/4 300/3/4 309/3/4
f 309/3/4 300/3/4 310/3/4
f 311/2/4 312/2/4 316/2/4
f 312/1/4 313/1/4 317/1/4
f 316/2/4 312/2/4 317/2/4
f 317/1/4 313/1/4 318/1/4
f 314/3/4 315/3/4 319/3/4
f 319/3/4 315/3/4 320/3/4
f 319/1/4 320/1/4 324/1/4
f 320/3/4 315/3/4 325/3/4
f 324/1/4 320/1/4 325/1/4
f 321/2/4 322/2/4 326/2/4
f 322/1/4 323/1/4 327/1/4
f 326/2/4 322/2/4 327/2/4
f 327/1/4 323/1/4 328/1/4
f 324/3/4 325/3/4 329/3/4
f 325/3/4 315/3/4 330/3/4
f 329/3/4 325/3/4 330/3/4
f 331/1/4 332/1/4 333/1/4
f 333/1/4 332/1/4 334/1/4
f 335/1/4 336/1/4 337/1/4
f 337/1/4 336/1/4 338/1/4
f 338/1/4 339/1/4 341/1/4
f 341/1/4 339/1/4 342/1/4
f 340/1/4 341/1/4 343/1/4
f 343/1/4 341/1/4 344/1/4
f 348/1/4 349/1/4 350/1/4
f 350/1/4 349/1/4 351/1/4
f 345/2/4 346/2/4 353/2/4
f 346/1/4 347/1/4 354/1/4
f 353/2/4 346/2/4 354/2/4
f 354/1/4 347/1/4 355/1/4
f 348/1/4 350/1/4 359/1/4
f 351/1/4 352/1/4 360/1/4
f 360/1/4 352/1/4 361/1/4
f 356/2/4 357/2/4 362/2/4
f 357/1/4 358/1/4 363/1/4
f 362/2/4 357/2/4 363/2/4
f 363/1/4 358/1/4 364/1/4
f 348/1/4 359/1/4 365/1/4
f 359/1/4 360/1/4 365/1/4
f 365/1/4 360/1/4 366/1/4
f 367/1/4 368/1/4 369/1/4
f 369/1/4 368/1/4 370/1/4
f 367/1/4 369/1/4 371/1/4
f 370/1/4 368/1/4 372/1/4
f 367/1/4 371/1/4 373/1/4
f 371/1/4 372/1/4 373/1/4
f 372/1/4 368/1/4 374/1/4
f 373/1/4 372/1/4 374/1/4
f 375/1/4 376/1/4 377/1/4
f 377/1/4 376/1/4 378/1/4
f 379/3/4 380/3/4 381/3/4
f 381/3/4 380/3/4 382/3/4
f 387/2/5 384/2/5 383/2/5
f 388/2/5 384/2/5 387/2/5
f 389/2/5 386/2/5 385/2/5
f 390/2/5 386/2/5 389/2/5
f 395/2/5 392/2/5 391/2/5
f 396/2/5 392/2/5 395/2/5
f 397/2/5 394/2/5 393/2/5
f 398/2/5 394/2/5 397/2/5
f 401/1/5 400/1/5 399/1/5
f 402/1/5 400/1/5 401/1/5
f 405/1/5 404/1/5 403/1/5
f 406/1/5 404/1/5 405/1/5
f 409/1/5 408/1/5 407/1/5
f 410/1/5 408/1/5 409/1/5
f 411/3/5 410/3/5 409/3/5
f 412/3/5 410/3/5 411/3/5
f 415/1/5 414/1/5 413/1/5
f 416/1/5 414/1/5 415/1/5
f 419/1/5 418/1/5 417/1/5
f 420/1/5 418/1/5 419/1/5
f 423/3/5 422/3/5 421/3/5
f 424/3/5 422/3/5 423/3/5
f 425/3/5 423/3/5 421/3/5
f 426/1/5 424/1/5 423/1/5
f 426/3/5 423/3/5 425/3/5
f 427/3/5 422/3/5 424/3/5
f 427/1/5 424/1/5 426/1/5
f 428/3/5 422/3/5 427/3/5
f 432/3/5 430/3/5 429/3/5
f 433/3/5 430/3/5 432/3/5
f 435/3/5 432/3/5 431/3/5
f 436/3/5 432/3/5 435/3/5
f 441/3/5 434/3/5 433/3/5
f 442/3/5 437/3/5 436/3/5
f 442/3/5 438/3/5 437/3/5
f 443/1/5 439/1/5 438/1/5
f 443/3/5 438/3/5 442/3/5
f 444/3/5 440/3/5 439/3/5
f 444/1/5 439/1/5 443/1/5
f 444/3/5 441/3/5 440/3/5
f 445/3/5 434/3/5 441/3/5
f 445/3/5 441/3/5 444/3/5
f 448/1/5 447/1/5 446/1/5
f 449/1/5 447/1/5 448/1/5
f 454/1/5 451/1/5 450/1/5
f 455/1/5 451/1/5 454/1/5
f 456/1/5 453/1/5 452/1/5
f 457/1/5 453/1/5 456/1/5
f 458/2/6 459/2/6 462/2/6
f 462/2/6 459/2/6 463/2/6
f 460/2/6 461/2/6 464/2/6
f 464/2/6 461/2/6 465/2/6
f 466/2/6 467/2/6 470/2/6
f 470/2/6 467/2/6 471/2/6
f 468/2/6 469/2/6 472/2/6
f 472/2/6 469/2/6 473/2/6
f 474/1/6 475/1/6 478/1/6
f 478/1/6 475/1/6 479/1/6
f 476/1/6 477/1/6 480/1/6
f 480/1/6 477/1/6 481/1/6
f 482/1/6 483/1/6 486/1/6
f 486/1/6 483/1/6 487/1/6
f 484/1/6 485/1/6 488/1/6
f 488/1/6 485/1/6 489/1/6
f 490/1/6 491/1/6 492/1/6
f 492/1/6 491/1/6 493/1/6
f 492/3/6 493/3/6 494/3/6
f 494/3/6 493/3/6 495/3/6
f 496/1/6 497/1/6 498/1/6
f 498/1/6 497/1/6 499/1/6
f 500/1/6 501/1/6 502/1/6
f 502/1/6 501/1/6 503/1/6
f 504/1/6 505/1/6 506/1/6
f 506/1/6 505/1/6 507/1/6
f 508/1/6 509/1/6 510/1/6
f 510/1/6 509/1/6 511/1/6
f 512/1/6 513/1/6 516/1/6
f 516/1/6 513/1/6 517/1/6
f 514/1/6 515/1/6 518/1/6
f 518/1/6 515/1/6 519/1/6
f 517/1/6 518/1/6 520/1/6
f 520/1/6 518/1/6 521/1/6
f 522/1/6 523/1/6 526/1/6
f 526/1/6 523/1/6 527/1/6
f 524/1/6 525/1/6 528/1/6
f 528/1/6 525/1/6 529/1/6
f 527/1/6 528/1/6 530/1/6
f 530/1/6 528/1/6 531/1/6
f 532/1/6 533/1/6 534/1/6
f 534/1/6 533/1/6 535/1/6
f 536/1/6 537/1/6 540/1/6
f 537/2/6 538/2/6 540/2/6
f 538/1/6 539/1/6 541/1/6
f 540/2/6 538/2/6 541/2/6
f 536/1/6 540/1/6 542/1/6
f 540/1/6 541/1/6 542/1/6
f 541/1/6 539/1/6 543/1/6
f 542/1/6 541/1/6 543/1/6
f 544/1/6 545/1/6 548/1/6
f 548/1/6 545/1/6 549/1/6
f 546/1/6 547/1/6 550/1/6
f 550/1/6 547/1/6 551/1/6
f 552/1/6 553/1/6 554/1/6
f 554/1/6 553/1/6 555/1/6
f 556/3/6 557/3/6 559/3/6
f 559/3/6 557/3/6 560/3/6
f 558/3/6 559/3/6 562/3/6
f 562/3/6 559/3/6 563/3/6
f 560/3/6 561/3/6 564/3/6
f 563/3/6 564/3/6 565/3/6
f 564/3/6 561/3/6 566/3/6
f 565/3/6 564/3/6 566/3/6
f 567/3/6 568/3/6 569/3/6
f 569/3/6 568/3/6 570/3/6
