# MagicaVoxel @ Ephtracy

# group
o 

# material
mtllib snake.mtl
usemtl palette

# normals
vn -1 0 0
vn 1 0 0
vn 0 0 1
vn 0 0 -1
vn 0 -1 0
vn 0 1 0

# texcoords
vt 0.748047 0.5
vt 0.771484 0.5
vt 0.841797 0.5
vt 0.857422 0.5
vt 0.892578 0.5
vt 0.896484 0.5
vt 0.904297 0.5

# verts
v -0.4 0 0.7
v -0.4 0 0.6
v -0.4 0 0.4
v -0.4 0 0.3
v -0.4 0 0
v -0.4 0 -0.1
v -0.4 0 -0.4
v -0.4 0 -0.5
v -0.4 0 -0.8
v -0.4 0.1 0.3
v -0.4 0.1 0.1
v -0.4 0.1 0
v -0.4 0.1 -0.1
v -0.4 0.1 -0.3
v -0.4 0.1 -0.4
v -0.4 0.1 -0.5
v -0.4 0.1 -0.7
v -0.4 0.1 -0.8
v -0.4 0.2 0.7
v -0.4 0.2 0.6
v -0.4 0.2 0.5
v -0.4 0.2 0.3
v -0.4 0.2 0.1
v -0.4 0.2 -0.1
v -0.4 0.2 -0.3
v -0.4 0.2 -0.5
v -0.4 0.2 -0.7
v -0.4 0.3 0.6
v -0.4 0.3 0.5
v -0.4 0.3 0.4
v -0.3 0 0.9
v -0.3 0 0.7
v -0.3 0.1 0.9
v -0.3 0.1 0.7
v -0.3 0.1 0.1
v -0.3 0.1 0
v -0.3 0.1 -0.3
v -0.3 0.1 -0.4
v -0.3 0.1 -0.7
v -0.3 0.1 -0.8
v -0.3 0.2 0.1
v -0.3 0.2 0
v -0.3 0.2 -0.3
v -0.3 0.2 -0.4
v -0.3 0.2 -0.7
v -0.3 0.2 -0.8
v -5.96046e-008 0 0.9
v -5.96046e-008 0 0.6
v -5.96046e-008 0 0.5
v -5.96046e-008 0 0.2
v -5.96046e-008 0 0.1
v -5.96046e-008 0 -0.2
v -5.96046e-008 0 -0.3
v -5.96046e-008 0 -0.6
v -5.96046e-008 0 -0.7
v -5.96046e-008 0.1 0.9
v -5.96046e-008 0.1 0.7
v -5.96046e-008 0.1 0.6
v -5.96046e-008 0.1 0.5
v -5.96046e-008 0.1 0.3
v -5.96046e-008 0.1 0.2
v -5.96046e-008 0.1 0.1
v -5.96046e-008 0.1 -0.1
v -5.96046e-008 0.1 -0.2
v -5.96046e-008 0.1 -0.3
v -5.96046e-008 0.1 -0.5
v -5.96046e-008 0.1 -0.6
v -5.96046e-008 0.1 -0.7
v -5.96046e-008 0.2 0.9
v -5.96046e-008 0.2 0.7
v -5.96046e-008 0.2 0.5
v -5.96046e-008 0.2 0.3
v -5.96046e-008 0.2 0.1
v -5.96046e-008 0.2 -0.1
v -5.96046e-008 0.2 -0.3
v -5.96046e-008 0.2 -0.5
v 0.1 0 -0.7
v 0.1 0 -0.8
v 0.1 0.1 0.7
v 0.1 0.1 0.6
v 0.1 0.1 0.3
v 0.1 0.1 0.2
v 0.1 0.1 -0.1
v 0.1 0.1 -0.2
v 0.1 0.1 -0.5
v 0.1 0.1 -0.6
v 0.1 0.1 -0.7
v 0.1 0.1 -0.8
v 0.1 0.2 0.7
v 0.1 0.2 0.6
v 0.1 0.2 0.3
v 0.1 0.2 0.2
v 0.1 0.2 -0.1
v 0.1 0.2 -0.2
v 0.1 0.2 -0.5
v 0.1 0.2 -0.6
v 0.1 0.2 -0.7
v -0.2 0 0.9
v -0.2 0 0.7
v -0.2 0.1 0.9
v -0.2 0.1 0.7
v -0.2 0.1 0.1
v -0.2 0.1 0
v -0.2 0.1 -0.3
v -0.2 0.1 -0.4
v -0.2 0.1 -0.7
v -0.2 0.1 -0.8
v -0.2 0.2 0.1
v -0.2 0.2 0
v -0.2 0.2 -0.3
v -0.2 0.2 -0.4
v -0.2 0.2 -0.7
v -0.2 0.2 -0.8
v -0.1 0 0.7
v -0.1 0 0.6
v -0.1 0 0.4
v -0.1 0 0.3
v -0.1 0 0
v -0.1 0 -0.1
v -0.1 0 -0.4
v -0.1 0 -0.5
v -0.1 0 -0.8
v -0.1 0.1 0.3
v -0.1 0.1 0.1
v -0.1 0.1 0
v -0.1 0.1 -0.1
v -0.1 0.1 -0.3
v -0.1 0.1 -0.4
v -0.1 0.1 -0.5
v -0.1 0.1 -0.7
v -0.1 0.1 -0.8
v -0.1 0.2 0.7
v -0.1 0.2 0.6
v -0.1 0.2 0.5
v -0.1 0.2 0.3
v -0.1 0.2 0.1
v -0.1 0.2 -0.1
v -0.1 0.2 -0.3
v -0.1 0.2 -0.5
v -0.1 0.2 -0.7
v -0.1 0.3 0.6
v -0.1 0.3 0.5
v -0.1 0.3 0.4
v 0.2 0 -0.7
v 0.2 0 -0.8
v 0.2 0.1 0.7
v 0.2 0.1 0.6
v 0.2 0.1 0.3
v 0.2 0.1 0.2
v 0.2 0.1 -0.1
v 0.2 0.1 -0.2
v 0.2 0.1 -0.5
v 0.2 0.1 -0.6
v 0.2 0.1 -0.7
v 0.2 0.1 -0.8
v 0.2 0.2 0.7
v 0.2 0.2 0.6
v 0.2 0.2 0.3
v 0.2 0.2 0.2
v 0.2 0.2 -0.1
v 0.2 0.2 -0.2
v 0.2 0.2 -0.5
v 0.2 0.2 -0.6
v 0.2 0.2 -0.7
v 0.3 0 0.9
v 0.3 0 0.6
v 0.3 0 0.5
v 0.3 0 0.2
v 0.3 0 0.1
v 0.3 0 -0.2
v 0.3 0 -0.3
v 0.3 0 -0.6
v 0.3 0 -0.7
v 0.3 0.1 0.9
v 0.3 0.1 0.7
v 0.3 0.1 0.6
v 0.3 0.1 0.5
v 0.3 0.1 0.3
v 0.3 0.1 0.2
v 0.3 0.1 0.1
v 0.3 0.1 -0.1
v 0.3 0.1 -0.2
v 0.3 0.1 -0.3
v 0.3 0.1 -0.5
v 0.3 0.1 -0.6
v 0.3 0.1 -0.7
v 0.3 0.2 0.9
v 0.3 0.2 0.7
v 0.3 0.2 0.5
v 0.3 0.2 0.3
v 0.3 0.2 0.1
v 0.3 0.2 -0.1
v 0.3 0.2 -0.3
v 0.3 0.2 -0.5
v -0.3 0 0.9
v -0.3 0.1 0.9
v -0.2 0 0.9
v -0.2 0.1 0.9
v -5.96046e-008 0 0.9
v -5.96046e-008 0.1 0.9
v -5.96046e-008 0.2 0.9
v 0.1 0 0.9
v 0.1 0.1 0.9
v 0.1 0.2 0.9
v 0.2 0 0.9
v 0.2 0.1 0.9
v 0.2 0.2 0.9
v 0.3 0 0.9
v 0.3 0.1 0.9
v 0.3 0.2 0.9
v -0.4 0 0.7
v -0.4 0.2 0.7
v -0.3 0 0.7
v -0.3 0.1 0.7
v -0.2 0 0.7
v -0.2 0.1 0.7
v -0.1 0 0.7
v -0.1 0.2 0.7
v -0.4 0.2 0.6
v -0.4 0.3 0.6
v -0.3 0.2 0.6
v -0.3 0.3 0.6
v -0.2 0.2 0.6
v -0.2 0.3 0.6
v -0.1 0.2 0.6
v -0.1 0.3 0.6
v -5.96046e-008 0 0.5
v -5.96046e-008 0.1 0.5
v -5.96046e-008 0.2 0.5
v 0.1 0 0.5
v 0.1 0.1 0.5
v 0.1 0.2 0.5
v 0.2 0 0.5
v 0.2 0.1 0.5
v 0.2 0.2 0.5
v 0.3 0 0.5
v 0.3 0.1 0.5
v 0.3 0.2 0.5
v -0.4 0 0.3
v -0.4 0.1 0.3
v -0.4 0.2 0.3
v -0.3 0.1 0.3
v -0.3 0.2 0.3
v -0.2 0.1 0.3
v -0.2 0.2 0.3
v -0.1 0 0.3
v -0.1 0.1 0.3
v -0.1 0.2 0.3
v -5.96046e-008 0 0.1
v -5.96046e-008 0.1 0.1
v -5.96046e-008 0.2 0.1
v 0.1 0.1 0.1
v 0.1 0.2 0.1
v 0.2 0.1 0.1
v 0.2 0.2 0.1
v 0.3 0 0.1
v 0.3 0.1 0.1
v 0.3 0.2 0.1
v -0.4 0 -0.1
v -0.4 0.1 -0.1
v -0.4 0.2 -0.1
v -0.3 0 -0.1
v -0.3 0.1 -0.1
v -0.3 0.2 -0.1
v -0.2 0 -0.1
v -0.2 0.1 -0.1
v -0.2 0.2 -0.1
v -0.1 0 -0.1
v -0.1 0.1 -0.1
v -0.1 0.2 -0.1
v -5.96046e-008 0 -0.3
v -5.96046e-008 0.1 -0.3
v -5.96046e-008 0.2 -0.3
v 0.1 0 -0.3
v 0.1 0.1 -0.3
v 0.1 0.2 -0.3
v 0.2 0 -0.3
v 0.2 0.1 -0.3
v 0.2 0.2 -0.3
v 0.3 0 -0.3
v 0.3 0.1 -0.3
v 0.3 0.2 -0.3
v -0.4 0 -0.5
v -0.4 0.1 -0.5
v -0.4 0.2 -0.5
v -0.3 0.1 -0.5
v -0.3 0.2 -0.5
v -0.2 0.1 -0.5
v -0.2 0.2 -0.5
v -0.1 0 -0.5
v -0.1 0.1 -0.5
v -0.1 0.2 -0.5
v -5.96046e-008 0.1 0.7
v -5.96046e-008 0.2 0.7
v 0.1 0.1 0.7
v 0.1 0.2 0.7
v 0.2 0.1 0.7
v 0.2 0.2 0.7
v 0.3 0.1 0.7
v 0.3 0.2 0.7
v -5.96046e-008 0 0.6
v -5.96046e-008 0.1 0.6
v 0.1 0 0.6
v 0.1 0.1 0.6
v 0.1 0.2 0.6
v 0.2 0 0.6
v 0.2 0.1 0.6
v 0.2 0.2 0.6
v 0.3 0 0.6
v 0.3 0.1 0.6
v -0.4 0 0.4
v -0.4 0.3 0.4
v -0.1 0 0.4
v -0.1 0.3 0.4
v -5.96046e-008 0.1 0.3
v -5.96046e-008 0.2 0.3
v 0.1 0.1 0.3
v 0.1 0.2 0.3
v 0.2 0.1 0.3
v 0.2 0.2 0.3
v 0.3 0.1 0.3
v 0.3 0.2 0.3
v -5.96046e-008 0 0.2
v -5.96046e-008 0.1 0.2
v 0.1 0 0.2
v 0.1 0.1 0.2
v 0.1 0.2 0.2
v 0.2 0 0.2
v 0.2 0.1 0.2
v 0.2 0.2 0.2
v 0.3 0 0.2
v 0.3 0.1 0.2
v -0.4 0.1 0.1
v -0.4 0.2 0.1
v -0.3 0.1 0.1
v -0.3 0.2 0.1
v -0.2 0.1 0.1
v -0.2 0.2 0.1
v -0.1 0.1 0.1
v -0.1 0.2 0.1
v -0.4 0 0
v -0.4 0.1 0
v -0.3 0.1 0
v -0.3 0.2 0
v -0.2 0.1 0
v -0.2 0.2 0
v -0.1 0 0
v -0.1 0.1 0
v -5.96046e-008 0.1 -0.1
v -5.96046e-008 0.2 -0.1
v 0.1 0.1 -0.1
v 0.1 0.2 -0.1
v 0.2 0.1 -0.1
v 0.2 0.2 -0.1
v 0.3 0.1 -0.1
v 0.3 0.2 -0.1
v -5.96046e-008 0 -0.2
v -5.96046e-008 0.1 -0.2
v 0.1 0.1 -0.2
v 0.1 0.2 -0.2
v 0.2 0.1 -0.2
v 0.2 0.2 -0.2
v 0.3 0 -0.2
v 0.3 0.1 -0.2
v -0.4 0.1 -0.3
v -0.4 0.2 -0.3
v -0.3 0.1 -0.3
v -0.3 0.2 -0.3
v -0.2 0.1 -0.3
v -0.2 0.2 -0.3
v -0.1 0.1 -0.3
v -0.1 0.2 -0.3
v -0.4 0 -0.4
v -0.4 0.1 -0.4
v -0.3 0 -0.4
v -0.3 0.1 -0.4
v -0.3 0.2 -0.4
v -0.2 0 -0.4
v -0.2 0.1 -0.4
v -0.2 0.2 -0.4
v -0.1 0 -0.4
v -0.1 0.1 -0.4
v -5.96046e-008 0.1 -0.5
v -5.96046e-008 0.2 -0.5
v 0.1 0.1 -0.5
v 0.1 0.2 -0.5
v 0.2 0.1 -0.5
v 0.2 0.2 -0.5
v 0.3 0.1 -0.5
v 0.3 0.2 -0.5
v -0.4 0.1 -0.7
v -0.4 0.2 -0.7
v -0.3 0.1 -0.7
v -0.3 0.2 -0.7
v -0.2 0.1 -0.7
v -0.2 0.2 -0.7
v -0.1 0.1 -0.7
v -0.1 0.2 -0.7
v -5.96046e-008 0 -0.7
v -5.96046e-008 0.1 -0.7
v 0.1 0 -0.7
v 0.1 0.1 -0.7
v 0.1 0.2 -0.7
v 0.2 0 -0.7
v 0.2 0.1 -0.7
v 0.2 0.2 -0.7
v 0.3 0 -0.7
v 0.3 0.1 -0.7
v -0.4 0 -0.8
v -0.4 0.1 -0.8
v -0.3 0.1 -0.8
v -0.3 0.2 -0.8
v -0.2 0.1 -0.8
v -0.2 0.2 -0.8
v -0.1 0 -0.8
v -0.1 0.1 -0.8
v 0.1 0 -0.8
v 0.1 0.1 -0.8
v 0.2 0 -0.8
v 0.2 0.1 -0.8
v -0.3 0 0.9
v -0.2 0 0.9
v -5.96046e-008 0 0.9
v 0.1 0 0.9
v 0.2 0 0.9
v 0.3 0 0.9
v -0.4 0 0.7
v -0.3 0 0.7
v -0.2 0 0.7
v -0.1 0 0.7
v -0.4 0 0.6
v -0.3 0 0.6
v -0.2 0 0.6
v -0.1 0 0.6
v -5.96046e-008 0 0.6
v 0.1 0 0.6
v 0.2 0 0.6
v 0.3 0 0.6
v -5.96046e-008 0 0.5
v 0.1 0 0.5
v 0.2 0 0.5
v 0.3 0 0.5
v -0.4 0 0.4
v -0.1 0 0.4
v -0.4 0 0.3
v -0.1 0 0.3
v -5.96046e-008 0 0.2
v 0.1 0 0.2
v 0.2 0 0.2
v 0.3 0 0.2
v -5.96046e-008 0 0.1
v 0.3 0 0.1
v -0.4 0 0
v -0.1 0 0
v -0.4 0 -0.1
v -0.3 0 -0.1
v -0.2 0 -0.1
v -0.1 0 -0.1
v -5.96046e-008 0 -0.2
v 0.3 0 -0.2
v -5.96046e-008 0 -0.3
v 0.1 0 -0.3
v 0.2 0 -0.3
v 0.3 0 -0.3
v -0.4 0 -0.4
v -0.3 0 -0.4
v -0.2 0 -0.4
v -0.1 0 -0.4
v -0.4 0 -0.5
v -0.1 0 -0.5
v -5.96046e-008 0 -0.6
v 0.1 0 -0.6
v 0.2 0 -0.6
v 0.3 0 -0.6
v -5.96046e-008 0 -0.7
v 0.1 0 -0.7
v 0.2 0 -0.7
v 0.3 0 -0.7
v -0.4 0 -0.8
v -0.1 0 -0.8
v 0.1 0 -0.8
v 0.2 0 -0.8
v -0.3 0.1 0.9
v -0.2 0.1 0.9
v -0.3 0.1 0.7
v -0.2 0.1 0.7
v -5.96046e-008 0.1 0.7
v 0.1 0.1 0.7
v 0.2 0.1 0.7
v 0.3 0.1 0.7
v -5.96046e-008 0.1 0.6
v 0.1 0.1 0.6
v 0.2 0.1 0.6
v 0.3 0.1 0.6
v -5.96046e-008 0.1 0.3
v 0.1 0.1 0.3
v 0.2 0.1 0.3
v 0.3 0.1 0.3
v -5.96046e-008 0.1 0.2
v 0.1 0.1 0.2
v 0.2 0.1 0.2
v 0.3 0.1 0.2
v -0.4 0.1 0.1
v -0.3 0.1 0.1
v -0.2 0.1 0.1
v -0.1 0.1 0.1
v -0.4 0.1 0
v -0.3 0.1 0
v -0.2 0.1 0
v -0.1 0.1 0
v -5.96046e-008 0.1 -0.1
v 0.1 0.1 -0.1
v 0.2 0.1 -0.1
v 0.3 0.1 -0.1
v -5.96046e-008 0.1 -0.2
v 0.1 0.1 -0.2
v 0.2 0.1 -0.2
v 0.3 0.1 -0.2
v -0.4 0.1 -0.3
v -0.3 0.1 -0.3
v -0.2 0.1 -0.3
v -0.1 0.1 -0.3
v -0.4 0.1 -0.4
v -0.3 0.1 -0.4
v -0.2 0.1 -0.4
v -0.1 0.1 -0.4
v -5.96046e-008 0.1 -0.5
v 0.1 0.1 -0.5
v 0.2 0.1 -0.5
v 0.3 0.1 -0.5
v -5.96046e-008 0.1 -0.6
v 0.1 0.1 -0.6
v 0.2 0.1 -0.6
v 0.3 0.1 -0.6
v -0.4 0.1 -0.7
v -0.3 0.1 -0.7
v -0.2 0.1 -0.7
v -0.1 0.1 -0.7
v -5.96046e-008 0.1 -0.7
v 0.1 0.1 -0.7
v 0.2 0.1 -0.7
v 0.3 0.1 -0.7
v -0.4 0.1 -0.8
v -0.3 0.1 -0.8
v -0.2 0.1 -0.8
v -0.1 0.1 -0.8
v 0.1 0.1 -0.8
v 0.2 0.1 -0.8
v -5.96046e-008 0.2 0.9
v 0.1 0.2 0.9
v 0.2 0.2 0.9
v 0.3 0.2 0.9
v -0.4 0.2 0.7
v -0.1 0.2 0.7
v -5.96046e-008 0.2 0.7
v 0.1 0.2 0.7
v 0.2 0.2 0.7
v 0.3 0.2 0.7
v -0.4 0.2 0.6
v -0.3 0.2 0.6
v -0.2 0.2 0.6
v -0.1 0.2 0.6
v 0.1 0.2 0.6
v 0.2 0.2 0.6
v -5.96046e-008 0.2 0.5
v 0.1 0.2 0.5
v 0.2 0.2 0.5
v 0.3 0.2 0.5
v -0.4 0.2 0.3
v -0.3 0.2 0.3
v -0.2 0.2 0.3
v -0.1 0.2 0.3
v -5.96046e-008 0.2 0.3
v 0.1 0.2 0.3
v 0.2 0.2 0.3
v 0.3 0.2 0.3
v 0.1 0.2 0.2
v 0.2 0.2 0.2
v -0.4 0.2 0.1
v -0.3 0.2 0.1
v -0.2 0.2 0.1
v -0.1 0.2 0.1
v -5.96046e-008 0.2 0.1
v 0.1 0.2 0.1
v 0.2 0.2 0.1
v 0.3 0.2 0.1
v -0.3 0.2 0
v -0.2 0.2 0
v -0.4 0.2 -0.1
v -0.3 0.2 -0.1
v -0.2 0.2 -0.1
v -0.1 0.2 -0.1
v -5.96046e-008 0.2 -0.1
v 0.1 0.2 -0.1
v 0.2 0.2 -0.1
v 0.3 0.2 -0.1
v 0.1 0.2 -0.2
v 0.2 0.2 -0.2
v -0.4 0.2 -0.3
v -0.3 0.2 -0.3
v -0.2 0.2 -0.3
v -0.1 0.2 -0.3
v -5.96046e-008 0.2 -0.3
v 0.1 0.2 -0.3
v 0.2 0.2 -0.3
v 0.3 0.2 -0.3
v -0.3 0.2 -0.4
v -0.2 0.2 -0.4
v -0.4 0.2 -0.5
v -0.3 0.2 -0.5
v -0.2 0.2 -0.5
v -0.1 0.2 -0.5
v -5.96046e-008 0.2 -0.5
v 0.1 0.2 -0.5
v 0.2 0.2 -0.5
v 0.3 0.2 -0.5
v 0.1 0.2 -0.6
v 0.2 0.2 -0.6
v -0.4 0.2 -0.7
v -0.3 0.2 -0.7
v -0.2 0.2 -0.7
v -0.1 0.2 -0.7
v 0.1 0.2 -0.7
v 0.2 0.2 -0.7
v -0.3 0.2 -0.8
v -0.2 0.2 -0.8
v -0.4 0.3 0.6
v -0.3 0.3 0.6
v -0.2 0.3 0.6
v -0.1 0.3 0.6
v -0.4 0.3 0.5
v -0.3 0.3 0.5
v -0.2 0.3 0.5
v -0.1 0.3 0.5
v -0.4 0.3 0.4
v -0.1 0.3 0.4

# faces
f 10/1/1 5/1/1 4/1/1
f 11/1/1 5/1/1 10/1/1
f 12/1/1 5/1/1 11/1/1
f 13/5/1 7/5/1 6/5/1
f 14/5/1 7/5/1 13/5/1
f 15/5/1 7/5/1 14/5/1
f 16/1/1 9/1/1 8/1/1
f 17/1/1 9/1/1 16/1/1
f 18/1/1 9/1/1 17/1/1
f 19/6/1 2/6/1 1/6/1
f 20/1/1 3/1/1 2/1/1
f 20/6/1 2/6/1 19/6/1
f 21/1/1 3/1/1 20/1/1
f 22/7/1 11/7/1 10/7/1
f 23/7/1 11/7/1 22/7/1
f 24/7/1 14/7/1 13/7/1
f 25/7/1 14/7/1 24/7/1
f 26/7/1 17/7/1 16/7/1
f 27/7/1 17/7/1 26/7/1
f 28/4/1 21/4/1 20/4/1
f 29/1/1 3/1/1 21/1/1
f 29/4/1 21/4/1 28/4/1
f 30/1/1 3/1/1 29/1/1
f 33/3/1 32/3/1 31/3/1
f 34/3/1 32/3/1 33/3/1
f 41/1/1 36/1/1 35/1/1
f 42/1/1 36/1/1 41/1/1
f 43/5/1 38/5/1 37/5/1
f 44/5/1 38/5/1 43/5/1
f 45/1/1 40/1/1 39/1/1
f 46/1/1 40/1/1 45/1/1
f 56/5/1 48/5/1 47/5/1
f 57/5/1 48/5/1 56/5/1
f 58/5/1 48/5/1 57/5/1
f 59/5/1 50/5/1 49/5/1
f 60/5/1 50/5/1 59/5/1
f 61/5/1 50/5/1 60/5/1
f 62/1/1 52/1/1 51/1/1
f 63/1/1 52/1/1 62/1/1
f 64/1/1 52/1/1 63/1/1
f 65/5/1 54/5/1 53/5/1
f 66/5/1 54/5/1 65/5/1
f 67/1/1 55/1/1 54/1/1
f 67/5/1 54/5/1 66/5/1
f 68/1/1 55/1/1 67/1/1
f 69/7/1 57/7/1 56/7/1
f 70/7/1 57/7/1 69/7/1
f 71/7/1 60/7/1 59/7/1
f 72/7/1 60/7/1 71/7/1
f 73/7/1 63/7/1 62/7/1
f 74/7/1 63/7/1 73/7/1
f 75/7/1 66/7/1 65/7/1
f 76/7/1 66/7/1 75/7/1
f 87/1/1 78/1/1 77/1/1
f 88/1/1 78/1/1 87/1/1
f 89/5/1 80/5/1 79/5/1
f 90/5/1 80/5/1 89/5/1
f 91/5/1 82/5/1 81/5/1
f 92/5/1 82/5/1 91/5/1
f 93/1/1 84/1/1 83/1/1
f 94/1/1 84/1/1 93/1/1
f 95/5/1 86/5/1 85/5/1
f 96/1/1 87/1/1 86/1/1
f 96/5/1 86/5/1 95/5/1
f 97/1/1 87/1/1 96/1/1
f 98/3/2 99/3/2 100/3/2
f 100/3/2 99/3/2 101/3/2
f 102/1/2 103/1/2 108/1/2
f 108/1/2 103/1/2 109/1/2
f 104/5/2 105/5/2 110/5/2
f 110/5/2 105/5/2 111/5/2
f 106/1/2 107/1/2 112/1/2
f 112/1/2 107/1/2 113/1/2
f 117/1/2 118/1/2 123/1/2
f 123/1/2 118/1/2 124/1/2
f 124/1/2 118/1/2 125/1/2
f 119/5/2 120/5/2 126/5/2
f 126/5/2 120/5/2 127/5/2
f 127/5/2 120/5/2 128/5/2
f 121/1/2 122/1/2 129/1/2
f 129/1/2 122/1/2 130/1/2
f 130/1/2 122/1/2 131/1/2
f 114/6/2 115/6/2 132/6/2
f 115/1/2 116/1/2 133/1/2
f 132/6/2 115/6/2 133/6/2
f 133/1/2 116/1/2 134/1/2
f 123/7/2 124/7/2 135/7/2
f 135/7/2 124/7/2 136/7/2
f 126/7/2 127/7/2 137/7/2
f 137/7/2 127/7/2 138/7/2
f 129/7/2 130/7/2 139/7/2
f 139/7/2 130/7/2 140/7/2
f 133/4/2 134/4/2 141/4/2
f 134/1/2 116/1/2 142/1/2
f 141/4/2 134/4/2 142/4/2
f 142/1/2 116/1/2 143/1/2
f 144/1/2 145/1/2 154/1/2
f 154/1/2 145/1/2 155/1/2
f 146/5/2 147/5/2 156/5/2
f 156/5/2 147/5/2 157/5/2
f 148/5/2 149/5/2 158/5/2
f 158/5/2 149/5/2 159/5/2
f 150/1/2 151/1/2 160/1/2
f 160/1/2 151/1/2 161/1/2
f 152/5/2 153/5/2 162/5/2
f 153/1/2 154/1/2 163/1/2
f 162/5/2 153/5/2 163/5/2
f 163/1/2 154/1/2 164/1/2
f 165/5/2 166/5/2 174/5/2
f 174/5/2 166/5/2 175/5/2
f 175/5/2 166/5/2 176/5/2
f 167/5/2 168/5/2 177/5/2
f 177/5/2 168/5/2 178/5/2
f 178/5/2 168/5/2 179/5/2
f 169/1/2 170/1/2 180/1/2
f 180/1/2 170/1/2 181/1/2
f 181/1/2 170/1/2 182/1/2
f 171/5/2 172/5/2 183/5/2
f 183/5/2 172/5/2 184/5/2
f 172/2/2 173/2/2 185/2/2
f 184/5/2 172/5/2 185/5/2
f 185/2/2 173/2/2 186/2/2
f 174/7/2 175/7/2 187/7/2
f 187/7/2 175/7/2 188/7/2
f 177/7/2 178/7/2 189/7/2
f 189/7/2 178/7/2 190/7/2
f 180/7/2 181/7/2 191/7/2
f 191/7/2 181/7/2 192/7/2
f 183/7/2 184/7/2 193/7/2
f 193/7/2 184/7/2 194/7/2
f 197/3/3 196/3/3 195/3/3
f 198/3/3 196/3/3 197/3/3
f 202/5/3 200/5/3 199/5/3
f 203/7/3 201/7/3 200/7/3
f 203/5/3 200/5/3 202/5/3
f 204/7/3 201/7/3 203/7/3
f 205/1/3 203/1/3 202/1/3
f 206/5/3 204/5/3 203/5/3
f 206/1/3 203/1/3 205/1/3
f 207/5/3 204/5/3 206/5/3
f 208/5/3 206/5/3 205/5/3
f 209/7/3 207/7/3 206/7/3
f 209/5/3 206/5/3 208/5/3
f 210/7/3 207/7/3 209/7/3
f 213/6/3 212/6/3 211/6/3
f 214/6/3 212/6/3 213/6/3
f 216/6/3 212/6/3 214/6/3
f 217/6/3 216/6/3 215/6/3
f 218/6/3 212/6/3 216/6/3
f 218/6/3 216/6/3 217/6/3
f 221/4/3 220/4/3 219/4/3
f 222/4/3 220/4/3 221/4/3
f 223/1/3 222/1/3 221/1/3
f 224/1/3 222/1/3 223/1/3
f 225/4/3 224/4/3 223/4/3
f 226/4/3 224/4/3 225/4/3
f 230/5/3 228/5/3 227/5/3
f 231/7/3 229/7/3 228/7/3
f 231/5/3 228/5/3 230/5/3
f 232/7/3 229/7/3 231/7/3
f 233/1/3 231/1/3 230/1/3
f 234/5/3 232/5/3 231/5/3
f 234/1/3 231/1/3 233/1/3
f 235/5/3 232/5/3 234/5/3
f 236/5/3 234/5/3 233/5/3
f 237/7/3 235/7/3 234/7/3
f 237/5/3 234/5/3 236/5/3
f 238/7/3 235/7/3 237/7/3
f 242/1/3 240/1/3 239/1/3
f 242/7/3 241/7/3 240/7/3
f 243/7/3 241/7/3 242/7/3
f 244/1/3 242/1/3 239/1/3
f 244/1/3 243/1/3 242/1/3
f 245/1/3 243/1/3 244/1/3
f 246/1/3 244/1/3 239/1/3
f 247/7/3 245/7/3 244/7/3
f 247/1/3 244/1/3 246/1/3
f 248/7/3 245/7/3 247/7/3
f 252/1/3 250/1/3 249/1/3
f 252/7/3 251/7/3 250/7/3
f 253/7/3 251/7/3 252/7/3
f 254/1/3 252/1/3 249/1/3
f 254/1/3 253/1/3 252/1/3
f 255/1/3 253/1/3 254/1/3
f 256/1/3 254/1/3 249/1/3
f 257/7/3 255/7/3 254/7/3
f 257/1/3 254/1/3 256/1/3
f 258/7/3 255/7/3 257/7/3
f 262/5/3 260/5/3 259/5/3
f 263/7/3 261/7/3 260/7/3
f 263/5/3 260/5/3 262/5/3
f 264/7/3 261/7/3 263/7/3
f 265/1/3 263/1/3 262/1/3
f 266/5/3 264/5/3 263/5/3
f 266/1/3 263/1/3 265/1/3
f 267/5/3 264/5/3 266/5/3
f 268/5/3 266/5/3 265/5/3
f 269/7/3 267/7/3 266/7/3
f 269/5/3 266/5/3 268/5/3
f 270/7/3 267/7/3 269/7/3
f 274/5/3 272/5/3 271/5/3
f 275/7/3 273/7/3 272/7/3
f 275/5/3 272/5/3 274/5/3
f 276/7/3 273/7/3 275/7/3
f 277/1/3 275/1/3 274/1/3
f 278/5/3 276/5/3 275/5/3
f 278/1/3 275/1/3 277/1/3
f 279/5/3 276/5/3 278/5/3
f 280/5/3 278/5/3 277/5/3
f 281/7/3 279/7/3 278/7/3
f 281/5/3 278/5/3 280/5/3
f 282/7/3 279/7/3 281/7/3
f 286/1/3 284/1/3 283/1/3
f 286/7/3 285/7/3 284/7/3
f 287/7/3 285/7/3 286/7/3
f 288/1/3 286/1/3 283/1/3
f 288/1/3 287/1/3 286/1/3
f 289/1/3 287/1/3 288/1/3
f 290/1/3 288/1/3 283/1/3
f 291/7/3 289/7/3 288/7/3
f 291/1/3 288/1/3 290/1/3
f 292/7/3 289/7/3 291/7/3
f 293/7/4 294/7/4 295/7/4
f 295/7/4 294/7/4 296/7/4
f 297/7/4 298/7/4 299/7/4
f 299/7/4 298/7/4 300/7/4
f 301/5/4 302/5/4 303/5/4
f 303/5/4 302/5/4 304/5/4
f 303/1/4 304/1/4 306/1/4
f 304/5/4 305/5/4 307/5/4
f 306/1/4 304/1/4 307/1/4
f 307/5/4 305/5/4 308/5/4
f 306/5/4 307/5/4 309/5/4
f 309/5/4 307/5/4 310/5/4
f 311/1/4 312/1/4 313/1/4
f 313/1/4 312/1/4 314/1/4
f 315/7/4 316/7/4 317/7/4
f 317/7/4 316/7/4 318/7/4
f 319/7/4 320/7/4 321/7/4
f 321/7/4 320/7/4 322/7/4
f 323/5/4 324/5/4 325/5/4
f 325/5/4 324/5/4 326/5/4
f 325/1/4 326/1/4 328/1/4
f 326/5/4 327/5/4 329/5/4
f 328/1/4 326/1/4 329/1/4
f 329/5/4 327/5/4 330/5/4
f 328/5/4 329/5/4 331/5/4
f 331/5/4 329/5/4 332/5/4
f 333/7/4 334/7/4 335/7/4
f 335/7/4 334/7/4 336/7/4
f 337/7/4 338/7/4 339/7/4
f 339/7/4 338/7/4 340/7/4
f 341/1/4 342/1/4 343/1/4
f 341/1/4 343/1/4 345/1/4
f 343/1/4 344/1/4 345/1/4
f 345/1/4 344/1/4 346/1/4
f 341/1/4 345/1/4 347/1/4
f 347/1/4 345/1/4 348/1/4
f 349/7/4 350/7/4 351/7/4
f 351/7/4 350/7/4 352/7/4
f 353/7/4 354/7/4 355/7/4
f 355/7/4 354/7/4 356/7/4
f 357/1/4 358/1/4 359/1/4
f 357/1/4 359/1/4 361/1/4
f 359/1/4 360/1/4 361/1/4
f 361/1/4 360/1/4 362/1/4
f 357/1/4 361/1/4 363/1/4
f 363/1/4 361/1/4 364/1/4
f 365/7/4 366/7/4 367/7/4
f 367/7/4 366/7/4 368/7/4
f 369/7/4 370/7/4 371/7/4
f 371/7/4 370/7/4 372/7/4
f 373/5/4 374/5/4 375/5/4
f 375/5/4 374/5/4 376/5/4
f 375/1/4 376/1/4 378/1/4
f 376/5/4 377/5/4 379/5/4
f 378/1/4 376/1/4 379/1/4
f 379/5/4 377/5/4 380/5/4
f 378/5/4 379/5/4 381/5/4
f 381/5/4 379/5/4 382/5/4
f 383/7/4 384/7/4 385/7/4
f 385/7/4 384/7/4 386/7/4
f 387/7/4 388/7/4 389/7/4
f 389/7/4 388/7/4 390/7/4
f 391/7/4 392/7/4 393/7/4
f 393/7/4 392/7/4 394/7/4
f 395/7/4 396/7/4 397/7/4
f 397/7/4 396/7/4 398/7/4
f 399/1/4 400/1/4 401/1/4
f 401/1/4 400/1/4 402/1/4
f 402/1/4 403/1/4 405/1/4
f 405/1/4 403/1/4 406/1/4
f 404/2/4 405/2/4 407/2/4
f 407/2/4 405/2/4 408/2/4
f 409/1/4 410/1/4 411/1/4
f 409/1/4 411/1/4 413/1/4
f 411/1/4 412/1/4 413/1/4
f 413/1/4 412/1/4 414/1/4
f 409/1/4 413/1/4 415/1/4
f 415/1/4 413/1/4 416/1/4
f 417/1/4 418/1/4 419/1/4
f 419/1/4 418/1/4 420/1/4
f 428/3/5 422/3/5 421/3/5
f 429/3/5 422/3/5 428/3/5
f 431/6/5 428/6/5 427/6/5
f 432/1/5 429/1/5 428/1/5
f 432/6/5 428/6/5 431/6/5
f 433/6/5 430/6/5 429/6/5
f 433/1/5 429/1/5 432/1/5
f 434/6/5 430/6/5 433/6/5
f 435/5/5 424/5/5 423/5/5
f 436/1/5 425/1/5 424/1/5
f 436/5/5 424/5/5 435/5/5
f 437/5/5 426/5/5 425/5/5
f 437/1/5 425/1/5 436/1/5
f 438/5/5 426/5/5 437/5/5
f 443/1/5 434/1/5 433/1/5
f 443/1/5 432/1/5 431/1/5
f 443/1/5 433/1/5 432/1/5
f 444/1/5 434/1/5 443/1/5
f 447/5/5 440/5/5 439/5/5
f 448/1/5 441/1/5 440/1/5
f 448/5/5 440/5/5 447/5/5
f 449/5/5 442/5/5 441/5/5
f 449/1/5 441/1/5 448/1/5
f 450/5/5 442/5/5 449/5/5
f 453/1/5 446/1/5 445/1/5
f 454/1/5 446/1/5 453/1/5
f 459/1/5 452/1/5 451/1/5
f 460/1/5 452/1/5 459/1/5
f 465/5/5 456/5/5 455/5/5
f 466/1/5 457/1/5 456/1/5
f 466/5/5 456/5/5 465/5/5
f 467/5/5 458/5/5 457/5/5
f 467/1/5 457/1/5 466/1/5
f 468/5/5 458/5/5 467/5/5
f 471/5/5 462/5/5 461/5/5
f 472/1/5 463/1/5 462/1/5
f 472/5/5 462/5/5 471/5/5
f 473/5/5 464/5/5 463/5/5
f 473/1/5 463/1/5 472/1/5
f 474/5/5 464/5/5 473/5/5
f 475/1/5 472/1/5 471/1/5
f 475/1/5 473/1/5 472/1/5
f 476/1/5 473/1/5 475/1/5
f 477/2/5 474/2/5 473/2/5
f 477/1/5 473/1/5 476/1/5
f 478/2/5 474/2/5 477/2/5
f 479/1/5 470/1/5 469/1/5
f 480/1/5 470/1/5 479/1/5
f 481/1/5 477/1/5 476/1/5
f 482/1/5 477/1/5 481/1/5
f 483/3/6 484/3/6 485/3/6
f 485/3/6 484/3/6 486/3/6
f 487/5/6 488/5/6 491/5/6
f 491/5/6 488/5/6 492/5/6
f 489/5/6 490/5/6 493/5/6
f 493/5/6 490/5/6 494/5/6
f 495/5/6 496/5/6 499/5/6
f 499/5/6 496/5/6 500/5/6
f 497/5/6 498/5/6 501/5/6
f 501/5/6 498/5/6 502/5/6
f 503/1/6 504/1/6 507/1/6
f 507/1/6 504/1/6 508/1/6
f 505/1/6 506/1/6 509/1/6
f 509/1/6 506/1/6 510/1/6
f 511/1/6 512/1/6 515/1/6
f 515/1/6 512/1/6 516/1/6
f 513/1/6 514/1/6 517/1/6
f 517/1/6 514/1/6 518/1/6
f 519/5/6 520/5/6 523/5/6
f 523/5/6 520/5/6 524/5/6
f 521/5/6 522/5/6 525/5/6
f 525/5/6 522/5/6 526/5/6
f 527/5/6 528/5/6 531/5/6
f 531/5/6 528/5/6 532/5/6
f 529/5/6 530/5/6 533/5/6
f 533/5/6 530/5/6 534/5/6
f 531/1/6 532/1/6 539/1/6
f 539/1/6 532/1/6 540/1/6
f 533/2/6 534/2/6 541/2/6
f 541/2/6 534/2/6 542/2/6
f 535/1/6 536/1/6 543/1/6
f 543/1/6 536/1/6 544/1/6
f 537/1/6 538/1/6 545/1/6
f 545/1/6 538/1/6 546/1/6
f 540/1/6 541/1/6 547/1/6
f 547/1/6 541/1/6 548/1/6
f 549/7/6 550/7/6 555/7/6
f 550/5/6 551/5/6 556/5/6
f 555/7/6 550/7/6 556/7/6
f 551/7/6 552/7/6 557/7/6
f 556/5/6 551/5/6 557/5/6
f 557/7/6 552/7/6 558/7/6
f 553/6/6 554/6/6 559/6/6
f 559/6/6 554/6/6 560/6/6
f 560/6/6 554/6/6 561/6/6
f 561/6/6 554/6/6 562/6/6
f 556/5/6 557/5/6 563/5/6
f 563/5/6 557/5/6 564/5/6
f 565/7/6 566/7/6 573/7/6
f 566/5/6 567/5/6 574/5/6
f 573/7/6 566/7/6 574/7/6
f 567/7/6 568/7/6 575/7/6
f 574/5/6 567/5/6 575/5/6
f 575/7/6 568/7/6 576/7/6
f 574/5/6 575/5/6 577/5/6
f 577/5/6 575/5/6 578/5/6
f 569/7/6 570/7/6 579/7/6
f 570/1/6 571/1/6 580/1/6
f 579/7/6 570/7/6 580/7/6
f 571/7/6 572/7/6 581/7/6
f 580/1/6 571/1/6 581/1/6
f 581/7/6 572/7/6 582/7/6
f 580/1/6 581/1/6 587/1/6
f 587/1/6 581/1/6 588/1/6
f 583/7/6 584/7/6 593/7/6
f 584/1/6 585/1/6 594/1/6
f 593/7/6 584/7/6 594/7/6
f 585/7/6 586/7/6 595/7/6
f 594/1/6 585/1/6 595/1/6
f 595/7/6 586/7/6 596/7/6
f 594/1/6 595/1/6 597/1/6
f 597/1/6 595/1/6 598/1/6
f 589/7/6 590/7/6 599/7/6
f 590/5/6 591/5/6 600/5/6
f 599/7/6 590/7/6 600/7/6
f 591/7/6 592/7/6 601/7/6
f 600/5/6 591/5/6 601/5/6
f 601/7/6 592/7/6 602/7/6
f 600/5/6 601/5/6 607/5/6
f 607/5/6 601/5/6 608/5/6
f 603/7/6 604/7/6 613/7/6
f 604/5/6 605/5/6 614/5/6
f 613/7/6 604/7/6 614/7/6
f 605/7/6 606/7/6 615/7/6
f 614/5/6 605/5/6 615/5/6
f 615/7/6 606/7/6 616/7/6
f 614/5/6 615/5/6 617/5/6
f 617/5/6 615/5/6 618/5/6
f 609/7/6 610/7/6 619/7/6
f 610/1/6 611/1/6 620/1/6
f 619/7/6 610/7/6 620/7/6
f 611/7/6 612/7/6 621/7/6
f 620/1/6 611/1/6 621/1/6
f 621/7/6 612/7/6 622/7/6
f 617/1/6 618/1/6 623/1/6
f 623/1/6 618/1/6 624/1/6
f 620/1/6 621/1/6 625/1/6
f 625/1/6 621/1/6 626/1/6
f 627/4/6 628/4/6 631/4/6
f 628/1/6 629/1/6 632/1/6
f 631/4/6 628/4/6 632/4/6
f 629/4/6 630/4/6 633/4/6
f 632/1/6 629/1/6 633/1/6
f 633/4/6 630/4/6 634/4/6
f 631/1/6 632/1/6 635/1/6
f 632/1/6 633/1/6 635/1/6
f 633/1/6 634/1/6 635/1/6
f 635/1/6 634/1/6 636/1/6
