# MagicaVoxel @ Ephtracy

# group
o 

# material
mtllib mother.mtl
usemtl palette

# normals
vn -1 0 0
vn 1 0 0
vn 0 0 1
vn 0 0 -1
vn 0 -1 0
vn 0 1 0

# texcoords
vt 0.0605469 0.5
vt 0.0878906 0.5
vt 0.208984 0.5
vt 0.232422 0.5
vt 0.537109 0.5
vt 0.853516 0.5
vt 0.966797 0.5
vt 0.990234 0.5
vt 0.994141 0.5

# verts
v -0.9 1.2 0.1
v -0.9 1.2 -0.1
v -0.9 1.4 0.1
v -0.9 1.4 -0.1
v -0.4 1.6 0.3
v -0.4 1.6 0.2
v -0.4 1.8 0.2
v -0.4 1.8 -0.2
v -0.4 2.1 0.3
v -0.4 2.1 -0.2
v -0.3 0 0.2
v -0.3 0 -0.1
v -0.3 0.1 0.2
v -0.3 0.1 0.1
v -0.3 0.1 -0.1
v -0.3 0.2 0.1
v -0.3 0.2 -0.1
v -0.3 0.7 0.1
v -0.3 0.7 -0.1
v -0.3 0.8 0.1
v -0.3 0.8 -0.1
v -0.3 1.2 0.1
v -0.3 1.2 -0.1
v -0.3 1.7 0.1
v -0.3 1.7 -0.2
v -0.3 1.8 0.1
v -0.3 1.8 -0.2
v -0.3 1.8 -0.3
v -0.3 2.1 0.3
v -0.3 2.1 -0.2
v -0.3 2.1 -0.3
v -0.3 2.2 0.3
v -0.3 2.2 -0.2
v -0.2 1.4 0.1
v -0.2 1.4 -0.1
v -0.2 1.5 0.1
v -0.2 1.5 -0.1
v -0.2 1.6 0.1
v -0.2 1.6 -0.1
v -0.2 1.7 0.2
v -0.2 1.7 0.1
v -0.2 1.7 -0.1
v -0.2 1.7 -0.2
v -0.2 1.7 -0.3
v -0.2 1.8 0.2
v -0.2 1.8 0.1
v -0.2 1.8 -0.2
v -0.2 1.8 -0.3
v -0.2 1.8 -0.4
v -0.2 2.1 -0.2
v -0.2 2.1 -0.3
v -0.2 2.1 -0.4
v -0.2 2.2 0.3
v -0.2 2.2 -0.2
v -0.2 2.2 -0.3
v -0.2 2.3 0.3
v -0.2 2.3 -0.2
v -0.1 1.4 0.2
v -0.1 1.4 0.1
v -0.1 1.4 -0.1
v -0.1 1.4 -0.2
v -0.1 1.5 0.2
v -0.1 1.5 0.1
v -0.1 1.5 -0.1
v -0.1 1.5 -0.2
v -0.1 1.6 0.2
v -0.1 1.6 0.1
v -0.1 1.6 -0.1
v -0.1 1.6 -0.2
v -0.1 1.7 0.2
v -0.1 1.7 0.1
v -0.1 1.7 -0.1
v -0.1 1.7 -0.2
v 0.1 0 0.2
v 0.1 0 -0.1
v 0.1 0.1 0.2
v 0.1 0.1 0.1
v 0.1 0.1 -0.1
v 0.1 0.2 0.1
v 0.1 0.2 -0.1
v 0.2 2.1 0.3
v 0.2 2.1 0.2
v 0.2 2.2 0.3
v 0.2 2.2 0.2
v 0.3 1.6 0.3
v 0.3 1.6 0.2
v 0.3 1.8 0.2
v 0.3 2.1 0.3
v 0.3 2.1 0.2
v -0.3 1.6 0.3
v -0.3 1.6 0.2
v -0.3 1.8 0.2
v -0.3 2.1 0.3
v -0.3 2.1 0.2
v -0.2 2.1 0.3
v -0.2 2.1 0.2
v -0.2 2.2 0.3
v -0.2 2.2 0.2
v -0.1 0 0.2
v -0.1 0 -0.1
v -0.1 0.1 0.2
v -0.1 0.1 0.1
v -0.1 0.1 -0.1
v -0.1 0.2 0.1
v -0.1 0.2 -0.1
v 0.1 1.4 0.2
v 0.1 1.4 0.1
v 0.1 1.4 -0.1
v 0.1 1.4 -0.2
v 0.1 1.5 0.2
v 0.1 1.5 0.1
v 0.1 1.5 -0.1
v 0.1 1.5 -0.2
v 0.1 1.6 0.2
v 0.1 1.6 0.1
v 0.1 1.6 -0.1
v 0.1 1.6 -0.2
v 0.1 1.7 0.2
v 0.1 1.7 0.1
v 0.1 1.7 -0.1
v 0.1 1.7 -0.2
v 0.2 1.4 0.1
v 0.2 1.4 -0.1
v 0.2 1.5 0.1
v 0.2 1.5 -0.1
v 0.2 1.6 0.1
v 0.2 1.6 -0.1
v 0.2 1.7 0.2
v 0.2 1.7 0.1
v 0.2 1.7 -0.1
v 0.2 1.7 -0.2
v 0.2 1.7 -0.3
v 0.2 1.8 0.2
v 0.2 1.8 0.1
v 0.2 1.8 -0.2
v 0.2 1.8 -0.3
v 0.2 1.8 -0.4
v 0.2 2.1 -0.2
v 0.2 2.1 -0.3
v 0.2 2.1 -0.4
v 0.2 2.2 0.3
v 0.2 2.2 -0.2
v 0.2 2.2 -0.3
v 0.2 2.3 0.3
v 0.2 2.3 -0.2
v 0.3 0 0.2
v 0.3 0 -0.1
v 0.3 0.1 0.2
v 0.3 0.1 0.1
v 0.3 0.1 -0.1
v 0.3 0.2 0.1
v 0.3 0.2 -0.1
v 0.3 0.7 0.1
v 0.3 0.7 -0.1
v 0.3 0.8 0.1
v 0.3 0.8 -0.1
v 0.3 1.2 0.1
v 0.3 1.2 -0.1
v 0.3 1.7 0.1
v 0.3 1.7 -0.2
v 0.3 1.8 0.1
v 0.3 1.8 -0.2
v 0.3 1.8 -0.3
v 0.3 2.1 0.3
v 0.3 2.1 -0.2
v 0.3 2.1 -0.3
v 0.3 2.2 0.3
v 0.3 2.2 -0.2
v 0.4 1.6 0.3
v 0.4 1.6 0.2
v 0.4 1.8 0.2
v 0.4 1.8 -0.2
v 0.4 2.1 0.3
v 0.4 2.1 -0.2
v 0.9 1.2 0.1
v 0.9 1.2 -0.1
v 0.9 1.4 0.1
v 0.9 1.4 -0.1
v -0.4 1.6 0.3
v -0.4 2.1 0.3
v -0.3 1.6 0.3
v -0.3 2.1 0.3
v -0.3 2.2 0.3
v -0.2 2.1 0.3
v -0.2 2.2 0.3
v -0.2 2.3 0.3
v 0.2 2.1 0.3
v 0.2 2.2 0.3
v 0.2 2.3 0.3
v 0.3 1.6 0.3
v 0.3 2.1 0.3
v 0.3 2.2 0.3
v 0.4 1.6 0.3
v 0.4 2.1 0.3
v -0.3 0 0.2
v -0.3 0.1 0.2
v -0.3 1.8 0.2
v -0.3 2.1 0.2
v -0.2 1.7 0.2
v -0.2 1.8 0.2
v -0.2 2 0.2
v -0.2 2.1 0.2
v -0.2 2.2 0.2
v -0.1 0 0.2
v -0.1 0.1 0.2
v -0.1 1.4 0.2
v -0.1 1.5 0.2
v -0.1 1.6 0.2
v -0.1 1.7 0.2
v -0.1 1.8 0.2
v -0.1 1.9 0.2
v -0.1 2 0.2
v -0.1 2.1 0.2
v 0.1 0 0.2
v 0.1 0.1 0.2
v 0.1 1.4 0.2
v 0.1 1.5 0.2
v 0.1 1.6 0.2
v 0.1 1.7 0.2
v 0.1 1.8 0.2
v 0.1 1.9 0.2
v 0.1 2 0.2
v 0.1 2.1 0.2
v 0.2 1.7 0.2
v 0.2 1.8 0.2
v 0.2 2 0.2
v 0.2 2.1 0.2
v 0.2 2.2 0.2
v 0.3 0 0.2
v 0.3 0.1 0.2
v 0.3 1.8 0.2
v 0.3 2.1 0.2
v -0.9 1.2 0.1
v -0.9 1.4 0.1
v -0.8 1.2 0.1
v -0.8 1.4 0.1
v -0.5 1.2 0.1
v -0.5 1.4 0.1
v -0.3 0.1 0.1
v -0.3 0.2 0.1
v -0.3 0.7 0.1
v -0.3 0.8 0.1
v -0.3 1.2 0.1
v -0.3 1.3 0.1
v -0.3 1.4 0.1
v -0.3 1.7 0.1
v -0.3 1.8 0.1
v -0.2 1.2 0.1
v -0.2 1.3 0.1
v -0.2 1.4 0.1
v -0.2 1.5 0.1
v -0.2 1.6 0.1
v -0.2 1.7 0.1
v -0.2 1.8 0.1
v -0.1 0.1 0.1
v -0.1 0.2 0.1
v -0.1 1.1 0.1
v -0.1 1.2 0.1
v -0.1 1.3 0.1
v -0.1 1.4 0.1
v -0.1 1.5 0.1
v -0.1 1.6 0.1
v -0.1 1.7 0.1
v 0.1 0.1 0.1
v 0.1 0.2 0.1
v 0.1 1.1 0.1
v 0.1 1.2 0.1
v 0.1 1.3 0.1
v 0.1 1.4 0.1
v 0.1 1.5 0.1
v 0.1 1.6 0.1
v 0.1 1.7 0.1
v 0.2 1.2 0.1
v 0.2 1.3 0.1
v 0.2 1.4 0.1
v 0.2 1.5 0.1
v 0.2 1.6 0.1
v 0.2 1.7 0.1
v 0.2 1.8 0.1
v 0.3 0.1 0.1
v 0.3 0.2 0.1
v 0.3 0.7 0.1
v 0.3 0.8 0.1
v 0.3 1.2 0.1
v 0.3 1.3 0.1
v 0.3 1.4 0.1
v 0.3 1.7 0.1
v 0.3 1.8 0.1
v 0.5 1.2 0.1
v 0.5 1.4 0.1
v 0.8 1.2 0.1
v 0.8 1.4 0.1
v 0.9 1.2 0.1
v 0.9 1.4 0.1
v -0.4 1.6 0.2
v -0.4 1.8 0.2
v -0.3 1.6 0.2
v -0.3 1.8 0.2
v 0.3 1.6 0.2
v 0.3 1.8 0.2
v 0.4 1.6 0.2
v 0.4 1.8 0.2
v -0.9 1.2 -0.1
v -0.9 1.4 -0.1
v -0.8 1.2 -0.1
v -0.8 1.4 -0.1
v -0.5 1.2 -0.1
v -0.5 1.4 -0.1
v -0.3 0 -0.1
v -0.3 0.1 -0.1
v -0.3 0.2 -0.1
v -0.3 0.7 -0.1
v -0.3 0.8 -0.1
v -0.3 1.2 -0.1
v -0.3 1.3 -0.1
v -0.3 1.4 -0.1
v -0.2 1.2 -0.1
v -0.2 1.3 -0.1
v -0.2 1.4 -0.1
v -0.2 1.5 -0.1
v -0.2 1.6 -0.1
v -0.2 1.7 -0.1
v -0.1 0 -0.1
v -0.1 0.1 -0.1
v -0.1 0.2 -0.1
v -0.1 1.1 -0.1
v -0.1 1.2 -0.1
v -0.1 1.3 -0.1
v -0.1 1.4 -0.1
v -0.1 1.5 -0.1
v -0.1 1.6 -0.1
v -0.1 1.7 -0.1
v 0.1 0 -0.1
v 0.1 0.1 -0.1
v 0.1 0.2 -0.1
v 0.1 1.1 -0.1
v 0.1 1.2 -0.1
v 0.1 1.3 -0.1
v 0.1 1.4 -0.1
v 0.1 1.5 -0.1
v 0.1 1.6 -0.1
v 0.1 1.7 -0.1
v 0.2 1.2 -0.1
v 0.2 1.3 -0.1
v 0.2 1.4 -0.1
v 0.2 1.5 -0.1
v 0.2 1.6 -0.1
v 0.2 1.7 -0.1
v 0.3 0 -0.1
v 0.3 0.1 -0.1
v 0.3 0.2 -0.1
v 0.3 0.7 -0.1
v 0.3 0.8 -0.1
v 0.3 1.2 -0.1
v 0.3 1.3 -0.1
v 0.3 1.4 -0.1
v 0.5 1.2 -0.1
v 0.5 1.4 -0.1
v 0.8 1.2 -0.1
v 0.8 1.4 -0.1
v 0.9 1.2 -0.1
v 0.9 1.4 -0.1
v -0.4 1.8 -0.2
v -0.4 2.1 -0.2
v -0.3 1.7 -0.2
v -0.3 1.8 -0.2
v -0.3 2.1 -0.2
v -0.3 2.2 -0.2
v -0.2 1.7 -0.2
v -0.2 1.8 -0.2
v -0.2 2.1 -0.2
v -0.2 2.2 -0.2
v -0.2 2.3 -0.2
v -0.1 1.4 -0.2
v -0.1 1.5 -0.2
v -0.1 1.6 -0.2
v -0.1 1.7 -0.2
v 0.1 1.4 -0.2
v 0.1 1.5 -0.2
v 0.1 1.6 -0.2
v 0.1 1.7 -0.2
v 0.2 1.7 -0.2
v 0.2 1.8 -0.2
v 0.2 2.1 -0.2
v 0.2 2.2 -0.2
v 0.2 2.3 -0.2
v 0.3 1.7 -0.2
v 0.3 1.8 -0.2
v 0.3 2.1 -0.2
v 0.3 2.2 -0.2
v 0.4 1.8 -0.2
v 0.4 2.1 -0.2
v -0.3 1.8 -0.3
v -0.3 2.1 -0.3
v -0.2 1.7 -0.3
v -0.2 1.8 -0.3
v -0.2 2.1 -0.3
v -0.2 2.2 -0.3
v 0.2 1.7 -0.3
v 0.2 1.8 -0.3
v 0.2 2.1 -0.3
v 0.2 2.2 -0.3
v 0.3 1.8 -0.3
v 0.3 2.1 -0.3
v -0.2 1.8 -0.4
v -0.2 2.1 -0.4
v 0.2 1.8 -0.4
v 0.2 2.1 -0.4
v -0.3 0 0.2
v -0.1 0 0.2
v 0.1 0 0.2
v 0.3 0 0.2
v -0.3 0 -0.1
v -0.1 0 -0.1
v 0.1 0 -0.1
v 0.3 0 -0.1
v -0.1 0.2 0.1
v 0.1 0.2 0.1
v -0.1 0.2 -0.1
v 0.1 0.2 -0.1
v -0.9 1.2 0.1
v -0.8 1.2 0.1
v -0.5 1.2 0.1
v -0.3 1.2 0.1
v 0.3 1.2 0.1
v 0.5 1.2 0.1
v 0.8 1.2 0.1
v 0.9 1.2 0.1
v -0.9 1.2 -0.1
v -0.8 1.2 -0.1
v -0.5 1.2 -0.1
v -0.3 1.2 -0.1
v 0.3 1.2 -0.1
v 0.5 1.2 -0.1
v 0.8 1.2 -0.1
v 0.9 1.2 -0.1
v -0.1 1.4 0.2
v 0.1 1.4 0.2
v -0.1 1.4 0.1
v 0.1 1.4 0.1
v -0.1 1.4 -0.1
v 0.1 1.4 -0.1
v -0.1 1.4 -0.2
v 0.1 1.4 -0.2
v -0.4 1.6 0.3
v -0.3 1.6 0.3
v 0.3 1.6 0.3
v 0.4 1.6 0.3
v -0.4 1.6 0.2
v -0.3 1.6 0.2
v 0.3 1.6 0.2
v 0.4 1.6 0.2
v -0.2 1.7 0.2
v -0.1 1.7 0.2
v 0.1 1.7 0.2
v 0.2 1.7 0.2
v -0.3 1.7 0.1
v -0.2 1.7 0.1
v -0.1 1.7 0.1
v 0.1 1.7 0.1
v 0.2 1.7 0.1
v 0.3 1.7 0.1
v -0.2 1.7 -0.1
v -0.1 1.7 -0.1
v 0.1 1.7 -0.1
v 0.2 1.7 -0.1
v -0.3 1.7 -0.2
v -0.2 1.7 -0.2
v -0.1 1.7 -0.2
v 0.1 1.7 -0.2
v 0.2 1.7 -0.2
v 0.3 1.7 -0.2
v -0.2 1.7 -0.3
v 0.2 1.7 -0.3
v -0.4 1.8 0.2
v -0.3 1.8 0.2
v -0.2 1.8 0.2
v 0.2 1.8 0.2
v 0.3 1.8 0.2
v 0.4 1.8 0.2
v -0.3 1.8 0.1
v -0.2 1.8 0.1
v 0.2 1.8 0.1
v 0.3 1.8 0.1
v -0.4 1.8 -0.2
v -0.3 1.8 -0.2
v -0.2 1.8 -0.2
v 0.2 1.8 -0.2
v 0.3 1.8 -0.2
v 0.4 1.8 -0.2
v -0.3 1.8 -0.3
v -0.2 1.8 -0.3
v 0.2 1.8 -0.3
v 0.3 1.8 -0.3
v -0.2 1.8 -0.4
v 0.2 1.8 -0.4
v -0.3 2.1 0.3
v -0.2 2.1 0.3
v 0.2 2.1 0.3
v 0.3 2.1 0.3
v -0.3 2.1 0.2
v -0.2 2.1 0.2
v 0.2 2.1 0.2
v 0.3 2.1 0.2
v -0.2 2.2 0.3
v 0.2 2.2 0.3
v -0.2 2.2 0.2
v 0.2 2.2 0.2
v -0.3 0.1 0.2
v -0.1 0.1 0.2
v 0.1 0.1 0.2
v 0.3 0.1 0.2
v -0.3 0.1 0.1
v -0.1 0.1 0.1
v 0.1 0.1 0.1
v 0.3 0.1 0.1
v -0.9 1.4 0.1
v -0.8 1.4 0.1
v -0.5 1.4 0.1
v -0.3 1.4 0.1
v -0.2 1.4 0.1
v 0.2 1.4 0.1
v 0.3 1.4 0.1
v 0.5 1.4 0.1
v 0.8 1.4 0.1
v 0.9 1.4 0.1
v -0.9 1.4 -0.1
v -0.8 1.4 -0.1
v -0.5 1.4 -0.1
v -0.3 1.4 -0.1
v -0.2 1.4 -0.1
v 0.2 1.4 -0.1
v 0.3 1.4 -0.1
v 0.5 1.4 -0.1
v 0.8 1.4 -0.1
v 0.9 1.4 -0.1
v -0.4 2.1 0.3
v -0.3 2.1 0.3
v 0.3 2.1 0.3
v 0.4 2.1 0.3
v -0.4 2.1 -0.2
v -0.3 2.1 -0.2
v -0.2 2.1 -0.2
v 0.2 2.1 -0.2
v 0.3 2.1 -0.2
v 0.4 2.1 -0.2
v -0.3 2.1 -0.3
v -0.2 2.1 -0.3
v 0.2 2.1 -0.3
v 0.3 2.1 -0.3
v -0.2 2.1 -0.4
v 0.2 2.1 -0.4
v -0.3 2.2 0.3
v -0.2 2.2 0.3
v 0.2 2.2 0.3
v 0.3 2.2 0.3
v -0.3 2.2 -0.2
v -0.2 2.2 -0.2
v 0.2 2.2 -0.2
v 0.3 2.2 -0.2
v -0.2 2.2 -0.3
v 0.2 2.2 -0.3
v -0.2 2.3 0.3
v 0.2 2.3 0.3
v -0.2 2.3 -0.2
v 0.2 2.3 -0.2

# faces
f 3/1/1 2/1/1 1/1/1
f 4/1/1 2/1/1 3/1/1
f 7/8/1 6/8/1 5/8/1
f 9/8/1 7/8/1 5/8/1
f 9/8/1 8/8/1 7/8/1
f 10/8/1 8/8/1 9/8/1
f 13/4/1 12/4/1 11/4/1
f 14/4/1 12/4/1 13/4/1
f 15/4/1 12/4/1 14/4/1
f 16/5/1 15/5/1 14/5/1
f 17/5/1 15/5/1 16/5/1
f 18/6/1 17/6/1 16/6/1
f 19/6/1 17/6/1 18/6/1
f 20/4/1 19/4/1 18/4/1
f 21/4/1 19/4/1 20/4/1
f 22/6/1 21/6/1 20/6/1
f 23/6/1 21/6/1 22/6/1
f 26/8/1 25/8/1 24/8/1
f 27/8/1 25/8/1 26/8/1
f 30/8/1 28/8/1 27/8/1
f 31/8/1 28/8/1 30/8/1
f 32/8/1 30/8/1 29/8/1
f 33/8/1 30/8/1 32/8/1
f 36/3/1 35/3/1 34/3/1
f 37/3/1 35/3/1 36/3/1
f 38/2/1 37/2/1 36/2/1
f 39/2/1 37/2/1 38/2/1
f 41/3/1 39/3/1 38/3/1
f 42/3/1 39/3/1 41/3/1
f 45/5/1 41/5/1 40/5/1
f 46/5/1 41/5/1 45/5/1
f 47/8/1 44/8/1 43/8/1
f 48/8/1 44/8/1 47/8/1
f 51/8/1 49/8/1 48/8/1
f 52/8/1 49/8/1 51/8/1
f 54/8/1 51/8/1 50/8/1
f 55/8/1 51/8/1 54/8/1
f 56/8/1 54/8/1 53/8/1
f 57/8/1 54/8/1 56/8/1
f 62/3/1 59/3/1 58/3/1
f 63/3/1 59/3/1 62/3/1
f 64/3/1 61/3/1 60/3/1
f 65/3/1 61/3/1 64/3/1
f 66/2/1 63/2/1 62/2/1
f 67/2/1 63/2/1 66/2/1
f 68/2/1 65/2/1 64/2/1
f 69/2/1 65/2/1 68/2/1
f 70/3/1 67/3/1 66/3/1
f 71/3/1 67/3/1 70/3/1
f 72/3/1 69/3/1 68/3/1
f 73/3/1 69/3/1 72/3/1
f 76/4/1 75/4/1 74/4/1
f 77/4/1 75/4/1 76/4/1
f 78/4/1 75/4/1 77/4/1
f 79/5/1 78/5/1 77/5/1
f 80/5/1 78/5/1 79/5/1
f 83/8/1 82/8/1 81/8/1
f 84/8/1 82/8/1 83/8/1
f 87/8/1 86/8/1 85/8/1
f 88/8/1 87/8/1 85/8/1
f 89/8/1 87/8/1 88/8/1
f 90/8/2 91/8/2 92/8/2
f 90/8/2 92/8/2 93/8/2
f 93/8/2 92/8/2 94/8/2
f 95/8/2 96/8/2 97/8/2
f 97/8/2 96/8/2 98/8/2
f 99/4/2 100/4/2 101/4/2
f 101/4/2 100/4/2 102/4/2
f 102/4/2 100/4/2 103/4/2
f 102/5/2 103/5/2 104/5/2
f 104/5/2 103/5/2 105/5/2
f 106/3/2 107/3/2 110/3/2
f 110/3/2 107/3/2 111/3/2
f 108/3/2 109/3/2 112/3/2
f 112/3/2 109/3/2 113/3/2
f 110/2/2 111/2/2 114/2/2
f 114/2/2 111/2/2 115/2/2
f 112/2/2 113/2/2 116/2/2
f 116/2/2 113/2/2 117/2/2
f 114/3/2 115/3/2 118/3/2
f 118/3/2 115/3/2 119/3/2
f 116/3/2 117/3/2 120/3/2
f 120/3/2 117/3/2 121/3/2
f 122/3/2 123/3/2 124/3/2
f 124/3/2 123/3/2 125/3/2
f 124/2/2 125/2/2 126/2/2
f 126/2/2 125/2/2 127/2/2
f 126/3/2 127/3/2 129/3/2
f 129/3/2 127/3/2 130/3/2
f 128/5/2 129/5/2 133/5/2
f 133/5/2 129/5/2 134/5/2
f 131/8/2 132/8/2 135/8/2
f 135/8/2 132/8/2 136/8/2
f 136/8/2 137/8/2 139/8/2
f 139/8/2 137/8/2 140/8/2
f 138/8/2 139/8/2 142/8/2
f 142/8/2 139/8/2 143/8/2
f 141/8/2 142/8/2 144/8/2
f 144/8/2 142/8/2 145/8/2
f 146/4/2 147/4/2 148/4/2
f 148/4/2 147/4/2 149/4/2
f 149/4/2 147/4/2 150/4/2
f 149/5/2 150/5/2 151/5/2
f 151/5/2 150/5/2 152/5/2
f 151/6/2 152/6/2 153/6/2
f 153/6/2 152/6/2 154/6/2
f 153/4/2 154/4/2 155/4/2
f 155/4/2 154/4/2 156/4/2
f 155/6/2 156/6/2 157/6/2
f 157/6/2 156/6/2 158/6/2
f 159/8/2 160/8/2 161/8/2
f 161/8/2 160/8/2 162/8/2
f 162/8/2 163/8/2 165/8/2
f 165/8/2 163/8/2 166/8/2
f 164/8/2 165/8/2 167/8/2
f 167/8/2 165/8/2 168/8/2
f 169/8/2 170/8/2 171/8/2
f 169/8/2 171/8/2 173/8/2
f 171/8/2 172/8/2 173/8/2
f 173/8/2 172/8/2 174/8/2
f 175/1/2 176/1/2 177/1/2
f 177/1/2 176/1/2 178/1/2
f 181/8/3 180/8/3 179/8/3
f 182/8/3 180/8/3 181/8/3
f 184/8/3 183/8/3 182/8/3
f 185/8/3 183/8/3 184/8/3
f 188/8/3 186/8/3 185/8/3
f 189/8/3 186/8/3 188/8/3
f 191/8/3 188/8/3 187/8/3
f 192/8/3 188/8/3 191/8/3
f 193/8/3 191/8/3 190/8/3
f 194/8/3 191/8/3 193/8/3
f 200/5/3 198/5/3 197/5/3
f 201/5/3 198/5/3 200/5/3
f 202/5/3 198/5/3 201/5/3
f 204/4/3 196/4/3 195/4/3
f 205/4/3 196/4/3 204/4/3
f 209/5/3 200/5/3 199/5/3
f 209/5/3 201/5/3 200/5/3
f 210/5/3 201/5/3 209/5/3
f 211/5/3 201/5/3 210/5/3
f 212/7/3 202/7/3 201/7/3
f 212/5/3 201/5/3 211/5/3
f 213/5/3 203/5/3 202/5/3
f 213/7/3 202/7/3 212/7/3
f 216/3/3 207/3/3 206/3/3
f 217/2/3 208/2/3 207/2/3
f 217/3/3 207/3/3 216/3/3
f 218/3/3 209/3/3 208/3/3
f 218/2/3 208/2/3 217/2/3
f 219/5/3 210/5/3 209/5/3
f 219/3/3 209/3/3 218/3/3
f 220/9/3 211/9/3 210/9/3
f 220/5/3 210/5/3 219/5/3
f 221/5/3 212/5/3 211/5/3
f 221/9/3 211/9/3 220/9/3
f 221/5/3 213/5/3 212/5/3
f 222/5/3 213/5/3 221/5/3
f 223/5/3 203/5/3 213/5/3
f 223/5/3 213/5/3 222/5/3
f 224/5/3 220/5/3 219/5/3
f 224/5/3 222/5/3 221/5/3
f 224/5/3 221/5/3 220/5/3
f 225/5/3 222/5/3 224/5/3
f 226/7/3 223/7/3 222/7/3
f 226/5/3 222/5/3 225/5/3
f 227/5/3 203/5/3 223/5/3
f 227/7/3 223/7/3 226/7/3
f 228/5/3 203/5/3 227/5/3
f 229/4/3 215/4/3 214/4/3
f 230/4/3 215/4/3 229/4/3
f 231/5/3 226/5/3 225/5/3
f 231/5/3 227/5/3 226/5/3
f 232/5/3 227/5/3 231/5/3
f 235/1/3 234/1/3 233/1/3
f 236/1/3 234/1/3 235/1/3
f 237/5/3 236/5/3 235/5/3
f 238/5/3 236/5/3 237/5/3
f 243/6/3 238/6/3 237/6/3
f 244/6/3 238/6/3 243/6/3
f 245/6/3 238/6/3 244/6/3
f 248/6/3 244/6/3 243/6/3
f 248/6/3 243/6/3 242/6/3
f 249/4/3 245/4/3 244/4/3
f 249/6/3 244/6/3 248/6/3
f 250/4/3 245/4/3 249/4/3
f 253/8/3 247/8/3 246/8/3
f 254/8/3 247/8/3 253/8/3
f 255/5/3 240/5/3 239/5/3
f 256/6/3 241/6/3 240/6/3
f 256/5/3 240/5/3 255/5/3
f 257/6/3 248/6/3 242/6/3
f 258/4/3 249/4/3 248/4/3
f 258/6/3 248/6/3 257/6/3
f 259/6/3 250/6/3 249/6/3
f 259/4/3 249/4/3 258/4/3
f 260/3/3 251/3/3 250/3/3
f 260/6/3 250/6/3 259/6/3
f 261/2/3 252/2/3 251/2/3
f 261/3/3 251/3/3 260/3/3
f 262/3/3 253/3/3 252/3/3
f 262/2/3 252/2/3 261/2/3
f 263/3/3 253/3/3 262/3/3
f 265/6/3 241/6/3 256/6/3
f 266/6/3 257/6/3 242/6/3
f 266/4/3 258/4/3 257/4/3
f 267/6/3 259/6/3 258/6/3
f 267/4/3 258/4/3 266/4/3
f 268/5/3 260/5/3 259/5/3
f 268/6/3 259/6/3 267/6/3
f 269/5/3 260/5/3 268/5/3
f 273/6/3 267/6/3 266/6/3
f 273/4/3 268/4/3 267/4/3
f 274/6/3 269/6/3 268/6/3
f 274/4/3 268/4/3 273/4/3
f 275/3/3 270/3/3 269/3/3
f 275/6/3 269/6/3 274/6/3
f 276/2/3 271/2/3 270/2/3
f 276/3/3 270/3/3 275/3/3
f 277/3/3 272/3/3 271/3/3
f 277/2/3 271/2/3 276/2/3
f 278/3/3 272/3/3 277/3/3
f 280/5/3 265/5/3 264/5/3
f 281/6/3 241/6/3 265/6/3
f 281/5/3 265/5/3 280/5/3
f 282/4/3 242/4/3 241/4/3
f 282/6/3 241/6/3 281/6/3
f 283/6/3 274/6/3 273/6/3
f 283/4/3 242/4/3 282/4/3
f 283/6/3 273/6/3 266/6/3
f 283/6/3 266/6/3 242/6/3
f 284/6/3 274/6/3 283/6/3
f 285/4/3 275/4/3 274/4/3
f 285/6/3 274/6/3 284/6/3
f 286/4/3 275/4/3 285/4/3
f 287/8/3 279/8/3 278/8/3
f 288/8/3 279/8/3 287/8/3
f 289/6/3 286/6/3 285/6/3
f 289/6/3 285/6/3 284/6/3
f 290/6/3 286/6/3 289/6/3
f 291/5/3 290/5/3 289/5/3
f 292/5/3 290/5/3 291/5/3
f 293/1/3 292/1/3 291/1/3
f 294/1/3 292/1/3 293/1/3
f 295/8/4 296/8/4 297/8/4
f 297/8/4 296/8/4 298/8/4
f 299/8/4 300/8/4 301/8/4
f 301/8/4 300/8/4 302/8/4
f 303/1/4 304/1/4 305/1/4
f 305/1/4 304/1/4 306/1/4
f 305/5/4 306/5/4 307/5/4
f 307/5/4 306/5/4 308/5/4
f 307/6/4 308/6/4 314/6/4
f 314/6/4 308/6/4 315/6/4
f 315/6/4 308/6/4 316/6/4
f 313/6/4 314/6/4 317/6/4
f 314/6/4 315/6/4 317/6/4
f 315/4/4 316/4/4 318/4/4
f 317/6/4 315/6/4 318/6/4
f 318/4/4 316/4/4 319/4/4
f 309/4/4 310/4/4 323/4/4
f 310/5/4 311/5/4 324/5/4
f 323/4/4 310/4/4 324/4/4
f 311/6/4 312/6/4 325/6/4
f 324/5/4 311/5/4 325/5/4
f 313/6/4 317/6/4 326/6/4
f 317/4/4 318/4/4 327/4/4
f 326/6/4 317/6/4 327/6/4
f 318/6/4 319/6/4 328/6/4
f 327/4/4 318/4/4 328/4/4
f 319/3/4 320/3/4 329/3/4
f 328/6/4 319/6/4 329/6/4
f 320/2/4 321/2/4 330/2/4
f 329/3/4 320/3/4 330/3/4
f 321/3/4 322/3/4 331/3/4
f 330/2/4 321/2/4 331/2/4
f 331/3/4 322/3/4 332/3/4
f 325/6/4 312/6/4 335/6/4
f 326/4/4 327/4/4 336/4/4
f 313/6/4 326/6/4 336/6/4
f 327/6/4 328/6/4 337/6/4
f 336/4/4 327/4/4 337/4/4
f 328/5/4 329/5/4 338/5/4
f 337/6/4 328/6/4 338/6/4
f 338/5/4 329/5/4 339/5/4
f 336/6/4 337/6/4 343/6/4
f 337/4/4 338/4/4 343/4/4
f 338/6/4 339/6/4 344/6/4
f 343/4/4 338/4/4 344/4/4
f 339/3/4 340/3/4 345/3/4
f 344/6/4 339/6/4 345/6/4
f 340/2/4 341/2/4 346/2/4
f 345/3/4 340/3/4 346/3/4
f 341/3/4 342/3/4 347/3/4
f 346/2/4 341/2/4 347/2/4
f 347/3/4 342/3/4 348/3/4
f 333/4/4 334/4/4 349/4/4
f 334/5/4 335/5/4 350/5/4
f 349/4/4 334/4/4 350/4/4
f 335/6/4 312/6/4 351/6/4
f 350/5/4 335/5/4 351/5/4
f 312/4/4 313/4/4 352/4/4
f 351/6/4 312/6/4 352/6/4
f 343/6/4 344/6/4 353/6/4
f 352/4/4 313/4/4 353/4/4
f 313/6/4 336/6/4 353/6/4
f 336/6/4 343/6/4 353/6/4
f 353/6/4 344/6/4 354/6/4
f 344/4/4 345/4/4 355/4/4
f 354/6/4 344/6/4 355/6/4
f 355/4/4 345/4/4 356/4/4
f 355/6/4 356/6/4 357/6/4
f 354/6/4 355/6/4 357/6/4
f 357/6/4 356/6/4 358/6/4
f 357/5/4 358/5/4 359/5/4
f 359/5/4 358/5/4 360/5/4
f 359/1/4 360/1/4 361/1/4
f 361/1/4 360/1/4 362/1/4
f 363/8/4 364/8/4 366/8/4
f 366/8/4 364/8/4 367/8/4
f 365/8/4 366/8/4 369/8/4
f 369/8/4 366/8/4 370/8/4
f 367/8/4 368/8/4 371/8/4
f 371/8/4 368/8/4 372/8/4
f 374/3/4 375/3/4 378/3/4
f 375/2/4 376/2/4 379/2/4
f 378/3/4 375/3/4 379/3/4
f 376/3/4 377/3/4 380/3/4
f 379/2/4 376/2/4 380/2/4
f 380/3/4 377/3/4 381/3/4
f 372/8/4 373/8/4 385/8/4
f 385/8/4 373/8/4 386/8/4
f 382/8/4 383/8/4 387/8/4
f 387/8/4 383/8/4 388/8/4
f 384/8/4 385/8/4 389/8/4
f 389/8/4 385/8/4 390/8/4
f 388/8/4 389/8/4 391/8/4
f 391/8/4 389/8/4 392/8/4
f 393/8/4 394/8/4 396/8/4
f 396/8/4 394/8/4 397/8/4
f 395/8/4 396/8/4 399/8/4
f 399/8/4 396/8/4 400/8/4
f 397/8/4 398/8/4 401/8/4
f 401/8/4 398/8/4 402/8/4
f 400/8/4 401/8/4 403/8/4
f 403/8/4 401/8/4 404/8/4
f 405/8/4 406/8/4 407/8/4
f 407/8/4 406/8/4 408/8/4
f 413/4/5 410/4/5 409/4/5
f 414/4/5 410/4/5 413/4/5
f 415/4/5 412/4/5 411/4/5
f 416/4/5 412/4/5 415/4/5
f 419/6/5 418/6/5 417/6/5
f 420/6/5 418/6/5 419/6/5
f 429/1/5 422/1/5 421/1/5
f 430/5/5 423/5/5 422/5/5
f 430/1/5 422/1/5 429/1/5
f 431/6/5 424/6/5 423/6/5
f 431/5/5 423/5/5 430/5/5
f 432/6/5 424/6/5 431/6/5
f 433/6/5 426/6/5 425/6/5
f 434/5/5 427/5/5 426/5/5
f 434/6/5 426/6/5 433/6/5
f 435/1/5 428/1/5 427/1/5
f 435/5/5 427/5/5 434/5/5
f 436/1/5 428/1/5 435/1/5
f 439/3/5 438/3/5 437/3/5
f 440/3/5 438/3/5 439/3/5
f 443/3/5 442/3/5 441/3/5
f 444/3/5 442/3/5 443/3/5
f 449/8/5 446/8/5 445/8/5
f 450/8/5 446/8/5 449/8/5
f 451/8/5 448/8/5 447/8/5
f 452/8/5 448/8/5 451/8/5
f 458/5/5 454/5/5 453/5/5
f 459/5/5 454/5/5 458/5/5
f 460/5/5 456/5/5 455/5/5
f 461/5/5 456/5/5 460/5/5
f 463/8/5 458/8/5 457/8/5
f 466/8/5 462/8/5 461/8/5
f 467/8/5 463/8/5 457/8/5
f 468/5/5 464/5/5 463/5/5
f 468/8/5 463/8/5 467/8/5
f 469/5/5 464/5/5 468/5/5
f 470/5/5 466/5/5 465/5/5
f 471/8/5 462/8/5 466/8/5
f 471/5/5 466/5/5 470/5/5
f 472/8/5 462/8/5 471/8/5
f 473/8/5 469/8/5 468/8/5
f 473/8/5 470/8/5 469/8/5
f 473/8/5 471/8/5 470/8/5
f 474/8/5 471/8/5 473/8/5
f 481/8/5 476/8/5 475/8/5
f 481/5/5 477/5/5 476/5/5
f 482/5/5 477/5/5 481/5/5
f 483/5/5 479/5/5 478/5/5
f 484/8/5 480/8/5 479/8/5
f 484/5/5 479/5/5 483/5/5
f 485/8/5 481/8/5 475/8/5
f 486/8/5 481/8/5 485/8/5
f 489/8/5 480/8/5 484/8/5
f 490/8/5 480/8/5 489/8/5
f 491/8/5 487/8/5 486/8/5
f 492/8/5 487/8/5 491/8/5
f 493/8/5 489/8/5 488/8/5
f 494/8/5 489/8/5 493/8/5
f 495/8/5 493/8/5 492/8/5
f 496/8/5 493/8/5 495/8/5
f 501/8/5 498/8/5 497/8/5
f 502/8/5 498/8/5 501/8/5
f 503/8/5 500/8/5 499/8/5
f 504/8/5 500/8/5 503/8/5
f 507/8/5 506/8/5 505/8/5
f 508/8/5 506/8/5 507/8/5
f 509/4/6 510/4/6 513/4/6
f 513/4/6 510/4/6 514/4/6
f 511/4/6 512/4/6 515/4/6
f 515/4/6 512/4/6 516/4/6
f 517/1/6 518/1/6 527/1/6
f 518/5/6 519/5/6 528/5/6
f 527/1/6 518/1/6 528/1/6
f 519/6/6 520/6/6 529/6/6
f 528/5/6 519/5/6 529/5/6
f 520/4/6 521/4/6 530/4/6
f 529/6/6 520/6/6 530/6/6
f 530/4/6 521/4/6 531/4/6
f 522/4/6 523/4/6 532/4/6
f 523/6/6 524/6/6 533/6/6
f 532/4/6 523/4/6 533/4/6
f 524/5/6 525/5/6 534/5/6
f 533/6/6 524/6/6 534/6/6
f 525/1/6 526/1/6 535/1/6
f 534/5/6 525/5/6 535/5/6
f 535/1/6 526/1/6 536/1/6
f 537/8/6 538/8/6 541/8/6
f 541/8/6 538/8/6 542/8/6
f 539/8/6 540/8/6 545/8/6
f 545/8/6 540/8/6 546/8/6
f 542/8/6 543/8/6 547/8/6
f 547/8/6 543/8/6 548/8/6
f 544/8/6 545/8/6 549/8/6
f 549/8/6 545/8/6 550/8/6
f 548/8/6 549/8/6 551/8/6
f 551/8/6 549/8/6 552/8/6
f 553/8/6 554/8/6 557/8/6
f 557/8/6 554/8/6 558/8/6
f 555/8/6 556/8/6 559/8/6
f 559/8/6 556/8/6 560/8/6
f 558/8/6 559/8/6 561/8/6
f 561/8/6 559/8/6 562/8/6
f 563/8/6 564/8/6 565/8/6
f 565/8/6 564/8/6 566/8/6
