# MagicaVoxel @ Ephtracy

# group
o 

# material
mtllib wall_break.mtl
usemtl palette

# normals
vn -1 0 0
vn 1 0 0
vn 0 0 1
vn 0 0 -1
vn 0 -1 0
vn 0 1 0

# texcoords
vt 0.310547 0.5
vt 0.318359 0.5

# verts
v -0.4 0 0.6
v -0.4 0 0.5
v -0.4 0.1 0.6
v -0.4 0.1 0.5
v -0.3 0 0
v -0.3 0 -0.1
v -0.3 0 -0.5
v -0.3 0 -0.6
v -0.3 0 -0.8
v -0.3 0 -0.9
v -0.3 0.1 0
v -0.3 0.1 -0.1
v -0.3 0.1 -0.5
v -0.3 0.1 -0.6
v -0.3 0.1 -0.8
v -0.3 0.1 -0.9
v -0.2 0 0.8
v -0.2 0 0.7
v -0.2 0 0.4
v -0.2 0 0.3
v -0.2 0 -0.3
v -0.2 0 -0.5
v -0.2 0.1 0.8
v -0.2 0.1 0.7
v -0.2 0.1 0.4
v -0.2 0.1 0.3
v -0.2 0.1 -0.5
v -0.2 0.2 -0.3
v -0.2 0.2 -0.5
v -0.1 0 0.6
v -0.1 0 0.5
v -0.1 0 0.3
v -0.1 0 0.2
v -0.1 0 0
v -0.1 0 -0.3
v -0.1 0 -0.7
v -0.1 0 -0.8
v -0.1 0.1 0.6
v -0.1 0.1 0.5
v -0.1 0.1 0.3
v -0.1 0.1 0.2
v -0.1 0.1 -0.7
v -0.1 0.1 -0.8
v -0.1 0.2 0
v -0.1 0.2 -0.3
v 0 0 0.1
v 0 0 0
v 0 0.1 0.2
v 0 0.1 0.1
v 0 0.2 0.2
v 0 0.2 0
v 0.1 0 1
v 0.1 0 0.8
v 0.1 0 -0.4
v 0.1 0 -0.5
v 0.1 0 -0.8
v 0.1 0 -1
v 0.1 0.1 0.8
v 0.1 0.1 0.2
v 0.1 0.1 -0.4
v 0.1 0.1 -0.5
v 0.1 0.1 -0.6
v 0.1 0.1 -0.8
v 0.1 0.2 0.3
v 0.1 0.2 0.2
v 0.1 0.3 0.8
v 0.1 0.3 0.3
v 0.1 0.3 -0.6
v 0.1 0.3 -0.8
v 0.1 0.5 0.8
v 0.1 0.5 0.6
v 0.1 0.5 -0.4
v 0.1 0.5 -0.8
v 0.1 0.6 0.6
v 0.1 0.6 0.4
v 0.1 0.6 -0.4
v 0.1 0.6 -0.5
v 0.1 0.7 0.8
v 0.1 0.7 0.4
v 0.1 0.7 -0.5
v 0.1 0.7 -0.8
v 0.1 0.8 1
v 0.1 0.8 0.8
v 0.1 0.8 -0.8
v 0.1 0.8 -1
v 0.2 0 0
v 0.2 0 -0.1
v 0.2 0 -0.2
v 0.2 0 -0.3
v 0.2 0.1 0
v 0.2 0.1 -0.1
v 0.2 0.1 -0.2
v 0.2 0.1 -0.3
v 0.3 0 0.6
v 0.3 0 0.5
v 0.3 0 0.1
v 0.3 0 0
v 0.3 0 -0.5
v 0.3 0 -0.6
v 0.3 0.1 0.6
v 0.3 0.1 0.5
v 0.3 0.1 0.1
v 0.3 0.1 0
v 0.3 0.1 -0.5
v 0.3 0.1 -0.6
v 0.4 0 -0.1
v 0.4 0 -0.2
v 0.4 0.1 -0.1
v 0.4 0.1 -0.2
v -0.3 0 0.6
v -0.3 0 0.5
v -0.3 0.1 0.6
v -0.3 0.1 0.5
v -0.2 0 0
v -0.2 0 -0.1
v -0.2 0 -0.5
v -0.2 0 -0.6
v -0.2 0 -0.8
v -0.2 0 -0.9
v -0.2 0.1 0
v -0.2 0.1 -0.1
v -0.2 0.1 -0.5
v -0.2 0.1 -0.6
v -0.2 0.1 -0.8
v -0.2 0.1 -0.9
v -0.1 0 0.8
v -0.1 0 0.7
v -0.1 0 0.4
v -0.1 0 0.3
v -0.1 0.1 0.8
v -0.1 0.1 0.7
v -0.1 0.1 0.4
v -0.1 0.1 0.3
v 0 0 0.6
v 0 0 0.5
v 0 0 0.3
v 0 0 0.2
v 0 0 -0.3
v 0 0 -0.5
v 0 0 -0.7
v 0 0 -0.8
v 0 0.1 0.6
v 0 0.1 0.5
v 0 0.1 0.3
v 0 0.1 0.2
v 0 0.1 -0.7
v 0 0.1 -0.8
v 0 0.2 -0.3
v 0 0.2 -0.5
v 0.1 0 0
v 0.1 0 -0.3
v 0.1 0.2 0
v 0.1 0.2 -0.3
v 0.2 0 0.1
v 0.2 0 0
v 0.2 0.1 0.2
v 0.2 0.1 0.1
v 0.2 0.1 0
v 0.2 0.2 0.2
v 0.2 0.2 0
v 0.2 0.5 0.7
v 0.2 0.5 0.6
v 0.2 0.6 0.7
v 0.2 0.6 0.6
v 0.3 0 1
v 0.3 0 0.8
v 0.3 0 0
v 0.3 0 -0.1
v 0.3 0 -0.2
v 0.3 0 -0.3
v 0.3 0 -0.4
v 0.3 0 -0.5
v 0.3 0 -0.8
v 0.3 0 -1
v 0.3 0.1 0.8
v 0.3 0.1 0.6
v 0.3 0.1 0.5
v 0.3 0.1 0.2
v 0.3 0.1 0
v 0.3 0.1 -0.1
v 0.3 0.1 -0.2
v 0.3 0.1 -0.3
v 0.3 0.1 -0.4
v 0.3 0.1 -0.5
v 0.3 0.1 -0.6
v 0.3 0.1 -0.8
v 0.3 0.2 0.3
v 0.3 0.2 0.2
v 0.3 0.3 0.8
v 0.3 0.3 0.3
v 0.3 0.3 -0.6
v 0.3 0.3 -0.8
v 0.3 0.5 0.8
v 0.3 0.5 0.7
v 0.3 0.5 -0.4
v 0.3 0.5 -0.8
v 0.3 0.6 0.7
v 0.3 0.6 0.4
v 0.3 0.6 -0.4
v 0.3 0.6 -0.5
v 0.3 0.7 0.8
v 0.3 0.7 0.4
v 0.3 0.7 -0.5
v 0.3 0.7 -0.8
v 0.3 0.8 1
v 0.3 0.8 0.8
v 0.3 0.8 -0.8
v 0.3 0.8 -1
v 0.4 0 0.6
v 0.4 0 0.5
v 0.4 0 0.1
v 0.4 0 0
v 0.4 0 -0.5
v 0.4 0 -0.6
v 0.4 0.1 0.6
v 0.4 0.1 0.5
v 0.4 0.1 0.1
v 0.4 0.1 0
v 0.4 0.1 -0.5
v 0.4 0.1 -0.6
v 0.5 0 -0.1
v 0.5 0 -0.2
v 0.5 0.1 -0.1
v 0.5 0.1 -0.2
v 0.1 0 1
v 0.1 0.8 1
v 0.3 0 1
v 0.3 0.8 1
v -0.2 0 0.8
v -0.2 0.1 0.8
v -0.1 0 0.8
v -0.1 0.1 0.8
v -0.4 0 0.6
v -0.4 0.1 0.6
v -0.3 0 0.6
v -0.3 0.1 0.6
v -0.1 0 0.6
v -0.1 0.1 0.6
v 0 0 0.6
v 0 0.1 0.6
v 0.3 0 0.6
v 0.3 0.1 0.6
v 0.4 0 0.6
v 0.4 0.1 0.6
v -0.2 0 0.4
v -0.2 0.1 0.4
v -0.1 0 0.4
v -0.1 0.1 0.4
v -0.1 0 0.3
v -0.1 0.1 0.3
v 0 0 0.3
v 0 0.1 0.3
v 0 0.1 0.2
v 0 0.2 0.2
v 0.1 0.1 0.2
v 0.1 0.2 0.2
v 0 0 0.1
v 0 0.1 0.1
v 0.2 0 0.1
v 0.2 0.1 0.1
v 0.3 0 0.1
v 0.3 0.1 0.1
v 0.4 0 0.1
v 0.4 0.1 0.1
v -0.3 0 0
v -0.3 0.1 0
v -0.2 0 0
v -0.2 0.1 0
v -0.1 0 0
v -0.1 0.2 0
v 0 0 0
v 0 0.2 0
v 0.2 0 0
v 0.2 0.1 0
v 0.3 0 0
v 0.3 0.1 0
v 0.4 0 -0.1
v 0.4 0.1 -0.1
v 0.5 0 -0.1
v 0.5 0.1 -0.1
v 0.2 0 -0.2
v 0.2 0.1 -0.2
v 0.3 0 -0.2
v 0.3 0.1 -0.2
v -0.2 0 -0.3
v -0.2 0.2 -0.3
v -0.1 0 -0.3
v -0.1 0.2 -0.3
v 0.1 0 -0.4
v 0.1 0.1 -0.4
v 0.1 0.5 -0.4
v 0.1 0.6 -0.4
v 0.3 0 -0.4
v 0.3 0.1 -0.4
v 0.3 0.5 -0.4
v 0.3 0.6 -0.4
v -0.3 0 -0.5
v -0.3 0.1 -0.5
v -0.2 0 -0.5
v -0.2 0.1 -0.5
v 0.1 0.6 -0.5
v 0.1 0.7 -0.5
v 0.3 0 -0.5
v 0.3 0.1 -0.5
v 0.3 0.6 -0.5
v 0.3 0.7 -0.5
v 0.4 0 -0.5
v 0.4 0.1 -0.5
v 0.1 0.1 -0.6
v 0.1 0.3 -0.6
v 0.3 0.1 -0.6
v 0.3 0.3 -0.6
v -0.1 0 -0.7
v -0.1 0.1 -0.7
v 0 0 -0.7
v 0 0.1 -0.7
v -0.3 0 -0.8
v -0.3 0.1 -0.8
v -0.2 0 -0.8
v -0.2 0.1 -0.8
v 0.1 0 -0.8
v 0.1 0.1 -0.8
v 0.1 0.3 -0.8
v 0.1 0.5 -0.8
v 0.1 0.7 -0.8
v 0.1 0.8 -0.8
v 0.3 0 -0.8
v 0.3 0.1 -0.8
v 0.3 0.3 -0.8
v 0.3 0.5 -0.8
v 0.3 0.7 -0.8
v 0.3 0.8 -0.8
v 0.1 0 0.8
v 0.1 0.1 0.8
v 0.1 0.3 0.8
v 0.1 0.5 0.8
v 0.1 0.7 0.8
v 0.1 0.8 0.8
v 0.3 0 0.8
v 0.3 0.1 0.8
v 0.3 0.3 0.8
v 0.3 0.5 0.8
v 0.3 0.7 0.8
v 0.3 0.8 0.8
v -0.2 0 0.7
v -0.2 0.1 0.7
v -0.1 0 0.7
v -0.1 0.1 0.7
v 0.2 0.5 0.7
v 0.2 0.6 0.7
v 0.3 0.5 0.7
v 0.3 0.6 0.7
v 0.1 0.5 0.6
v 0.1 0.6 0.6
v 0.2 0.5 0.6
v 0.2 0.6 0.6
v -0.4 0 0.5
v -0.4 0.1 0.5
v -0.3 0 0.5
v -0.3 0.1 0.5
v -0.1 0 0.5
v -0.1 0.1 0.5
v 0 0 0.5
v 0 0.1 0.5
v 0.3 0 0.5
v 0.3 0.1 0.5
v 0.4 0 0.5
v 0.4 0.1 0.5
v 0.1 0.6 0.4
v 0.1 0.7 0.4
v 0.3 0.6 0.4
v 0.3 0.7 0.4
v -0.2 0 0.3
v -0.2 0.1 0.3
v -0.1 0 0.3
v -0.1 0.1 0.3
v 0.1 0.2 0.3
v 0.1 0.3 0.3
v 0.3 0.2 0.3
v 0.3 0.3 0.3
v -0.1 0 0.2
v -0.1 0.1 0.2
v 0 0 0.2
v 0 0.1 0.2
v 0.2 0.1 0.2
v 0.2 0.2 0.2
v 0.3 0.1 0.2
v 0.3 0.2 0.2
v 0.1 0 0
v 0.1 0.2 0
v 0.2 0 0
v 0.2 0.1 0
v 0.2 0.2 0
v 0.3 0 0
v 0.3 0.1 0
v 0.4 0 0
v 0.4 0.1 0
v -0.3 0 -0.1
v -0.3 0.1 -0.1
v -0.2 0 -0.1
v -0.2 0.1 -0.1
v 0.2 0 -0.1
v 0.2 0.1 -0.1
v 0.3 0 -0.1
v 0.3 0.1 -0.1
v 0.4 0 -0.2
v 0.4 0.1 -0.2
v 0.5 0 -0.2
v 0.5 0.1 -0.2
v 0 0 -0.3
v 0 0.2 -0.3
v 0.1 0 -0.3
v 0.1 0.2 -0.3
v 0.2 0 -0.3
v 0.2 0.1 -0.3
v 0.3 0 -0.3
v 0.3 0.1 -0.3
v -0.2 0 -0.5
v -0.2 0.1 -0.5
v -0.2 0.2 -0.5
v 0 0 -0.5
v 0 0.2 -0.5
v 0.1 0 -0.5
v 0.1 0.1 -0.5
v 0.3 0 -0.5
v 0.3 0.1 -0.5
v -0.3 0 -0.6
v -0.3 0.1 -0.6
v -0.2 0 -0.6
v -0.2 0.1 -0.6
v 0.3 0 -0.6
v 0.3 0.1 -0.6
v 0.4 0 -0.6
v 0.4 0.1 -0.6
v -0.1 0 -0.8
v -0.1 0.1 -0.8
v 0 0 -0.8
v 0 0.1 -0.8
v -0.3 0 -0.9
v -0.3 0.1 -0.9
v -0.2 0 -0.9
v -0.2 0.1 -0.9
v 0.1 0 -1
v 0.1 0.8 -1
v 0.3 0 -1
v 0.3 0.8 -1
v 0.1 0 1
v 0.3 0 1
v -0.2 0 0.8
v -0.1 0 0.8
v 0.1 0 0.8
v 0.3 0 0.8
v -0.2 0 0.7
v -0.1 0 0.7
v -0.4 0 0.6
v -0.3 0 0.6
v -0.1 0 0.6
v 0 0 0.6
v 0.3 0 0.6
v 0.4 0 0.6
v -0.4 0 0.5
v -0.3 0 0.5
v -0.1 0 0.5
v 0 0 0.5
v 0.3 0 0.5
v 0.4 0 0.5
v -0.2 0 0.4
v -0.1 0 0.4
v -0.2 0 0.3
v -0.1 0 0.3
v 0 0 0.3
v -0.1 0 0.2
v 0 0 0.2
v 0 0 0.1
v 0.2 0 0.1
v 0.3 0 0.1
v 0.4 0 0.1
v -0.3 0 0
v -0.2 0 0
v -0.1 0 0
v 0 0 0
v 0.1 0 0
v 0.2 0 0
v 0.3 0 0
v 0.4 0 0
v -0.3 0 -0.1
v -0.2 0 -0.1
v 0.2 0 -0.1
v 0.3 0 -0.1
v 0.4 0 -0.1
v 0.5 0 -0.1
v 0.2 0 -0.2
v 0.3 0 -0.2
v 0.4 0 -0.2
v 0.5 0 -0.2
v -0.2 0 -0.3
v -0.1 0 -0.3
v 0 0 -0.3
v 0.1 0 -0.3
v 0.2 0 -0.3
v 0.3 0 -0.3
v 0.1 0 -0.4
v 0.3 0 -0.4
v -0.3 0 -0.5
v -0.2 0 -0.5
v 0 0 -0.5
v 0.1 0 -0.5
v 0.3 0 -0.5
v 0.4 0 -0.5
v -0.3 0 -0.6
v -0.2 0 -0.6
v 0.3 0 -0.6
v 0.4 0 -0.6
v -0.1 0 -0.7
v 0 0 -0.7
v -0.3 0 -0.8
v -0.2 0 -0.8
v -0.1 0 -0.8
v 0 0 -0.8
v 0.1 0 -0.8
v 0.3 0 -0.8
v -0.3 0 -0.9
v -0.2 0 -0.9
v 0.1 0 -1
v 0.3 0 -1
v 0.1 0.1 0.8
v 0.3 0.1 0.8
v 0.3 0.1 0.6
v 0.3 0.1 0.5
v 0 0.1 0.2
v 0.1 0.1 0.2
v 0.2 0.1 0.2
v 0.3 0.1 0.2
v 0 0.1 0.1
v 0.2 0.1 0.1
v 0.1 0.1 -0.6
v 0.3 0.1 -0.6
v 0.1 0.1 -0.8
v 0.3 0.1 -0.8
v 0.1 0.5 0.8
v 0.3 0.5 0.8
v 0.2 0.5 0.7
v 0.3 0.5 0.7
v 0.1 0.5 0.6
v 0.2 0.5 0.6
v 0.1 0.5 -0.4
v 0.3 0.5 -0.4
v 0.1 0.5 -0.8
v 0.3 0.5 -0.8
v 0.2 0.6 0.7
v 0.3 0.6 0.7
v 0.1 0.6 0.6
v 0.2 0.6 0.6
v 0.1 0.6 0.4
v 0.3 0.6 0.4
v -0.2 0.1 0.8
v -0.1 0.1 0.8
v -0.2 0.1 0.7
v -0.1 0.1 0.7
v -0.4 0.1 0.6
v -0.3 0.1 0.6
v -0.1 0.1 0.6
v 0 0.1 0.6
v 0.3 0.1 0.6
v 0.4 0.1 0.6
v -0.4 0.1 0.5
v -0.3 0.1 0.5
v -0.1 0.1 0.5
v 0 0.1 0.5
v 0.3 0.1 0.5
v 0.4 0.1 0.5
v -0.2 0.1 0.4
v -0.1 0.1 0.4
v -0.2 0.1 0.3
v -0.1 0.1 0.3
v 0 0.1 0.3
v -0.1 0.1 0.2
v 0 0.1 0.2
v 0.3 0.1 0.1
v 0.4 0.1 0.1
v -0.3 0.1 0
v -0.2 0.1 0
v 0.2 0.1 0
v 0.3 0.1 0
v 0.4 0.1 0
v -0.3 0.1 -0.1
v -0.2 0.1 -0.1
v 0.2 0.1 -0.1
v 0.3 0.1 -0.1
v 0.4 0.1 -0.1
v 0.5 0.1 -0.1
v 0.2 0.1 -0.2
v 0.3 0.1 -0.2
v 0.4 0.1 -0.2
v 0.5 0.1 -0.2
v 0.2 0.1 -0.3
v 0.3 0.1 -0.3
v 0.1 0.1 -0.4
v 0.3 0.1 -0.4
v -0.3 0.1 -0.5
v -0.2 0.1 -0.5
v 0.1 0.1 -0.5
v 0.3 0.1 -0.5
v 0.4 0.1 -0.5
v -0.3 0.1 -0.6
v -0.2 0.1 -0.6
v 0.3 0.1 -0.6
v 0.4 0.1 -0.6
v -0.1 0.1 -0.7
v 0 0.1 -0.7
v -0.3 0.1 -0.8
v -0.2 0.1 -0.8
v -0.1 0.1 -0.8
v 0 0.1 -0.8
v -0.3 0.1 -0.9
v -0.2 0.1 -0.9
v 0.1 0.2 0.3
v 0.3 0.2 0.3
v 0 0.2 0.2
v 0.1 0.2 0.2
v 0.2 0.2 0.2
v 0.3 0.2 0.2
v -0.1 0.2 0
v 0 0.2 0
v 0.1 0.2 0
v 0.2 0.2 0
v -0.2 0.2 -0.3
v -0.1 0.2 -0.3
v 0 0.2 -0.3
v 0.1 0.2 -0.3
v -0.2 0.2 -0.5
v 0 0.2 -0.5
v 0.1 0.3 0.8
v 0.3 0.3 0.8
v 0.1 0.3 0.3
v 0.3 0.3 0.3
v 0.1 0.3 -0.6
v 0.3 0.3 -0.6
v 0.1 0.3 -0.8
v 0.3 0.3 -0.8
v 0.1 0.6 -0.4
v 0.3 0.6 -0.4
v 0.1 0.6 -0.5
v 0.3 0.6 -0.5
v 0.1 0.7 0.8
v 0.3 0.7 0.8
v 0.1 0.7 0.4
v 0.3 0.7 0.4
v 0.1 0.7 -0.5
v 0.3 0.7 -0.5
v 0.1 0.7 -0.8
v 0.3 0.7 -0.8
v 0.1 0.8 1
v 0.3 0.8 1
v 0.1 0.8 0.8
v 0.3 0.8 0.8
v 0.1 0.8 -0.8
v 0.3 0.8 -0.8
v 0.1 0.8 -1
v 0.3 0.8 -1

# faces
f 3/2/1 2/2/1 1/2/1
f 4/2/1 2/2/1 3/2/1
f 11/2/1 6/2/1 5/2/1
f 12/2/1 6/2/1 11/2/1
f 13/2/1 8/2/1 7/2/1
f 14/2/1 8/2/1 13/2/1
f 15/2/1 10/2/1 9/2/1
f 16/2/1 10/2/1 15/2/1
f 23/2/1 18/2/1 17/2/1
f 24/2/1 18/2/1 23/2/1
f 25/2/1 20/2/1 19/2/1
f 26/2/1 20/2/1 25/2/1
f 27/2/1 22/2/1 21/2/1
f 28/2/1 27/2/1 21/2/1
f 29/2/1 27/2/1 28/2/1
f 38/2/1 31/2/1 30/2/1
f 39/2/1 31/2/1 38/2/1
f 40/2/1 33/2/1 32/2/1
f 41/2/1 33/2/1 40/2/1
f 42/2/1 37/2/1 36/2/1
f 43/2/1 37/2/1 42/2/1
f 44/2/1 35/2/1 34/2/1
f 45/2/1 35/2/1 44/2/1
f 49/2/1 47/2/1 46/2/1
f 50/2/1 49/2/1 48/2/1
f 51/2/1 47/2/1 49/2/1
f 51/2/1 49/2/1 50/2/1
f 58/1/1 53/1/1 52/1/1
f 60/1/1 55/1/1 54/1/1
f 61/1/1 55/1/1 60/1/1
f 63/1/1 57/1/1 56/1/1
f 64/2/1 59/2/1 58/2/1
f 65/2/1 59/2/1 64/2/1
f 66/1/1 58/1/1 52/1/1
f 66/2/1 64/2/1 58/2/1
f 67/2/1 64/2/1 66/2/1
f 68/2/1 63/2/1 62/2/1
f 69/1/1 57/1/1 63/1/1
f 69/2/1 63/2/1 68/2/1
f 70/1/1 66/1/1 52/1/1
f 73/1/1 57/1/1 69/1/1
f 74/2/1 71/2/1 70/2/1
f 76/2/1 73/2/1 72/2/1
f 77/2/1 73/2/1 76/2/1
f 78/2/1 75/2/1 74/2/1
f 78/1/1 70/1/1 52/1/1
f 78/2/1 74/2/1 70/2/1
f 79/2/1 75/2/1 78/2/1
f 80/2/1 73/2/1 77/2/1
f 81/1/1 57/1/1 73/1/1
f 81/2/1 73/2/1 80/2/1
f 82/1/1 78/1/1 52/1/1
f 83/1/1 78/1/1 82/1/1
f 84/1/1 57/1/1 81/1/1
f 85/1/1 57/1/1 84/1/1
f 90/1/1 87/1/1 86/1/1
f 91/1/1 87/1/1 90/1/1
f 92/2/1 89/2/1 88/2/1
f 93/2/1 89/2/1 92/2/1
f 100/2/1 95/2/1 94/2/1
f 101/2/1 95/2/1 100/2/1
f 102/2/1 97/2/1 96/2/1
f 103/2/1 97/2/1 102/2/1
f 104/2/1 99/2/1 98/2/1
f 105/2/1 99/2/1 104/2/1
f 108/1/1 107/1/1 106/1/1
f 109/1/1 107/1/1 108/1/1
f 110/2/2 111/2/2 112/2/2
f 112/2/2 111/2/2 113/2/2
f 114/2/2 115/2/2 120/2/2
f 120/2/2 115/2/2 121/2/2
f 116/2/2 117/2/2 122/2/2
f 122/2/2 117/2/2 123/2/2
f 118/2/2 119/2/2 124/2/2
f 124/2/2 119/2/2 125/2/2
f 126/2/2 127/2/2 130/2/2
f 130/2/2 127/2/2 131/2/2
f 128/2/2 129/2/2 132/2/2
f 132/2/2 129/2/2 133/2/2
f 134/2/2 135/2/2 142/2/2
f 142/2/2 135/2/2 143/2/2
f 136/2/2 137/2/2 144/2/2
f 144/2/2 137/2/2 145/2/2
f 140/2/2 141/2/2 146/2/2
f 146/2/2 141/2/2 147/2/2
f 138/2/2 139/2/2 148/2/2
f 148/2/2 139/2/2 149/2/2
f 150/2/2 151/2/2 152/2/2
f 152/2/2 151/2/2 153/2/2
f 154/2/2 155/2/2 157/2/2
f 157/2/2 155/2/2 158/2/2
f 156/2/2 157/2/2 159/2/2
f 157/2/2 158/2/2 159/2/2
f 159/2/2 158/2/2 160/2/2
f 161/2/2 162/2/2 163/2/2
f 163/2/2 162/2/2 164/2/2
f 165/1/2 166/1/2 175/1/2
f 167/1/2 168/1/2 179/1/2
f 179/1/2 168/1/2 180/1/2
f 169/2/2 170/2/2 181/2/2
f 181/2/2 170/2/2 182/2/2
f 171/1/2 172/1/2 183/1/2
f 183/1/2 172/1/2 184/1/2
f 173/1/2 174/1/2 186/1/2
f 177/2/2 178/2/2 187/2/2
f 175/2/2 176/2/2 187/2/2
f 176/2/2 177/2/2 187/2/2
f 187/2/2 178/2/2 188/2/2
f 165/1/2 175/1/2 189/1/2
f 175/2/2 187/2/2 189/2/2
f 189/2/2 187/2/2 190/2/2
f 185/2/2 186/2/2 191/2/2
f 186/1/2 174/1/2 192/1/2
f 191/2/2 186/2/2 192/2/2
f 165/1/2 189/1/2 193/1/2
f 192/1/2 174/1/2 196/1/2
f 193/2/2 194/2/2 197/2/2
f 195/2/2 196/2/2 199/2/2
f 199/2/2 196/2/2 200/2/2
f 197/2/2 198/2/2 201/2/2
f 165/1/2 193/1/2 201/1/2
f 193/2/2 197/2/2 201/2/2
f 201/2/2 198/2/2 202/2/2
f 200/2/2 196/2/2 203/2/2
f 196/1/2 174/1/2 204/1/2
f 203/2/2 196/2/2 204/2/2
f 165/1/2 201/1/2 205/1/2
f 205/1/2 201/1/2 206/1/2
f 204/1/2 174/1/2 207/1/2
f 207/1/2 174/1/2 208/1/2
f 209/2/2 210/2/2 215/2/2
f 215/2/2 210/2/2 216/2/2
f 211/2/2 212/2/2 217/2/2
f 217/2/2 212/2/2 218/2/2
f 213/2/2 214/2/2 219/2/2
f 219/2/2 214/2/2 220/2/2
f 221/1/2 222/1/2 223/1/2
f 223/1/2 222/1/2 224/1/2
f 227/1/3 226/1/3 225/1/3
f 228/1/3 226/1/3 227/1/3
f 231/2/3 230/2/3 229/2/3
f 232/2/3 230/2/3 231/2/3
f 235/2/3 234/2/3 233/2/3
f 236/2/3 234/2/3 235/2/3
f 239/2/3 238/2/3 237/2/3
f 240/2/3 238/2/3 239/2/3
f 243/2/3 242/2/3 241/2/3
f 244/2/3 242/2/3 243/2/3
f 247/2/3 246/2/3 245/2/3
f 248/2/3 246/2/3 247/2/3
f 251/2/3 250/2/3 249/2/3
f 252/2/3 250/2/3 251/2/3
f 255/2/3 254/2/3 253/2/3
f 256/2/3 254/2/3 255/2/3
f 259/2/3 258/2/3 257/2/3
f 260/2/3 258/2/3 259/2/3
f 263/2/3 262/2/3 261/2/3
f 264/2/3 262/2/3 263/2/3
f 267/2/3 266/2/3 265/2/3
f 268/2/3 266/2/3 267/2/3
f 271/2/3 270/2/3 269/2/3
f 272/2/3 270/2/3 271/2/3
f 275/1/3 274/1/3 273/1/3
f 276/1/3 274/1/3 275/1/3
f 279/1/3 278/1/3 277/1/3
f 280/1/3 278/1/3 279/1/3
f 283/2/3 282/2/3 281/2/3
f 284/2/3 282/2/3 283/2/3
f 287/2/3 286/2/3 285/2/3
f 288/2/3 286/2/3 287/2/3
f 293/1/3 290/1/3 289/1/3
f 294/1/3 290/1/3 293/1/3
f 295/2/3 292/2/3 291/2/3
f 296/2/3 292/2/3 295/2/3
f 299/2/3 298/2/3 297/2/3
f 300/2/3 298/2/3 299/2/3
f 305/2/3 302/2/3 301/2/3
f 306/2/3 302/2/3 305/2/3
f 307/2/3 304/2/3 303/2/3
f 308/2/3 304/2/3 307/2/3
f 311/2/3 310/2/3 309/2/3
f 312/2/3 310/2/3 311/2/3
f 315/2/3 314/2/3 313/2/3
f 316/2/3 314/2/3 315/2/3
f 319/2/3 318/2/3 317/2/3
f 320/2/3 318/2/3 319/2/3
f 327/1/3 322/1/3 321/1/3
f 328/1/3 322/1/3 327/1/3
f 329/1/3 324/1/3 323/1/3
f 330/1/3 324/1/3 329/1/3
f 331/1/3 326/1/3 325/1/3
f 332/1/3 326/1/3 331/1/3
f 333/1/4 334/1/4 339/1/4
f 339/1/4 334/1/4 340/1/4
f 335/1/4 336/1/4 341/1/4
f 341/1/4 336/1/4 342/1/4
f 337/1/4 338/1/4 343/1/4
f 343/1/4 338/1/4 344/1/4
f 345/2/4 346/2/4 347/2/4
f 347/2/4 346/2/4 348/2/4
f 349/2/4 350/2/4 351/2/4
f 351/2/4 350/2/4 352/2/4
f 353/2/4 354/2/4 355/2/4
f 355/2/4 354/2/4 356/2/4
f 357/2/4 358/2/4 359/2/4
f 359/2/4 358/2/4 360/2/4
f 361/2/4 362/2/4 363/2/4
f 363/2/4 362/2/4 364/2/4
f 365/2/4 366/2/4 367/2/4
f 367/2/4 366/2/4 368/2/4
f 369/2/4 370/2/4 371/2/4
f 371/2/4 370/2/4 372/2/4
f 373/2/4 374/2/4 375/2/4
f 375/2/4 374/2/4 376/2/4
f 377/2/4 378/2/4 379/2/4
f 379/2/4 378/2/4 380/2/4
f 381/2/4 382/2/4 383/2/4
f 383/2/4 382/2/4 384/2/4
f 385/2/4 386/2/4 387/2/4
f 387/2/4 386/2/4 388/2/4
f 389/2/4 390/2/4 391/2/4
f 391/2/4 390/2/4 392/2/4
f 392/2/4 390/2/4 393/2/4
f 394/2/4 395/2/4 396/2/4
f 396/2/4 395/2/4 397/2/4
f 398/2/4 399/2/4 400/2/4
f 400/2/4 399/2/4 401/2/4
f 402/1/4 403/1/4 404/1/4
f 404/1/4 403/1/4 405/1/4
f 406/1/4 407/1/4 408/1/4
f 408/1/4 407/1/4 409/1/4
f 410/2/4 411/2/4 412/2/4
f 412/2/4 411/2/4 413/2/4
f 414/2/4 415/2/4 416/2/4
f 416/2/4 415/2/4 417/2/4
f 418/2/4 419/2/4 421/2/4
f 419/2/4 420/2/4 421/2/4
f 421/2/4 420/2/4 422/2/4
f 423/1/4 424/1/4 425/1/4
f 425/1/4 424/1/4 426/1/4
f 427/2/4 428/2/4 429/2/4
f 429/2/4 428/2/4 430/2/4
f 431/2/4 432/2/4 433/2/4
f 433/2/4 432/2/4 434/2/4
f 435/2/4 436/2/4 437/2/4
f 437/2/4 436/2/4 438/2/4
f 439/2/4 440/2/4 441/2/4
f 441/2/4 440/2/4 442/2/4
f 443/1/4 444/1/4 445/1/4
f 445/1/4 444/1/4 446/1/4
f 451/1/5 448/1/5 447/1/5
f 452/1/5 448/1/5 451/1/5
f 453/2/5 450/2/5 449/2/5
f 454/2/5 450/2/5 453/2/5
f 461/2/5 456/2/5 455/2/5
f 462/2/5 456/2/5 461/2/5
f 463/2/5 458/2/5 457/2/5
f 464/2/5 458/2/5 463/2/5
f 465/2/5 460/2/5 459/2/5
f 466/2/5 460/2/5 465/2/5
f 469/2/5 468/2/5 467/2/5
f 470/2/5 468/2/5 469/2/5
f 472/2/5 471/2/5 470/2/5
f 473/2/5 471/2/5 472/2/5
f 481/2/5 475/2/5 474/2/5
f 482/2/5 475/2/5 481/2/5
f 483/2/5 475/2/5 482/2/5
f 484/2/5 477/2/5 476/2/5
f 485/2/5 477/2/5 484/2/5
f 486/2/5 479/2/5 478/2/5
f 487/2/5 479/2/5 486/2/5
f 488/1/5 484/1/5 483/1/5
f 489/1/5 484/1/5 488/1/5
f 494/1/5 491/1/5 490/1/5
f 495/1/5 491/1/5 494/1/5
f 497/2/5 481/2/5 480/2/5
f 497/2/5 482/2/5 481/2/5
f 498/2/5 482/2/5 497/2/5
f 499/2/5 482/2/5 498/2/5
f 500/2/5 493/2/5 492/2/5
f 501/2/5 493/2/5 500/2/5
f 505/2/5 497/2/5 496/2/5
f 505/2/5 498/2/5 497/2/5
f 506/2/5 498/2/5 505/2/5
f 507/1/5 503/1/5 502/1/5
f 508/1/5 503/1/5 507/1/5
f 510/2/5 505/2/5 504/2/5
f 511/2/5 505/2/5 510/2/5
f 512/2/5 509/2/5 508/2/5
f 513/2/5 509/2/5 512/2/5
f 518/2/5 515/2/5 514/2/5
f 519/2/5 515/2/5 518/2/5
f 522/2/5 517/2/5 516/2/5
f 523/2/5 517/2/5 522/2/5
f 524/1/5 521/1/5 520/1/5
f 525/1/5 521/1/5 524/1/5
f 528/2/5 527/2/5 526/2/5
f 529/2/5 528/2/5 526/2/5
f 531/2/5 529/2/5 526/2/5
f 532/2/5 529/2/5 531/2/5
f 533/2/5 529/2/5 532/2/5
f 534/2/5 531/2/5 530/2/5
f 534/2/5 532/2/5 531/2/5
f 535/2/5 532/2/5 534/2/5
f 538/2/5 537/2/5 536/2/5
f 539/2/5 537/2/5 538/2/5
f 542/2/5 541/2/5 540/2/5
f 543/2/5 541/2/5 542/2/5
f 544/2/5 542/2/5 540/2/5
f 545/2/5 542/2/5 544/2/5
f 548/2/5 547/2/5 546/2/5
f 549/2/5 547/2/5 548/2/5
f 553/2/5 551/2/5 550/2/5
f 554/2/5 553/2/5 552/2/5
f 555/2/5 551/2/5 553/2/5
f 555/2/5 553/2/5 554/2/5
f 556/2/6 557/2/6 558/2/6
f 558/2/6 557/2/6 559/2/6
f 560/2/6 561/2/6 566/2/6
f 566/2/6 561/2/6 567/2/6
f 562/2/6 563/2/6 568/2/6
f 568/2/6 563/2/6 569/2/6
f 564/2/6 565/2/6 570/2/6
f 570/2/6 565/2/6 571/2/6
f 572/2/6 573/2/6 574/2/6
f 574/2/6 573/2/6 575/2/6
f 575/2/6 576/2/6 577/2/6
f 577/2/6 576/2/6 578/2/6
f 579/2/6 580/2/6 584/2/6
f 584/2/6 580/2/6 585/2/6
f 581/2/6 582/2/6 586/2/6
f 586/2/6 582/2/6 587/2/6
f 583/1/6 584/1/6 588/1/6
f 588/1/6 584/1/6 589/1/6
f 590/1/6 591/1/6 594/1/6
f 594/1/6 591/1/6 595/1/6
f 592/2/6 593/2/6 596/2/6
f 596/2/6 593/2/6 597/2/6
f 598/1/6 599/1/6 602/1/6
f 602/1/6 599/1/6 603/1/6
f 600/2/6 601/2/6 605/2/6
f 605/2/6 601/2/6 606/2/6
f 603/2/6 604/2/6 607/2/6
f 607/2/6 604/2/6 608/2/6
f 609/2/6 610/2/6 613/2/6
f 613/2/6 610/2/6 614/2/6
f 611/2/6 612/2/6 615/2/6
f 615/2/6 612/2/6 616/2/6
f 617/2/6 618/2/6 620/2/6
f 620/2/6 618/2/6 621/2/6
f 621/2/6 618/2/6 622/2/6
f 619/2/6 620/2/6 624/2/6
f 620/2/6 621/2/6 624/2/6
f 624/2/6 621/2/6 625/2/6
f 625/2/6 621/2/6 626/2/6
f 623/2/6 624/2/6 628/2/6
f 624/2/6 625/2/6 628/2/6
f 628/2/6 625/2/6 629/2/6
f 629/2/6 625/2/6 630/2/6
f 627/2/6 628/2/6 631/2/6
f 628/2/6 629/2/6 631/2/6
f 631/2/6 629/2/6 632/2/6
f 633/2/6 634/2/6 635/2/6
f 635/2/6 634/2/6 636/2/6
f 637/2/6 638/2/6 639/2/6
f 639/2/6 638/2/6 640/2/6
f 641/2/6 642/2/6 643/2/6
f 643/2/6 642/2/6 644/2/6
f 645/2/6 646/2/6 647/2/6
f 647/2/6 646/2/6 648/2/6
f 649/2/6 650/2/6 651/2/6
f 651/2/6 650/2/6 652/2/6
f 653/1/6 654/1/6 655/1/6
f 655/1/6 654/1/6 656/1/6
f 657/1/6 658/1/6 659/1/6
f 659/1/6 658/1/6 660/1/6
