# MagicaVoxel @ Ephtracy

# group
o 

# material
mtllib wall_without_door.mtl
usemtl palette

# normals
vn -1 0 0
vn 1 0 0
vn 0 0 1
vn 0 0 -1
vn 0 -1 0
vn 0 1 0

# texcoords
vt 0.310547 0.5
vt 0.318359 0.5

# verts
v -0.1 0 1
v -0.1 0 0.9
v -0.1 0 0.6
v -0.1 0 0.4
v -0.1 0 -0.4
v -0.1 0 -0.6
v -0.1 0 -0.9
v -0.1 0 -1
v -0.1 0.1 0.9
v -0.1 0.1 0.6
v -0.1 0.1 -0.6
v -0.1 0.1 -0.9
v -0.1 0.3 0.9
v -0.1 0.3 0.6
v -0.1 0.3 -0.6
v -0.1 0.3 -0.9
v -0.1 0.5 0.9
v -0.1 0.5 0.6
v -0.1 0.5 -0.6
v -0.1 0.5 -0.9
v -0.1 0.7 0.9
v -0.1 0.7 0.6
v -0.1 0.7 -0.6
v -0.1 0.7 -0.9
v -0.1 0.8 1
v -0.1 0.8 0.9
v -0.1 0.8 0.6
v -0.1 0.8 0.4
v -0.1 0.8 -0.4
v -0.1 0.8 -0.6
v -0.1 0.8 -0.9
v -0.1 0.8 -1
v 0.1 0 1
v 0.1 0 0.9
v 0.1 0 0.6
v 0.1 0 0.4
v 0.1 0 -0.4
v 0.1 0 -0.6
v 0.1 0 -0.9
v 0.1 0 -1
v 0.1 0.1 0.9
v 0.1 0.1 0.6
v 0.1 0.1 -0.6
v 0.1 0.1 -0.9
v 0.1 0.3 0.9
v 0.1 0.3 0.6
v 0.1 0.3 -0.6
v 0.1 0.3 -0.9
v 0.1 0.5 0.9
v 0.1 0.5 0.6
v 0.1 0.5 -0.6
v 0.1 0.5 -0.9
v 0.1 0.7 0.9
v 0.1 0.7 0.6
v 0.1 0.7 -0.6
v 0.1 0.7 -0.9
v 0.1 0.8 1
v 0.1 0.8 0.9
v 0.1 0.8 0.6
v 0.1 0.8 0.4
v 0.1 0.8 -0.4
v 0.1 0.8 -0.6
v 0.1 0.8 -0.9
v 0.1 0.8 -1
v -0.1 0 1
v -0.1 0.8 1
v 0.1 0 1
v 0.1 0.8 1
v -0.1 0 0.6
v -0.1 0.1 0.6
v -0.1 0.3 0.6
v -0.1 0.5 0.6
v -0.1 0.7 0.6
v -0.1 0.8 0.6
v 0.1 0 0.6
v 0.1 0.1 0.6
v 0.1 0.3 0.6
v 0.1 0.5 0.6
v 0.1 0.7 0.6
v 0.1 0.8 0.6
v -0.1 0 -0.4
v -0.1 0.8 -0.4
v 0.1 0 -0.4
v 0.1 0.8 -0.4
v -0.1 0 -0.9
v -0.1 0.1 -0.9
v -0.1 0.3 -0.9
v -0.1 0.5 -0.9
v -0.1 0.7 -0.9
v -0.1 0.8 -0.9
v 0.1 0 -0.9
v 0.1 0.1 -0.9
v 0.1 0.3 -0.9
v 0.1 0.5 -0.9
v 0.1 0.7 -0.9
v 0.1 0.8 -0.9
v -0.1 0 0.9
v -0.1 0.1 0.9
v -0.1 0.3 0.9
v -0.1 0.5 0.9
v -0.1 0.7 0.9
v -0.1 0.8 0.9
v 0.1 0 0.9
v 0.1 0.1 0.9
v 0.1 0.3 0.9
v 0.1 0.5 0.9
v 0.1 0.7 0.9
v 0.1 0.8 0.9
v -0.1 0 0.4
v -0.1 0.8 0.4
v 0.1 0 0.4
v 0.1 0.8 0.4
v -0.1 0 -0.6
v -0.1 0.1 -0.6
v -0.1 0.3 -0.6
v -0.1 0.5 -0.6
v -0.1 0.7 -0.6
v -0.1 0.8 -0.6
v 0.1 0 -0.6
v 0.1 0.1 -0.6
v 0.1 0.3 -0.6
v 0.1 0.5 -0.6
v 0.1 0.7 -0.6
v 0.1 0.8 -0.6
v -0.1 0 -1
v -0.1 0.8 -1
v 0.1 0 -1
v 0.1 0.8 -1
v -0.1 0 1
v 0.1 0 1
v -0.1 0 0.9
v 0.1 0 0.9
v -0.1 0 0.6
v 0.1 0 0.6
v -0.1 0 0.4
v 0.1 0 0.4
v -0.1 0 -0.4
v 0.1 0 -0.4
v -0.1 0 -0.6
v 0.1 0 -0.6
v -0.1 0 -0.9
v 0.1 0 -0.9
v -0.1 0 -1
v 0.1 0 -1
v -0.1 0.1 0.9
v 0.1 0.1 0.9
v -0.1 0.1 0.6
v 0.1 0.1 0.6
v -0.1 0.1 -0.6
v 0.1 0.1 -0.6
v -0.1 0.1 -0.9
v 0.1 0.1 -0.9
v -0.1 0.5 0.9
v 0.1 0.5 0.9
v -0.1 0.5 0.6
v 0.1 0.5 0.6
v -0.1 0.5 -0.6
v 0.1 0.5 -0.6
v -0.1 0.5 -0.9
v 0.1 0.5 -0.9
v -0.1 0.3 0.9
v 0.1 0.3 0.9
v -0.1 0.3 0.6
v 0.1 0.3 0.6
v -0.1 0.3 -0.6
v 0.1 0.3 -0.6
v -0.1 0.3 -0.9
v 0.1 0.3 -0.9
v -0.1 0.7 0.9
v 0.1 0.7 0.9
v -0.1 0.7 0.6
v 0.1 0.7 0.6
v -0.1 0.7 -0.6
v 0.1 0.7 -0.6
v -0.1 0.7 -0.9
v 0.1 0.7 -0.9
v -0.1 0.8 1
v 0.1 0.8 1
v -0.1 0.8 0.9
v 0.1 0.8 0.9
v -0.1 0.8 0.6
v 0.1 0.8 0.6
v -0.1 0.8 0.4
v 0.1 0.8 0.4
v -0.1 0.8 -0.4
v 0.1 0.8 -0.4
v -0.1 0.8 -0.6
v 0.1 0.8 -0.6
v -0.1 0.8 -0.9
v 0.1 0.8 -0.9
v -0.1 0.8 -1
v 0.1 0.8 -1

# faces
f 9/1/1 2/1/1 1/1/1
f 10/1/1 4/1/1 3/1/1
f 11/1/1 6/1/1 5/1/1
f 12/1/1 8/1/1 7/1/1
f 13/1/1 9/1/1 1/1/1
f 13/2/1 10/2/1 9/2/1
f 14/1/1 4/1/1 10/1/1
f 14/2/1 10/2/1 13/2/1
f 15/1/1 11/1/1 5/1/1
f 15/2/1 12/2/1 11/2/1
f 16/1/1 8/1/1 12/1/1
f 16/2/1 12/2/1 15/2/1
f 17/1/1 13/1/1 1/1/1
f 18/1/1 4/1/1 14/1/1
f 19/1/1 15/1/1 5/1/1
f 20/1/1 8/1/1 16/1/1
f 21/1/1 17/1/1 1/1/1
f 21/2/1 18/2/1 17/2/1
f 22/1/1 4/1/1 18/1/1
f 22/2/1 18/2/1 21/2/1
f 23/2/1 20/2/1 19/2/1
f 23/1/1 19/1/1 5/1/1
f 24/1/1 8/1/1 20/1/1
f 24/2/1 20/2/1 23/2/1
f 25/1/1 21/1/1 1/1/1
f 26/1/1 21/1/1 25/1/1
f 27/1/1 4/1/1 22/1/1
f 28/1/1 4/1/1 27/1/1
f 29/1/1 23/1/1 5/1/1
f 30/1/1 23/1/1 29/1/1
f 31/1/1 8/1/1 24/1/1
f 32/1/1 8/1/1 31/1/1
f 33/1/2 34/1/2 41/1/2
f 35/1/2 36/1/2 42/1/2
f 37/1/2 38/1/2 43/1/2
f 39/1/2 40/1/2 44/1/2
f 33/1/2 41/1/2 45/1/2
f 41/2/2 42/2/2 45/2/2
f 42/1/2 36/1/2 46/1/2
f 45/2/2 42/2/2 46/2/2
f 37/1/2 43/1/2 47/1/2
f 43/2/2 44/2/2 47/2/2
f 44/1/2 40/1/2 48/1/2
f 47/2/2 44/2/2 48/2/2
f 33/1/2 45/1/2 49/1/2
f 46/1/2 36/1/2 50/1/2
f 37/1/2 47/1/2 51/1/2
f 48/1/2 40/1/2 52/1/2
f 33/1/2 49/1/2 53/1/2
f 49/2/2 50/2/2 53/2/2
f 50/1/2 36/1/2 54/1/2
f 53/2/2 50/2/2 54/2/2
f 51/2/2 52/2/2 55/2/2
f 37/1/2 51/1/2 55/1/2
f 52/1/2 40/1/2 56/1/2
f 55/2/2 52/2/2 56/2/2
f 33/1/2 53/1/2 57/1/2
f 57/1/2 53/1/2 58/1/2
f 54/1/2 36/1/2 59/1/2
f 59/1/2 36/1/2 60/1/2
f 37/1/2 55/1/2 61/1/2
f 61/1/2 55/1/2 62/1/2
f 56/1/2 40/1/2 63/1/2
f 63/1/2 40/1/2 64/1/2
f 67/1/3 66/1/3 65/1/3
f 68/1/3 66/1/3 67/1/3
f 75/1/3 70/1/3 69/1/3
f 76/1/3 70/1/3 75/1/3
f 77/1/3 72/1/3 71/1/3
f 78/1/3 72/1/3 77/1/3
f 79/1/3 74/1/3 73/1/3
f 80/1/3 74/1/3 79/1/3
f 83/1/3 82/1/3 81/1/3
f 84/1/3 82/1/3 83/1/3
f 91/1/3 86/1/3 85/1/3
f 92/1/3 86/1/3 91/1/3
f 93/1/3 88/1/3 87/1/3
f 94/1/3 88/1/3 93/1/3
f 95/1/3 90/1/3 89/1/3
f 96/1/3 90/1/3 95/1/3
f 97/1/4 98/1/4 103/1/4
f 103/1/4 98/1/4 104/1/4
f 99/1/4 100/1/4 105/1/4
f 105/1/4 100/1/4 106/1/4
f 101/1/4 102/1/4 107/1/4
f 107/1/4 102/1/4 108/1/4
f 109/1/4 110/1/4 111/1/4
f 111/1/4 110/1/4 112/1/4
f 113/1/4 114/1/4 119/1/4
f 119/1/4 114/1/4 120/1/4
f 115/1/4 116/1/4 121/1/4
f 121/1/4 116/1/4 122/1/4
f 117/1/4 118/1/4 123/1/4
f 123/1/4 118/1/4 124/1/4
f 125/1/4 126/1/4 127/1/4
f 127/1/4 126/1/4 128/1/4
f 131/1/5 130/1/5 129/1/5
f 132/1/5 130/1/5 131/1/5
f 135/1/5 134/1/5 133/1/5
f 136/1/5 134/1/5 135/1/5
f 139/1/5 138/1/5 137/1/5
f 140/1/5 138/1/5 139/1/5
f 143/1/5 142/1/5 141/1/5
f 144/1/5 142/1/5 143/1/5
f 147/2/5 146/2/5 145/2/5
f 148/2/5 146/2/5 147/2/5
f 151/2/5 150/2/5 149/2/5
f 152/2/5 150/2/5 151/2/5
f 155/2/5 154/2/5 153/2/5
f 156/2/5 154/2/5 155/2/5
f 159/2/5 158/2/5 157/2/5
f 160/2/5 158/2/5 159/2/5
f 161/2/6 162/2/6 163/2/6
f 163/2/6 162/2/6 164/2/6
f 165/2/6 166/2/6 167/2/6
f 167/2/6 166/2/6 168/2/6
f 169/2/6 170/2/6 171/2/6
f 171/2/6 170/2/6 172/2/6
f 173/2/6 174/2/6 175/2/6
f 175/2/6 174/2/6 176/2/6
f 177/1/6 178/1/6 179/1/6
f 179/1/6 178/1/6 180/1/6
f 181/1/6 182/1/6 183/1/6
f 183/1/6 182/1/6 184/1/6
f 185/1/6 186/1/6 187/1/6
f 187/1/6 186/1/6 188/1/6
f 189/1/6 190/1/6 191/1/6
f 191/1/6 190/1/6 192/1/6
