# MagicaVoxel @ Ephtracy

# group
o 

# material
mtllib fuente.mtl
usemtl palette

# normals
vn -1 0 0
vn 1 0 0
vn 0 0 1
vn 0 0 -1
vn 0 -1 0
vn 0 1 0

# texcoords
vt 0.0214844 0.5
vt 0.537109 0.5
vt 0.982422 0.5
vt 0.990234 0.5

# verts
v -0.4 0 0.2
v -0.4 0 -0.1
v -0.4 0 -0.3
v -0.4 0 -0.8
v -0.4 0.1 0.2
v -0.4 0.1 -0.1
v -0.4 0.1 -0.3
v -0.4 0.1 -0.8
v -0.4 0.2 0.2
v -0.4 0.2 -0.1
v -0.4 0.4 0.2
v -0.4 0.4 0.1
v -0.4 0.4 2.98023e-008
v -0.4 0.4 -0.1
v -0.4 0.5 0.1
v -0.4 0.5 2.98023e-008
v -0.3 0 0.3
v -0.3 0 0.2
v -0.3 0 -0.1
v -0.3 0 -0.2
v -0.3 0.1 0.3
v -0.3 0.1 0.2
v -0.3 0.1 -0.1
v -0.3 0.1 -0.2
v -0.3 0.1 -0.4
v -0.3 0.1 -0.7
v -0.3 0.2 0.3
v -0.3 0.2 0.2
v -0.3 0.2 -0.1
v -0.3 0.2 -0.2
v -0.3 0.4 0.3
v -0.3 0.4 0.2
v -0.3 0.4 -0.1
v -0.3 0.4 -0.2
v -0.3 0.7 -0.2
v -0.3 0.7 -0.4
v -0.3 0.9 -0.2
v -0.3 0.9 -0.4
v -0.3 1 -0.4
v -0.3 1 -0.7
v -0.2 0.9 -0.7
v -0.2 0.9 -0.8
v -0.2 1 -0.5
v -0.2 1 -0.6
v -0.2 1 -0.7
v -0.2 1 -0.8
v -0.2 1 -0.9
v -0.2 1 -1
v -0.2 1 -1.1
v -0.2 1.2 -0.6
v -0.2 1.2 -0.7
v -0.2 1.3 -0.5
v -0.2 1.3 -0.6
v -0.2 1.3 -0.7
v -0.2 1.3 -0.8
v -0.2 1.3 -0.9
v -0.2 1.3 -1
v -0.2 1.3 -1.1
v -0.2 1.4 -0.6
v -0.2 1.4 -1
v -0.1 0.8 -0.2
v -0.1 0.8 -0.6
v -0.1 0.9 -0.2
v -0.1 0.9 -0.4
v -0.1 0.9 -0.6
v -5.96046e-008 0.1 0.2
v -5.96046e-008 0.1 -0.1
v -5.96046e-008 0.2 0.2
v -5.96046e-008 0.2 -0.1
v -5.96046e-008 0.4 0.2
v -5.96046e-008 0.4 0.1
v -5.96046e-008 0.4 2.98023e-008
v -5.96046e-008 0.4 -0.1
v -5.96046e-008 0.5 0.1
v -5.96046e-008 0.5 2.98023e-008
v -0.3 0.1 0.2
v -0.3 0.1 -0.1
v -0.3 0.2 0.2
v -0.3 0.2 -0.1
v -0.3 0.4 0.2
v -0.3 0.4 0.1
v -0.3 0.4 2.98023e-008
v -0.3 0.4 -0.1
v -0.3 0.5 0.1
v -0.3 0.5 2.98023e-008
v -0.2 0.8 -0.2
v -0.2 0.8 -0.6
v -0.2 0.9 -0.2
v -0.2 0.9 -0.4
v -0.2 0.9 -0.6
v -0.1 0.9 -0.7
v -0.1 0.9 -0.8
v -0.1 1 -0.5
v -0.1 1 -0.6
v -0.1 1 -0.7
v -0.1 1 -0.8
v -0.1 1 -0.9
v -0.1 1 -1
v -0.1 1 -1.1
v -0.1 1.2 -0.6
v -0.1 1.2 -0.7
v -0.1 1.3 -0.5
v -0.1 1.3 -0.6
v -0.1 1.3 -0.7
v -0.1 1.3 -0.8
v -0.1 1.3 -0.9
v -0.1 1.3 -1
v -0.1 1.3 -1.1
v -0.1 1.4 -0.6
v -0.1 1.4 -1
v -5.96046e-008 0 0.3
v -5.96046e-008 0 0.2
v -5.96046e-008 0 -0.1
v -5.96046e-008 0 -0.2
v -5.96046e-008 0.1 0.3
v -5.96046e-008 0.1 0.2
v -5.96046e-008 0.1 -0.1
v -5.96046e-008 0.1 -0.2
v -5.96046e-008 0.1 -0.4
v -5.96046e-008 0.1 -0.7
v -5.96046e-008 0.2 0.3
v -5.96046e-008 0.2 0.2
v -5.96046e-008 0.2 -0.1
v -5.96046e-008 0.2 -0.2
v -5.96046e-008 0.4 0.3
v -5.96046e-008 0.4 0.2
v -5.96046e-008 0.4 -0.1
v -5.96046e-008 0.4 -0.2
v -5.96046e-008 0.7 -0.2
v -5.96046e-008 0.7 -0.4
v -5.96046e-008 0.9 -0.2
v -5.96046e-008 0.9 -0.4
v -5.96046e-008 1 -0.4
v -5.96046e-008 1 -0.7
v 0.1 0 0.2
v 0.1 0 -0.1
v 0.1 0 -0.3
v 0.1 0 -0.8
v 0.1 0.1 0.2
v 0.1 0.1 -0.1
v 0.1 0.1 -0.3
v 0.1 0.1 -0.8
v 0.1 0.2 0.2
v 0.1 0.2 -0.1
v 0.1 0.4 0.2
v 0.1 0.4 0.1
v 0.1 0.4 2.98023e-008
v 0.1 0.4 -0.1
v 0.1 0.5 0.1
v 0.1 0.5 2.98023e-008
v -0.3 0 0.3
v -0.3 0.1 0.3
v -0.3 0.2 0.3
v -0.3 0.4 0.3
v -5.96046e-008 0 0.3
v -5.96046e-008 0.1 0.3
v -5.96046e-008 0.2 0.3
v -5.96046e-008 0.4 0.3
v -0.4 0 0.2
v -0.4 0.1 0.2
v -0.4 0.2 0.2
v -0.4 0.4 0.2
v -0.3 0 0.2
v -0.3 0.1 0.2
v -0.3 0.2 0.2
v -0.3 0.4 0.2
v -5.96046e-008 0 0.2
v -5.96046e-008 0.1 0.2
v -5.96046e-008 0.2 0.2
v -5.96046e-008 0.4 0.2
v 0.1 0 0.2
v 0.1 0.1 0.2
v 0.1 0.2 0.2
v 0.1 0.4 0.2
v -0.4 0.4 0.1
v -0.4 0.5 0.1
v -0.3 0.4 0.1
v -0.3 0.5 0.1
v -5.96046e-008 0.4 0.1
v -5.96046e-008 0.5 0.1
v 0.1 0.4 0.1
v 0.1 0.5 0.1
v -0.3 0.1 -0.1
v -0.3 0.2 -0.1
v -0.3 0.4 -0.1
v -5.96046e-008 0.1 -0.1
v -5.96046e-008 0.2 -0.1
v -5.96046e-008 0.4 -0.1
v -0.3 0.7 -0.2
v -0.3 0.9 -0.2
v -0.2 0.8 -0.2
v -0.2 0.9 -0.2
v -0.1 0.8 -0.2
v -0.1 0.9 -0.2
v -5.96046e-008 0.7 -0.2
v -5.96046e-008 0.9 -0.2
v -0.4 0 -0.3
v -0.4 0.1 -0.3
v 0.1 0 -0.3
v 0.1 0.1 -0.3
v -0.3 0.1 -0.4
v -0.3 0.7 -0.4
v -0.3 0.9 -0.4
v -0.3 1 -0.4
v -0.2 0.9 -0.4
v -0.1 0.9 -0.4
v -5.96046e-008 0.1 -0.4
v -5.96046e-008 0.7 -0.4
v -5.96046e-008 0.9 -0.4
v -5.96046e-008 1 -0.4
v -0.2 1 -0.5
v -0.2 1.3 -0.5
v -0.1 1 -0.5
v -0.1 1.3 -0.5
v -0.2 0.8 -0.6
v -0.2 0.9 -0.6
v -0.2 1.3 -0.6
v -0.2 1.4 -0.6
v -0.1 0.8 -0.6
v -0.1 0.9 -0.6
v -0.1 1.3 -0.6
v -0.1 1.4 -0.6
v -0.2 1 -0.8
v -0.2 1.3 -0.8
v -0.1 1 -0.8
v -0.1 1.3 -0.8
v -0.2 1 -1
v -0.2 1.3 -1
v -0.1 1 -1
v -0.1 1.3 -1
v -0.3 0.1 0.2
v -0.3 0.2 0.2
v -0.3 0.4 0.2
v -5.96046e-008 0.1 0.2
v -5.96046e-008 0.2 0.2
v -5.96046e-008 0.4 0.2
v -0.4 0.4 2.98023e-008
v -0.4 0.5 2.98023e-008
v -0.3 0.4 2.98023e-008
v -0.3 0.5 2.98023e-008
v -5.96046e-008 0.4 2.98023e-008
v -5.96046e-008 0.5 2.98023e-008
v 0.1 0.4 2.98023e-008
v 0.1 0.5 2.98023e-008
v -0.4 0 -0.1
v -0.4 0.1 -0.1
v -0.4 0.2 -0.1
v -0.4 0.4 -0.1
v -0.3 0 -0.1
v -0.3 0.1 -0.1
v -0.3 0.2 -0.1
v -0.3 0.4 -0.1
v -5.96046e-008 0 -0.1
v -5.96046e-008 0.1 -0.1
v -5.96046e-008 0.2 -0.1
v -5.96046e-008 0.4 -0.1
v 0.1 0 -0.1
v 0.1 0.1 -0.1
v 0.1 0.2 -0.1
v 0.1 0.4 -0.1
v -0.3 0 -0.2
v -0.3 0.1 -0.2
v -0.3 0.2 -0.2
v -0.3 0.4 -0.2
v -5.96046e-008 0 -0.2
v -5.96046e-008 0.1 -0.2
v -5.96046e-008 0.2 -0.2
v -5.96046e-008 0.4 -0.2
v -0.2 1 -0.6
v -0.2 1.2 -0.6
v -0.1 1 -0.6
v -0.1 1.2 -0.6
v -0.3 0.1 -0.7
v -0.3 1 -0.7
v -0.2 0.9 -0.7
v -0.2 1 -0.7
v -0.2 1.2 -0.7
v -0.2 1.3 -0.7
v -0.1 0.9 -0.7
v -0.1 1 -0.7
v -0.1 1.2 -0.7
v -0.1 1.3 -0.7
v -5.96046e-008 0.1 -0.7
v -5.96046e-008 1 -0.7
v -0.4 0 -0.8
v -0.4 0.1 -0.8
v -0.2 0.9 -0.8
v -0.2 1 -0.8
v -0.1 0.9 -0.8
v -0.1 1 -0.8
v 0.1 0 -0.8
v 0.1 0.1 -0.8
v -0.2 1 -0.9
v -0.2 1.3 -0.9
v -0.1 1 -0.9
v -0.1 1.3 -0.9
v -0.2 1.3 -1
v -0.2 1.4 -1
v -0.1 1.3 -1
v -0.1 1.4 -1
v -0.2 1 -1.1
v -0.2 1.3 -1.1
v -0.1 1 -1.1
v -0.1 1.3 -1.1
v -0.3 0 0.3
v -5.96046e-008 0 0.3
v -0.4 0 0.2
v -0.3 0 0.2
v -5.96046e-008 0 0.2
v 0.1 0 0.2
v -0.4 0 -0.1
v -0.3 0 -0.1
v -5.96046e-008 0 -0.1
v 0.1 0 -0.1
v -0.3 0 -0.2
v -5.96046e-008 0 -0.2
v -0.4 0 -0.3
v 0.1 0 -0.3
v -0.4 0 -0.8
v 0.1 0 -0.8
v -0.3 0.7 -0.2
v -5.96046e-008 0.7 -0.2
v -0.3 0.7 -0.4
v -5.96046e-008 0.7 -0.4
v -0.2 0.9 -0.4
v -0.1 0.9 -0.4
v -0.2 0.9 -0.6
v -0.1 0.9 -0.6
v -0.2 0.9 -0.7
v -0.1 0.9 -0.7
v -0.2 0.9 -0.8
v -0.1 0.9 -0.8
v -0.2 1 -0.8
v -0.1 1 -0.8
v -0.2 1 -0.9
v -0.1 1 -0.9
v -0.2 1 -1
v -0.1 1 -1
v -0.2 1 -1.1
v -0.1 1 -1.1
v -0.2 1.2 -0.6
v -0.1 1.2 -0.6
v -0.2 1.2 -0.7
v -0.1 1.2 -0.7
v -0.2 1.3 -0.7
v -0.1 1.3 -0.7
v -0.2 1.3 -0.8
v -0.1 1.3 -0.8
v -0.2 1.3 -0.9
v -0.1 1.3 -0.9
v -0.2 1.3 -1
v -0.1 1.3 -1
v -0.3 0.1 0.2
v -5.96046e-008 0.1 0.2
v -0.3 0.1 -0.1
v -5.96046e-008 0.1 -0.1
v -0.4 0.1 -0.3
v 0.1 0.1 -0.3
v -0.3 0.1 -0.4
v -5.96046e-008 0.1 -0.4
v -0.3 0.1 -0.7
v -5.96046e-008 0.1 -0.7
v -0.4 0.1 -0.8
v 0.1 0.1 -0.8
v -0.3 0.4 0.3
v -5.96046e-008 0.4 0.3
v -0.4 0.4 0.2
v -0.3 0.4 0.2
v -5.96046e-008 0.4 0.2
v 0.1 0.4 0.2
v -0.4 0.4 0.1
v -0.3 0.4 0.1
v -5.96046e-008 0.4 0.1
v 0.1 0.4 0.1
v -0.4 0.4 2.98023e-008
v -0.3 0.4 2.98023e-008
v -5.96046e-008 0.4 2.98023e-008
v 0.1 0.4 2.98023e-008
v -0.4 0.4 -0.1
v -0.3 0.4 -0.1
v -5.96046e-008 0.4 -0.1
v 0.1 0.4 -0.1
v -0.3 0.4 -0.2
v -5.96046e-008 0.4 -0.2
v -0.4 0.5 0.1
v -0.3 0.5 0.1
v -5.96046e-008 0.5 0.1
v 0.1 0.5 0.1
v -0.4 0.5 2.98023e-008
v -0.3 0.5 2.98023e-008
v -5.96046e-008 0.5 2.98023e-008
v 0.1 0.5 2.98023e-008
v -0.2 0.8 -0.2
v -0.1 0.8 -0.2
v -0.2 0.8 -0.6
v -0.1 0.8 -0.6
v -0.3 0.9 -0.2
v -0.2 0.9 -0.2
v -0.1 0.9 -0.2
v -5.96046e-008 0.9 -0.2
v -0.3 0.9 -0.4
v -0.2 0.9 -0.4
v -0.1 0.9 -0.4
v -5.96046e-008 0.9 -0.4
v -0.3 1 -0.4
v -5.96046e-008 1 -0.4
v -0.2 1 -0.5
v -0.1 1 -0.5
v -0.2 1 -0.6
v -0.1 1 -0.6
v -0.3 1 -0.7
v -0.2 1 -0.7
v -0.1 1 -0.7
v -5.96046e-008 1 -0.7
v -0.2 1 -0.8
v -0.1 1 -0.8
v -0.2 1.3 -0.5
v -0.1 1.3 -0.5
v -0.2 1.3 -0.6
v -0.1 1.3 -0.6
v -0.2 1.3 -1
v -0.1 1.3 -1
v -0.2 1.3 -1.1
v -0.1 1.3 -1.1
v -0.2 1.4 -0.6
v -0.1 1.4 -0.6
v -0.2 1.4 -1
v -0.1 1.4 -1

# faces
f 5/2/1 2/2/1 1/2/1
f 6/2/1 2/2/1 5/2/1
f 7/3/1 4/3/1 3/3/1
f 8/3/1 4/3/1 7/3/1
f 9/1/1 6/1/1 5/1/1
f 10/1/1 6/1/1 9/1/1
f 11/2/1 10/2/1 9/2/1
f 12/2/1 10/2/1 11/2/1
f 13/2/1 10/2/1 12/2/1
f 14/2/1 10/2/1 13/2/1
f 15/2/1 13/2/1 12/2/1
f 16/2/1 13/2/1 15/2/1
f 21/2/1 18/2/1 17/2/1
f 22/2/1 18/2/1 21/2/1
f 23/2/1 20/2/1 19/2/1
f 24/2/1 20/2/1 23/2/1
f 27/1/1 22/1/1 21/1/1
f 28/1/1 22/1/1 27/1/1
f 29/1/1 24/1/1 23/1/1
f 30/1/1 24/1/1 29/1/1
f 31/2/1 28/2/1 27/2/1
f 32/2/1 28/2/1 31/2/1
f 33/2/1 30/2/1 29/2/1
f 34/2/1 30/2/1 33/2/1
f 36/3/1 26/3/1 25/3/1
f 37/3/1 36/3/1 35/3/1
f 38/3/1 26/3/1 36/3/1
f 38/3/1 36/3/1 37/3/1
f 39/3/1 26/3/1 38/3/1
f 40/3/1 26/3/1 39/3/1
f 45/4/1 42/4/1 41/4/1
f 46/4/1 42/4/1 45/4/1
f 50/4/1 44/4/1 43/4/1
f 52/4/1 50/4/1 43/4/1
f 52/4/1 51/4/1 50/4/1
f 53/4/1 51/4/1 52/4/1
f 54/4/1 51/4/1 53/4/1
f 55/4/1 47/4/1 46/4/1
f 56/4/1 47/4/1 55/4/1
f 57/4/1 49/4/1 48/4/1
f 58/4/1 49/4/1 57/4/1
f 59/4/1 56/4/1 55/4/1
f 59/4/1 54/4/1 53/4/1
f 59/4/1 57/4/1 56/4/1
f 59/4/1 55/4/1 54/4/1
f 60/4/1 57/4/1 59/4/1
f 63/3/1 62/3/1 61/3/1
f 64/3/1 62/3/1 63/3/1
f 65/3/1 62/3/1 64/3/1
f 68/1/1 67/1/1 66/1/1
f 69/1/1 67/1/1 68/1/1
f 70/2/1 69/2/1 68/2/1
f 71/2/1 69/2/1 70/2/1
f 72/2/1 69/2/1 71/2/1
f 73/2/1 69/2/1 72/2/1
f 74/2/1 72/2/1 71/2/1
f 75/2/1 72/2/1 74/2/1
f 76/1/2 77/1/2 78/1/2
f 78/1/2 77/1/2 79/1/2
f 78/2/2 79/2/2 80/2/2
f 80/2/2 79/2/2 81/2/2
f 81/2/2 79/2/2 82/2/2
f 82/2/2 79/2/2 83/2/2
f 81/2/2 82/2/2 84/2/2
f 84/2/2 82/2/2 85/2/2
f 86/3/2 87/3/2 88/3/2
f 88/3/2 87/3/2 89/3/2
f 89/3/2 87/3/2 90/3/2
f 91/4/2 92/4/2 95/4/2
f 95/4/2 92/4/2 96/4/2
f 93/4/2 94/4/2 100/4/2
f 93/4/2 100/4/2 102/4/2
f 100/4/2 101/4/2 102/4/2
f 102/4/2 101/4/2 103/4/2
f 103/4/2 101/4/2 104/4/2
f 96/4/2 97/4/2 105/4/2
f 105/4/2 97/4/2 106/4/2
f 98/4/2 99/4/2 107/4/2
f 107/4/2 99/4/2 108/4/2
f 105/4/2 106/4/2 109/4/2
f 103/4/2 104/4/2 109/4/2
f 106/4/2 107/4/2 109/4/2
f 104/4/2 105/4/2 109/4/2
f 109/4/2 107/4/2 110/4/2
f 111/2/2 112/2/2 115/2/2
f 115/2/2 112/2/2 116/2/2
f 113/2/2 114/2/2 117/2/2
f 117/2/2 114/2/2 118/2/2
f 115/1/2 116/1/2 121/1/2
f 121/1/2 116/1/2 122/1/2
f 117/1/2 118/1/2 123/1/2
f 123/1/2 118/1/2 124/1/2
f 121/2/2 122/2/2 125/2/2
f 125/2/2 122/2/2 126/2/2
f 123/2/2 124/2/2 127/2/2
f 127/2/2 124/2/2 128/2/2
f 119/3/2 120/3/2 130/3/2
f 129/3/2 130/3/2 131/3/2
f 130/3/2 120/3/2 132/3/2
f 131/3/2 130/3/2 132/3/2
f 132/3/2 120/3/2 133/3/2
f 133/3/2 120/3/2 134/3/2
f 135/2/2 136/2/2 139/2/2
f 139/2/2 136/2/2 140/2/2
f 137/3/2 138/3/2 141/3/2
f 141/3/2 138/3/2 142/3/2
f 139/1/2 140/1/2 143/1/2
f 143/1/2 140/1/2 144/1/2
f 143/2/2 144/2/2 145/2/2
f 145/2/2 144/2/2 146/2/2
f 146/2/2 144/2/2 147/2/2
f 147/2/2 144/2/2 148/2/2
f 146/2/2 147/2/2 149/2/2
f 149/2/2 147/2/2 150/2/2
f 155/2/3 152/2/3 151/2/3
f 156/1/3 153/1/3 152/1/3
f 156/2/3 152/2/3 155/2/3
f 157/2/3 154/2/3 153/2/3
f 157/1/3 153/1/3 156/1/3
f 158/2/3 154/2/3 157/2/3
f 163/2/3 160/2/3 159/2/3
f 164/1/3 161/1/3 160/1/3
f 164/2/3 160/2/3 163/2/3
f 165/2/3 162/2/3 161/2/3
f 165/1/3 161/1/3 164/1/3
f 166/2/3 162/2/3 165/2/3
f 171/2/3 168/2/3 167/2/3
f 172/1/3 169/1/3 168/1/3
f 172/2/3 168/2/3 171/2/3
f 173/2/3 170/2/3 169/2/3
f 173/1/3 169/1/3 172/1/3
f 174/2/3 170/2/3 173/2/3
f 177/2/3 176/2/3 175/2/3
f 178/2/3 176/2/3 177/2/3
f 181/2/3 180/2/3 179/2/3
f 182/2/3 180/2/3 181/2/3
f 186/1/3 184/1/3 183/1/3
f 187/2/3 185/2/3 184/2/3
f 187/1/3 184/1/3 186/1/3
f 188/2/3 185/2/3 187/2/3
f 191/3/3 190/3/3 189/3/3
f 192/3/3 190/3/3 191/3/3
f 193/3/3 191/3/3 189/3/3
f 195/3/3 193/3/3 189/3/3
f 195/3/3 194/3/3 193/3/3
f 196/3/3 194/3/3 195/3/3
f 199/3/3 198/3/3 197/3/3
f 200/3/3 198/3/3 199/3/3
f 205/3/3 204/3/3 203/3/3
f 206/3/3 204/3/3 205/3/3
f 207/3/3 202/3/3 201/3/3
f 208/3/3 202/3/3 207/3/3
f 209/3/3 204/3/3 206/3/3
f 210/3/3 204/3/3 209/3/3
f 213/4/3 212/4/3 211/4/3
f 214/4/3 212/4/3 213/4/3
f 219/3/3 216/3/3 215/3/3
f 220/3/3 216/3/3 219/3/3
f 221/4/3 218/4/3 217/4/3
f 222/4/3 218/4/3 221/4/3
f 225/4/3 224/4/3 223/4/3
f 226/4/3 224/4/3 225/4/3
f 229/4/3 228/4/3 227/4/3
f 230/4/3 228/4/3 229/4/3
f 231/1/4 232/1/4 234/1/4
f 232/2/4 233/2/4 235/2/4
f 234/1/4 232/1/4 235/1/4
f 235/2/4 233/2/4 236/2/4
f 237/2/4 238/2/4 239/2/4
f 239/2/4 238/2/4 240/2/4
f 241/2/4 242/2/4 243/2/4
f 243/2/4 242/2/4 244/2/4
f 245/2/4 246/2/4 249/2/4
f 246/1/4 247/1/4 250/1/4
f 249/2/4 246/2/4 250/2/4
f 247/2/4 248/2/4 251/2/4
f 250/1/4 247/1/4 251/1/4
f 251/2/4 248/2/4 252/2/4
f 253/2/4 254/2/4 257/2/4
f 254/1/4 255/1/4 258/1/4
f 257/2/4 254/2/4 258/2/4
f 255/2/4 256/2/4 259/2/4
f 258/1/4 255/1/4 259/1/4
f 259/2/4 256/2/4 260/2/4
f 261/2/4 262/2/4 265/2/4
f 262/1/4 263/1/4 266/1/4
f 265/2/4 262/2/4 266/2/4
f 263/2/4 264/2/4 267/2/4
f 266/1/4 263/1/4 267/1/4
f 267/2/4 264/2/4 268/2/4
f 269/4/4 270/4/4 271/4/4
f 271/4/4 270/4/4 272/4/4
f 273/3/4 274/3/4 275/3/4
f 275/3/4 274/3/4 276/3/4
f 273/3/4 275/3/4 279/3/4
f 277/4/4 278/4/4 281/4/4
f 281/4/4 278/4/4 282/4/4
f 279/3/4 280/3/4 283/3/4
f 273/3/4 279/3/4 283/3/4
f 283/3/4 280/3/4 284/3/4
f 287/4/4 288/4/4 289/4/4
f 289/4/4 288/4/4 290/4/4
f 285/3/4 286/3/4 291/3/4
f 291/3/4 286/3/4 292/3/4
f 293/4/4 294/4/4 295/4/4
f 295/4/4 294/4/4 296/4/4
f 297/4/4 298/4/4 299/4/4
f 299/4/4 298/4/4 300/4/4
f 301/4/4 302/4/4 303/4/4
f 303/4/4 302/4/4 304/4/4
f 308/2/5 306/2/5 305/2/5
f 309/2/5 306/2/5 308/2/5
f 311/2/5 308/2/5 307/2/5
f 311/2/5 310/2/5 309/2/5
f 311/2/5 309/2/5 308/2/5
f 312/2/5 310/2/5 311/2/5
f 313/2/5 310/2/5 312/2/5
f 314/2/5 310/2/5 313/2/5
f 315/2/5 313/2/5 312/2/5
f 316/2/5 313/2/5 315/2/5
f 319/3/5 318/3/5 317/3/5
f 320/3/5 318/3/5 319/3/5
f 323/3/5 322/3/5 321/3/5
f 324/3/5 322/3/5 323/3/5
f 327/3/5 326/3/5 325/3/5
f 328/3/5 326/3/5 327/3/5
f 331/4/5 330/4/5 329/4/5
f 332/4/5 330/4/5 331/4/5
f 335/4/5 334/4/5 333/4/5
f 336/4/5 334/4/5 335/4/5
f 339/4/5 338/4/5 337/4/5
f 340/4/5 338/4/5 339/4/5
f 343/4/5 342/4/5 341/4/5
f 344/4/5 342/4/5 343/4/5
f 347/4/5 346/4/5 345/4/5
f 348/4/5 346/4/5 347/4/5
f 351/4/5 350/4/5 349/4/5
f 352/4/5 350/4/5 351/4/5
f 353/2/6 354/2/6 355/2/6
f 355/2/6 354/2/6 356/2/6
f 357/3/6 358/3/6 359/3/6
f 359/3/6 358/3/6 360/3/6
f 357/3/6 359/3/6 361/3/6
f 360/3/6 358/3/6 362/3/6
f 357/3/6 361/3/6 363/3/6
f 361/3/6 362/3/6 363/3/6
f 362/3/6 358/3/6 364/3/6
f 363/3/6 362/3/6 364/3/6
f 365/2/6 366/2/6 368/2/6
f 368/2/6 366/2/6 369/2/6
f 367/2/6 368/2/6 371/2/6
f 371/2/6 368/2/6 372/2/6
f 369/2/6 370/2/6 373/2/6
f 373/2/6 370/2/6 374/2/6
f 375/2/6 376/2/6 379/2/6
f 379/2/6 376/2/6 380/2/6
f 377/2/6 378/2/6 381/2/6
f 381/2/6 378/2/6 382/2/6
f 380/2/6 381/2/6 383/2/6
f 383/2/6 381/2/6 384/2/6
f 385/2/6 386/2/6 389/2/6
f 389/2/6 386/2/6 390/2/6
f 387/2/6 388/2/6 391/2/6
f 391/2/6 388/2/6 392/2/6
f 393/3/6 394/3/6 395/3/6
f 395/3/6 394/3/6 396/3/6
f 397/3/6 398/3/6 401/3/6
f 401/3/6 398/3/6 402/3/6
f 399/3/6 400/3/6 403/3/6
f 403/3/6 400/3/6 404/3/6
f 405/3/6 406/3/6 407/3/6
f 407/3/6 406/3/6 408/3/6
f 405/3/6 407/3/6 409/3/6
f 408/3/6 406/3/6 410/3/6
f 405/3/6 409/3/6 411/3/6
f 409/3/6 410/3/6 411/3/6
f 411/3/6 410/3/6 412/3/6
f 410/3/6 406/3/6 413/3/6
f 412/3/6 410/3/6 413/3/6
f 413/3/6 406/3/6 414/3/6
f 412/4/6 413/4/6 415/4/6
f 415/4/6 413/4/6 416/4/6
f 417/4/6 418/4/6 419/4/6
f 419/4/6 418/4/6 420/4/6
f 421/4/6 422/4/6 423/4/6
f 423/4/6 422/4/6 424/4/6
f 425/4/6 426/4/6 427/4/6
f 427/4/6 426/4/6 428/4/6
