# MagicaVoxel @ Ephtracy

# group
o 

# material
mtllib skull.mtl
usemtl palette

# normals
vn -1 0 0
vn 1 0 0
vn 0 0 1
vn 0 0 -1
vn 0 -1 0
vn 0 1 0

# texcoords
vt 0.958984 0.5
vt 0.962891 0.5

# verts
v -0.9 0.1 -0.4
v -0.9 0.1 -0.7
v -0.9 0.3 -0.4
v -0.9 0.3 -0.5
v -0.9 0.3 -0.7
v -0.9 0.4 -0.5
v -0.9 0.4 -0.6
v -0.9 0.5 -0.6
v -0.9 0.5 -0.7
v -0.8 0 -0.4
v -0.8 0 -0.5
v -0.8 0.1 -0.4
v -0.8 0.1 -0.5
v -0.5 0 0.2
v -0.5 0 0.1
v -0.5 0.1 0.4
v -0.5 0.1 0.3
v -0.5 0.1 0.2
v -0.5 0.2 0.4
v -0.5 0.2 0.3
v -0.5 0.2 0.1
v -0.4 0 0.1
v -0.4 0 -0.1
v -0.4 0 -0.4
v -0.4 0.1 -0.1
v -0.4 0.1 -0.4
v -0.4 0.2 0.1
v -0.4 0.2 -0.4
v -0.3 0 0.3
v -0.3 0 0.2
v -0.3 0.1 0.3
v -0.3 0.1 0.2
v -0.1 0.1 -0.1
v -0.1 0.1 -0.3
v -0.1 0.2 -0.1
v -0.1 0.2 -0.3
v 0 0.1 0.1
v 0 0.1 0
v 0 0.2 0.1
v 0 0.2 0
v 0.1 0 0.3
v 0.1 0 0.2
v 0.1 0 0.1
v 0.1 0.1 0.2
v 0.1 0.1 0.1
v 0.1 0.2 0.3
v 0.1 0.2 0.1
v 0.2 0.1 0.4
v 0.2 0.1 0.3
v 0.2 0.1 -0.1
v 0.2 0.1 -0.3
v 0.2 0.2 0.4
v 0.2 0.2 0.3
v 0.2 0.2 -0.1
v 0.2 0.2 -0.3
v 0.6 0.1 -0.5
v 0.6 0.1 -0.6
v 0.6 0.2 -0.4
v 0.6 0.2 -0.5
v 0.6 0.3 -0.4
v 0.6 0.3 -0.6
v 0.7 0.1 -0.6
v 0.7 0.1 -0.7
v 0.7 0.3 -0.5
v 0.7 0.3 -0.6
v 0.7 0.3 -0.7
v 0.7 0.4 -0.5
v 0.7 0.4 -0.6
v 0.7 0.5 -0.6
v 0.7 0.5 -0.7
v -0.8 0.1 -0.6
v -0.8 0.1 -0.7
v -0.8 0.3 -0.5
v -0.8 0.3 -0.6
v -0.8 0.3 -0.7
v -0.8 0.4 -0.5
v -0.8 0.4 -0.6
v -0.8 0.5 -0.6
v -0.8 0.5 -0.7
v -0.7 0.1 -0.5
v -0.7 0.1 -0.6
v -0.7 0.2 -0.4
v -0.7 0.2 -0.5
v -0.7 0.3 -0.4
v -0.7 0.3 -0.6
v -0.3 0.1 0.4
v -0.3 0.1 0.3
v -0.3 0.1 -0.1
v -0.3 0.1 -0.3
v -0.3 0.2 0.4
v -0.3 0.2 0.3
v -0.3 0.2 -0.1
v -0.3 0.2 -0.3
v -0.2 0 0.3
v -0.2 0 0.2
v -0.2 0 0.1
v -0.2 0.1 0.2
v -0.2 0.1 0.1
v -0.2 0.2 0.3
v -0.2 0.2 0.1
v -0.1 0.1 0.1
v -0.1 0.1 0
v -0.1 0.2 0.1
v -0.1 0.2 0
v 0 0.1 -0.1
v 0 0.1 -0.3
v 0 0.2 -0.1
v 0 0.2 -0.3
v 0.2 0 0.3
v 0.2 0 0.2
v 0.2 0.1 0.3
v 0.2 0.1 0.2
v 0.3 0 0.1
v 0.3 0 0
v 0.3 0 -0.3
v 0.3 0 -0.4
v 0.3 0.1 0
v 0.3 0.1 -0.3
v 0.3 0.1 -0.4
v 0.3 0.2 0.1
v 0.3 0.2 -0.4
v 0.4 0 0.2
v 0.4 0 0.1
v 0.4 0.1 0.4
v 0.4 0.1 0.3
v 0.4 0.1 0.2
v 0.4 0.2 0.4
v 0.4 0.2 0.3
v 0.4 0.2 0.1
v 0.6 0 -0.4
v 0.6 0 -0.5
v 0.6 0.1 -0.4
v 0.6 0.1 -0.5
v 0.8 0.1 -0.4
v 0.8 0.1 -0.7
v 0.8 0.3 -0.4
v 0.8 0.3 -0.5
v 0.8 0.3 -0.7
v 0.8 0.4 -0.5
v 0.8 0.4 -0.6
v 0.8 0.5 -0.6
v 0.8 0.5 -0.7
v -0.5 0.1 0.4
v -0.5 0.2 0.4
v -0.3 0.1 0.4
v -0.3 0.2 0.4
v 0.2 0.1 0.4
v 0.2 0.2 0.4
v 0.4 0.1 0.4
v 0.4 0.2 0.4
v -0.3 0 0.3
v -0.3 0.1 0.3
v -0.3 0.2 0.3
v -0.2 0 0.3
v -0.2 0.2 0.3
v 0.1 0 0.3
v 0.1 0.2 0.3
v 0.2 0 0.3
v 0.2 0.1 0.3
v 0.2 0.2 0.3
v -0.5 0 0.2
v -0.5 0.1 0.2
v -0.3 0 0.2
v -0.3 0.1 0.2
v 0.2 0 0.2
v 0.2 0.1 0.2
v 0.4 0 0.2
v 0.4 0.1 0.2
v -0.2 0 0.1
v -0.2 0.1 0.1
v -0.2 0.2 0.1
v -0.1 0.1 0.1
v -0.1 0.2 0.1
v 0 0.1 0.1
v 0 0.2 0.1
v 0.1 0 0.1
v 0.1 0.1 0.1
v 0.1 0.2 0.1
v -0.1 0.1 0
v -0.1 0.2 0
v 0 0.1 0
v 0 0.2 0
v -0.3 0.1 -0.3
v -0.3 0.2 -0.3
v -0.1 0.1 -0.3
v -0.1 0.2 -0.3
v 0 0.1 -0.3
v 0 0.2 -0.3
v 0.2 0.1 -0.3
v 0.2 0.2 -0.3
v -0.9 0.1 -0.4
v -0.9 0.3 -0.4
v -0.8 0 -0.4
v -0.8 0.1 -0.4
v -0.7 0.1 -0.4
v -0.7 0.2 -0.4
v -0.7 0.3 -0.4
v -0.4 0 -0.4
v -0.4 0.1 -0.4
v -0.4 0.2 -0.4
v 0.3 0 -0.4
v 0.3 0.1 -0.4
v 0.3 0.2 -0.4
v 0.6 0 -0.4
v 0.6 0.1 -0.4
v 0.6 0.2 -0.4
v 0.6 0.3 -0.4
v 0.8 0.1 -0.4
v 0.8 0.3 -0.4
v -0.9 0.3 -0.5
v -0.9 0.4 -0.5
v -0.8 0.3 -0.5
v -0.8 0.4 -0.5
v 0.7 0.3 -0.5
v 0.7 0.4 -0.5
v 0.8 0.3 -0.5
v 0.8 0.4 -0.5
v -0.9 0.4 -0.6
v -0.9 0.5 -0.6
v -0.8 0.4 -0.6
v -0.8 0.5 -0.6
v 0.7 0.4 -0.6
v 0.7 0.5 -0.6
v 0.8 0.4 -0.6
v 0.8 0.5 -0.6
v -0.5 0 0.1
v -0.5 0.2 0.1
v -0.4 0 0.1
v -0.4 0.2 0.1
v 0.3 0 0.1
v 0.3 0.2 0.1
v 0.4 0 0.1
v 0.4 0.2 0.1
v -0.3 0.1 -0.1
v -0.3 0.2 -0.1
v -0.1 0.1 -0.1
v -0.1 0.2 -0.1
v 0 0.1 -0.1
v 0 0.2 -0.1
v 0.2 0.1 -0.1
v 0.2 0.2 -0.1
v -0.8 0 -0.5
v -0.8 0.1 -0.5
v -0.7 0.1 -0.5
v -0.7 0.2 -0.5
v -0.4 0.1 -0.5
v -0.4 0.2 -0.5
v -0.2 0.1 -0.5
v -0.2 0.2 -0.5
v 0.1 0.1 -0.5
v 0.1 0.2 -0.5
v 0.3 0.1 -0.5
v 0.3 0.2 -0.5
v 0.6 0 -0.5
v 0.6 0.1 -0.5
v 0.6 0.2 -0.5
v -0.8 0.1 -0.6
v -0.8 0.3 -0.6
v -0.7 0.1 -0.6
v -0.7 0.3 -0.6
v 0.6 0.1 -0.6
v 0.6 0.3 -0.6
v 0.7 0.1 -0.6
v 0.7 0.3 -0.6
v -0.9 0.1 -0.7
v -0.9 0.3 -0.7
v -0.9 0.5 -0.7
v -0.8 0.1 -0.7
v -0.8 0.3 -0.7
v -0.8 0.5 -0.7
v 0.7 0.1 -0.7
v 0.7 0.3 -0.7
v 0.7 0.5 -0.7
v 0.8 0.1 -0.7
v 0.8 0.3 -0.7
v 0.8 0.5 -0.7
v -0.3 0 0.3
v -0.2 0 0.3
v 0.1 0 0.3
v 0.2 0 0.3
v -0.5 0 0.2
v -0.3 0 0.2
v -0.2 0 0.2
v 0.1 0 0.2
v 0.2 0 0.2
v 0.4 0 0.2
v -0.5 0 0.1
v -0.4 0 0.1
v -0.2 0 0.1
v 0.1 0 0.1
v 0.3 0 0.1
v 0.4 0 0.1
v 0.2 0 0
v 0.3 0 0
v -0.4 0 -0.1
v -0.3 0 -0.1
v 0.2 0 -0.3
v 0.3 0 -0.3
v -0.8 0 -0.4
v -0.4 0 -0.4
v -0.3 0 -0.4
v 0.3 0 -0.4
v 0.6 0 -0.4
v -0.8 0 -0.5
v 0.6 0 -0.5
v -0.5 0.1 0.4
v -0.3 0.1 0.4
v 0.2 0.1 0.4
v 0.4 0.1 0.4
v -0.5 0.1 0.3
v -0.3 0.1 0.3
v 0.2 0.1 0.3
v 0.4 0.1 0.3
v -0.5 0.1 0.2
v -0.3 0.1 0.2
v 0.2 0.1 0.2
v 0.4 0.1 0.2
v -0.9 0.1 -0.4
v -0.8 0.1 -0.4
v 0.6 0.1 -0.4
v 0.8 0.1 -0.4
v -0.8 0.1 -0.5
v -0.7 0.1 -0.5
v 0.6 0.1 -0.5
v -0.8 0.1 -0.6
v -0.7 0.1 -0.6
v 0.6 0.1 -0.6
v 0.7 0.1 -0.6
v -0.9 0.1 -0.7
v -0.8 0.1 -0.7
v 0.7 0.1 -0.7
v 0.8 0.1 -0.7
v -0.1 0.1 0.1
v 0 0.1 0.1
v -0.1 0.1 0
v 0 0.1 0
v -0.3 0.1 -0.1
v -0.1 0.1 -0.1
v 0 0.1 -0.1
v 0.2 0.1 -0.1
v -0.3 0.1 -0.3
v -0.1 0.1 -0.3
v 0 0.1 -0.3
v 0.2 0.1 -0.3
v -0.5 0.2 0.4
v -0.3 0.2 0.4
v 0.2 0.2 0.4
v 0.4 0.2 0.4
v -0.5 0.2 0.3
v -0.3 0.2 0.3
v -0.2 0.2 0.3
v 0.1 0.2 0.3
v 0.2 0.2 0.3
v 0.4 0.2 0.3
v -0.5 0.2 0.1
v -0.4 0.2 0.1
v -0.3 0.2 0.1
v -0.2 0.2 0.1
v -0.1 0.2 0.1
v 0 0.2 0.1
v 0.1 0.2 0.1
v 0.2 0.2 0.1
v 0.3 0.2 0.1
v 0.4 0.2 0.1
v -0.1 0.2 0
v 0 0.2 0
v -0.3 0.2 -0.1
v -0.1 0.2 -0.1
v 0 0.2 -0.1
v 0.2 0.2 -0.1
v -0.3 0.2 -0.3
v -0.1 0.2 -0.3
v 0 0.2 -0.3
v 0.2 0.2 -0.3
v -0.7 0.2 -0.4
v -0.4 0.2 -0.4
v -0.2 0.2 -0.4
v 0.1 0.2 -0.4
v 0.3 0.2 -0.4
v 0.6 0.2 -0.4
v -0.7 0.2 -0.5
v -0.4 0.2 -0.5
v -0.2 0.2 -0.5
v 0.1 0.2 -0.5
v 0.3 0.2 -0.5
v 0.6 0.2 -0.5
v -0.9 0.3 -0.4
v -0.7 0.3 -0.4
v 0.6 0.3 -0.4
v 0.8 0.3 -0.4
v -0.9 0.3 -0.5
v -0.8 0.3 -0.5
v 0.7 0.3 -0.5
v 0.8 0.3 -0.5
v -0.8 0.3 -0.6
v -0.7 0.3 -0.6
v 0.6 0.3 -0.6
v 0.7 0.3 -0.6
v -0.9 0.4 -0.5
v -0.8 0.4 -0.5
v 0.7 0.4 -0.5
v 0.8 0.4 -0.5
v -0.9 0.4 -0.6
v -0.8 0.4 -0.6
v 0.7 0.4 -0.6
v 0.8 0.4 -0.6
v -0.9 0.5 -0.6
v -0.8 0.5 -0.6
v 0.7 0.5 -0.6
v 0.8 0.5 -0.6
v -0.9 0.5 -0.7
v -0.8 0.5 -0.7
v 0.7 0.5 -0.7
v 0.8 0.5 -0.7

# faces
f 3/1/1 2/1/1 1/1/1
f 4/1/1 2/1/1 3/1/1
f 5/1/1 2/1/1 4/1/1
f 6/2/1 5/2/1 4/2/1
f 7/2/1 5/2/1 6/2/1
f 8/2/1 5/2/1 7/2/1
f 9/2/1 5/2/1 8/2/1
f 12/1/1 11/1/1 10/1/1
f 13/1/1 11/1/1 12/1/1
f 18/1/1 15/1/1 14/1/1
f 19/2/1 17/2/1 16/2/1
f 20/1/1 18/1/1 17/1/1
f 20/2/1 17/2/1 19/2/1
f 21/1/1 15/1/1 18/1/1
f 21/1/1 18/1/1 20/1/1
f 25/1/1 23/1/1 22/1/1
f 25/2/1 24/2/1 23/2/1
f 26/2/1 24/2/1 25/2/1
f 27/1/1 25/1/1 22/1/1
f 27/1/1 26/1/1 25/1/1
f 28/1/1 26/1/1 27/1/1
f 31/2/1 30/2/1 29/2/1
f 32/2/1 30/2/1 31/2/1
f 35/1/1 34/1/1 33/1/1
f 36/1/1 34/1/1 35/1/1
f 39/1/1 38/1/1 37/1/1
f 40/1/1 38/1/1 39/1/1
f 44/2/1 42/2/1 41/2/1
f 44/1/1 43/1/1 42/1/1
f 45/1/1 43/1/1 44/1/1
f 46/2/1 44/2/1 41/2/1
f 46/2/1 45/2/1 44/2/1
f 47/2/1 45/2/1 46/2/1
f 52/2/1 49/2/1 48/2/1
f 53/2/1 49/2/1 52/2/1
f 54/1/1 51/1/1 50/1/1
f 55/1/1 51/1/1 54/1/1
f 59/1/1 57/1/1 56/1/1
f 60/1/1 59/1/1 58/1/1
f 61/1/1 57/1/1 59/1/1
f 61/1/1 59/1/1 60/1/1
f 65/1/1 63/1/1 62/1/1
f 66/1/1 63/1/1 65/1/1
f 67/2/1 65/2/1 64/2/1
f 67/2/1 66/2/1 65/2/1
f 68/2/1 66/2/1 67/2/1
f 69/2/1 66/2/1 68/2/1
f 70/2/1 66/2/1 69/2/1
f 71/1/2 72/1/2 74/1/2
f 74/1/2 72/1/2 75/1/2
f 73/2/2 74/2/2 76/2/2
f 74/2/2 75/2/2 76/2/2
f 76/2/2 75/2/2 77/2/2
f 77/2/2 75/2/2 78/2/2
f 78/2/2 75/2/2 79/2/2
f 80/1/2 81/1/2 83/1/2
f 82/1/2 83/1/2 84/1/2
f 83/1/2 81/1/2 85/1/2
f 84/1/2 83/1/2 85/1/2
f 86/2/2 87/2/2 90/2/2
f 90/2/2 87/2/2 91/2/2
f 88/1/2 89/1/2 92/1/2
f 92/1/2 89/1/2 93/1/2
f 94/2/2 95/2/2 97/2/2
f 95/1/2 96/1/2 97/1/2
f 97/1/2 96/1/2 98/1/2
f 94/2/2 97/2/2 99/2/2
f 97/2/2 98/2/2 99/2/2
f 99/2/2 98/2/2 100/2/2
f 101/1/2 102/1/2 103/1/2
f 103/1/2 102/1/2 104/1/2
f 105/1/2 106/1/2 107/1/2
f 107/1/2 106/1/2 108/1/2
f 109/2/2 110/2/2 111/2/2
f 111/2/2 110/2/2 112/2/2
f 113/1/2 114/1/2 117/1/2
f 114/2/2 115/2/2 117/2/2
f 115/1/2 116/1/2 118/1/2
f 117/2/2 115/2/2 118/2/2
f 118/1/2 116/1/2 119/1/2
f 113/1/2 117/1/2 120/1/2
f 117/1/2 118/1/2 120/1/2
f 118/1/2 119/1/2 120/1/2
f 120/1/2 119/1/2 121/1/2
f 122/1/2 123/1/2 126/1/2
f 124/2/2 125/2/2 127/2/2
f 125/1/2 126/1/2 128/1/2
f 127/2/2 125/2/2 128/2/2
f 126/1/2 123/1/2 129/1/2
f 128/1/2 126/1/2 129/1/2
f 130/1/2 131/1/2 132/1/2
f 132/1/2 131/1/2 133/1/2
f 134/1/2 135/1/2 136/1/2
f 136/1/2 135/1/2 137/1/2
f 137/1/2 135/1/2 138/1/2
f 137/2/2 138/2/2 139/2/2
f 139/2/2 138/2/2 140/2/2
f 140/2/2 138/2/2 141/2/2
f 141/2/2 138/2/2 142/2/2
f 145/2/3 144/2/3 143/2/3
f 146/2/3 144/2/3 145/2/3
f 149/2/3 148/2/3 147/2/3
f 150/2/3 148/2/3 149/2/3
f 154/2/3 152/2/3 151/2/3
f 154/2/3 153/2/3 152/2/3
f 155/2/3 153/2/3 154/2/3
f 158/2/3 157/2/3 156/2/3
f 159/2/3 157/2/3 158/2/3
f 160/2/3 157/2/3 159/2/3
f 163/1/3 162/1/3 161/1/3
f 164/1/3 162/1/3 163/1/3
f 167/1/3 166/1/3 165/1/3
f 168/1/3 166/1/3 167/1/3
f 172/1/3 170/1/3 169/1/3
f 172/1/3 171/1/3 170/1/3
f 173/1/3 171/1/3 172/1/3
f 174/1/3 172/1/3 169/1/3
f 176/1/3 174/1/3 169/1/3
f 176/1/3 175/1/3 174/1/3
f 177/1/3 175/1/3 176/1/3
f 178/1/3 175/1/3 177/1/3
f 181/1/3 180/1/3 179/1/3
f 182/1/3 180/1/3 181/1/3
f 185/1/3 184/1/3 183/1/3
f 186/1/3 184/1/3 185/1/3
f 189/1/3 188/1/3 187/1/3
f 190/1/3 188/1/3 189/1/3
f 194/1/3 192/1/3 191/1/3
f 195/1/3 192/1/3 194/1/3
f 195/1/3 194/1/3 193/1/3
f 196/1/3 192/1/3 195/1/3
f 197/1/3 192/1/3 196/1/3
f 198/1/3 195/1/3 193/1/3
f 199/2/3 196/2/3 195/2/3
f 199/1/3 195/1/3 198/1/3
f 200/2/3 196/2/3 199/2/3
f 204/1/3 202/1/3 201/1/3
f 205/2/3 203/2/3 202/2/3
f 205/1/3 202/1/3 204/1/3
f 206/2/3 203/2/3 205/2/3
f 208/1/3 206/1/3 205/1/3
f 208/1/3 207/1/3 206/1/3
f 209/1/3 207/1/3 208/1/3
f 212/2/3 211/2/3 210/2/3
f 213/2/3 211/2/3 212/2/3
f 216/2/3 215/2/3 214/2/3
f 217/2/3 215/2/3 216/2/3
f 220/2/3 219/2/3 218/2/3
f 221/2/3 219/2/3 220/2/3
f 224/2/3 223/2/3 222/2/3
f 225/2/3 223/2/3 224/2/3
f 226/1/4 227/1/4 228/1/4
f 228/1/4 227/1/4 229/1/4
f 230/1/4 231/1/4 232/1/4
f 232/1/4 231/1/4 233/1/4
f 234/1/4 235/1/4 236/1/4
f 236/1/4 235/1/4 237/1/4
f 238/1/4 239/1/4 240/1/4
f 240/1/4 239/1/4 241/1/4
f 242/1/4 243/1/4 244/1/4
f 242/1/4 244/1/4 246/1/4
f 244/2/4 245/2/4 246/2/4
f 246/2/4 245/2/4 247/2/4
f 242/1/4 246/1/4 248/1/4
f 246/1/4 247/1/4 248/1/4
f 248/1/4 247/1/4 249/1/4
f 242/1/4 248/1/4 250/1/4
f 248/2/4 249/2/4 250/2/4
f 250/2/4 249/2/4 251/2/4
f 242/1/4 250/1/4 252/1/4
f 250/1/4 251/1/4 252/1/4
f 252/1/4 251/1/4 253/1/4
f 242/1/4 252/1/4 254/1/4
f 252/2/4 253/2/4 255/2/4
f 254/1/4 252/1/4 255/1/4
f 255/2/4 253/2/4 256/2/4
f 257/1/4 258/1/4 259/1/4
f 259/1/4 258/1/4 260/1/4
f 261/1/4 262/1/4 263/1/4
f 263/1/4 262/1/4 264/1/4
f 265/1/4 266/1/4 268/1/4
f 266/2/4 267/2/4 269/2/4
f 268/1/4 266/1/4 269/1/4
f 269/2/4 267/2/4 270/2/4
f 271/1/4 272/1/4 274/1/4
f 272/2/4 273/2/4 275/2/4
f 274/1/4 272/1/4 275/1/4
f 275/2/4 273/2/4 276/2/4
f 282/2/5 278/2/5 277/2/5
f 283/2/5 278/2/5 282/2/5
f 284/2/5 280/2/5 279/2/5
f 285/2/5 280/2/5 284/2/5
f 287/1/5 283/1/5 282/1/5
f 287/1/5 282/1/5 281/1/5
f 288/1/5 283/1/5 287/1/5
f 289/1/5 283/1/5 288/1/5
f 290/1/5 286/1/5 285/1/5
f 290/1/5 285/1/5 284/1/5
f 291/1/5 286/1/5 290/1/5
f 292/1/5 286/1/5 291/1/5
f 293/1/5 289/1/5 288/1/5
f 293/1/5 291/1/5 290/1/5
f 293/1/5 290/1/5 289/1/5
f 294/1/5 291/1/5 293/1/5
f 295/1/5 293/1/5 288/1/5
f 296/1/5 293/1/5 295/1/5
f 297/2/5 294/2/5 293/2/5
f 297/1/5 293/1/5 296/1/5
f 298/2/5 294/2/5 297/2/5
f 300/2/5 296/2/5 295/2/5
f 301/1/5 297/1/5 296/1/5
f 301/1/5 298/1/5 297/1/5
f 301/2/5 296/2/5 300/2/5
f 302/1/5 298/1/5 301/1/5
f 304/1/5 302/1/5 301/1/5
f 304/1/5 303/1/5 302/1/5
f 304/1/5 300/1/5 299/1/5
f 304/1/5 301/1/5 300/1/5
f 305/1/5 303/1/5 304/1/5
f 310/2/5 307/2/5 306/2/5
f 311/2/5 307/2/5 310/2/5
f 312/2/5 309/2/5 308/2/5
f 313/2/5 309/2/5 312/2/5
f 314/1/5 311/1/5 310/1/5
f 315/1/5 311/1/5 314/1/5
f 316/1/5 313/1/5 312/1/5
f 317/1/5 313/1/5 316/1/5
f 322/1/5 319/1/5 318/1/5
f 324/1/5 321/1/5 320/1/5
f 325/1/5 323/1/5 322/1/5
f 325/1/5 322/1/5 318/1/5
f 326/1/5 323/1/5 325/1/5
f 327/1/5 321/1/5 324/1/5
f 328/1/5 321/1/5 327/1/5
f 329/1/5 325/1/5 318/1/5
f 330/1/5 325/1/5 329/1/5
f 331/1/5 321/1/5 328/1/5
f 332/1/5 321/1/5 331/1/5
f 333/1/6 334/1/6 335/1/6
f 335/1/6 334/1/6 336/1/6
f 337/1/6 338/1/6 341/1/6
f 341/1/6 338/1/6 342/1/6
f 339/1/6 340/1/6 343/1/6
f 343/1/6 340/1/6 344/1/6
f 345/2/6 346/2/6 349/2/6
f 349/2/6 346/2/6 350/2/6
f 347/2/6 348/2/6 353/2/6
f 353/2/6 348/2/6 354/2/6
f 349/1/6 350/1/6 355/1/6
f 355/1/6 350/1/6 356/1/6
f 350/2/6 351/2/6 357/2/6
f 356/1/6 350/1/6 357/1/6
f 357/2/6 351/2/6 358/2/6
f 352/2/6 353/2/6 361/2/6
f 353/1/6 354/1/6 362/1/6
f 361/2/6 353/2/6 362/2/6
f 362/1/6 354/1/6 363/1/6
f 363/1/6 354/1/6 364/1/6
f 358/1/6 359/1/6 365/1/6
f 356/1/6 357/1/6 365/1/6
f 357/1/6 358/1/6 365/1/6
f 362/1/6 363/1/6 366/1/6
f 360/1/6 361/1/6 366/1/6
f 361/1/6 362/1/6 366/1/6
f 356/1/6 365/1/6 367/1/6
f 365/1/6 366/1/6 367/1/6
f 367/1/6 366/1/6 368/1/6
f 366/1/6 363/1/6 369/1/6
f 368/1/6 366/1/6 369/1/6
f 369/1/6 363/1/6 370/1/6
f 356/1/6 367/1/6 371/1/6
f 368/1/6 369/1/6 372/1/6
f 372/1/6 369/1/6 373/1/6
f 370/1/6 363/1/6 374/1/6
f 372/1/6 373/1/6 376/1/6
f 373/1/6 374/1/6 376/1/6
f 356/1/6 371/1/6 376/1/6
f 371/1/6 372/1/6 376/1/6
f 376/1/6 374/1/6 377/1/6
f 377/1/6 374/1/6 378/1/6
f 374/1/6 363/1/6 379/1/6
f 378/1/6 374/1/6 379/1/6
f 375/2/6 376/2/6 381/2/6
f 376/1/6 377/1/6 382/1/6
f 381/2/6 376/2/6 382/2/6
f 377/2/6 378/2/6 383/2/6
f 382/1/6 377/1/6 383/1/6
f 378/1/6 379/1/6 384/1/6
f 383/2/6 378/2/6 384/2/6
f 379/2/6 380/2/6 385/2/6
f 384/1/6 379/1/6 385/1/6
f 385/2/6 380/2/6 386/2/6
f 387/1/6 388/1/6 391/1/6
f 391/1/6 388/1/6 392/1/6
f 389/1/6 390/1/6 393/1/6
f 393/1/6 390/1/6 394/1/6
f 392/1/6 388/1/6 395/1/6
f 395/1/6 388/1/6 396/1/6
f 389/1/6 393/1/6 397/1/6
f 397/1/6 393/1/6 398/1/6
f 399/2/6 400/2/6 403/2/6
f 403/2/6 400/2/6 404/2/6
f 401/2/6 402/2/6 405/2/6
f 405/2/6 402/2/6 406/2/6
f 407/2/6 408/2/6 411/2/6
f 411/2/6 408/2/6 412/2/6
f 409/2/6 410/2/6 413/2/6
f 413/2/6 410/2/6 414/2/6
