# MagicaVoxel @ Ephtracy

# group
o 

# material
mtllib lion.mtl
usemtl palette

# normals
vn -1 0 0
vn 1 0 0
vn 0 0 1
vn 0 0 -1
vn 0 -1 0
vn 0 1 0

# texcoords
vt 0.0683594 0.5
vt 0.0878906 0.5
vt 0.115234 0.5
vt 0.990234 0.5

# verts
v -0.5 1.2 0.6
v -0.5 1.2 0.5
v -0.5 1.4 0.6
v -0.5 1.4 0.5
v -0.4 0.9 0.7
v -0.4 0.9 0.4
v -0.4 1.2 0.6
v -0.4 1.2 0.5
v -0.4 1.4 0.6
v -0.4 1.4 0.5
v -0.4 1.6 0.7
v -0.4 1.6 0.4
v -0.3 0 0.6
v -0.3 0 0.3
v -0.3 0 -0.3
v -0.3 0 -0.6
v -0.3 0.1 0.6
v -0.3 0.1 0.5
v -0.3 0.1 0.3
v -0.3 0.1 -0.3
v -0.3 0.1 -0.4
v -0.3 0.1 -0.6
v -0.3 0.5 0.3
v -0.3 0.5 -0.4
v -0.3 0.8 0.7
v -0.3 0.8 0.5
v -0.3 0.8 0.4
v -0.3 0.9 0.8
v -0.3 0.9 0.7
v -0.3 0.9 0.4
v -0.3 0.9 0.3
v -0.3 0.9 -0.5
v -0.3 0.9 -0.6
v -0.3 1 0.3
v -0.3 1 -0.5
v -0.3 1.6 0.8
v -0.3 1.6 0.7
v -0.3 1.6 0.4
v -0.3 1.6 0.3
v -0.3 1.7 0.7
v -0.3 1.7 0.4
v -0.2 0.6 -0.6
v -0.2 0.6 -0.7
v -0.2 0.9 -0.5
v -0.2 0.9 -0.6
v -0.2 0.9 -0.7
v -0.2 1 1.1
v -0.2 1 0.8
v -0.2 1 0.3
v -0.2 1 -0.5
v -0.2 1 -0.6
v -0.2 1.1 0.3
v -0.2 1.1 -0.5
v -0.2 1.2 1.1
v -0.2 1.2 0.9
v -0.2 1.5 0.9
v -0.2 1.5 0.8
v 0 0.6 -0.8
v 0 0.6 -1
v 0 0.6 -1.1
v 0 0.7 -0.7
v 0 0.7 -0.8
v 0 0.7 -0.9
v 0 0.7 -1
v 0 0.7 -1.1
v 0 0.8 -0.7
v 0 0.8 -0.9
v 0.2 0 0.6
v 0.2 0 0.3
v 0.2 0 -0.3
v 0.2 0 -0.6
v 0.2 0.1 0.6
v 0.2 0.1 0.5
v 0.2 0.1 0.3
v 0.2 0.1 -0.3
v 0.2 0.1 -0.4
v 0.2 0.1 -0.6
v 0.2 0.5 0.5
v 0.2 0.5 0.3
v 0.2 0.5 -0.4
v 0.2 0.5 -0.6
v 0.3 0.8 0.2
v 0.3 0.8 0.1
v 0.3 0.9 0.2
v 0.3 0.9 0.1
v -0.1 0 0.6
v -0.1 0 0.3
v -0.1 0 -0.3
v -0.1 0 -0.6
v -0.1 0.1 0.6
v -0.1 0.1 0.5
v -0.1 0.1 0.3
v -0.1 0.1 -0.3
v -0.1 0.1 -0.4
v -0.1 0.1 -0.6
v -0.1 0.5 0.5
v -0.1 0.5 0.3
v -0.1 0.5 -0.4
v -0.1 0.5 -0.6
v 0.1 0.6 -0.8
v 0.1 0.6 -1
v 0.1 0.6 -1.1
v 0.1 0.7 -0.7
v 0.1 0.7 -0.8
v 0.1 0.7 -0.9
v 0.1 0.7 -1
v 0.1 0.7 -1.1
v 0.1 0.8 -0.7
v 0.1 0.8 -0.9
v 0.2 0.8 0.2
v 0.2 0.8 0.1
v 0.2 0.9 0.2
v 0.2 0.9 0.1
v 0.3 0.6 -0.6
v 0.3 0.6 -0.7
v 0.3 0.9 -0.5
v 0.3 0.9 -0.6
v 0.3 0.9 -0.7
v 0.3 1 1.1
v 0.3 1 0.8
v 0.3 1 0.3
v 0.3 1 -0.5
v 0.3 1 -0.6
v 0.3 1.1 0.3
v 0.3 1.1 -0.5
v 0.3 1.2 1.1
v 0.3 1.2 0.9
v 0.3 1.5 0.9
v 0.3 1.5 0.8
v 0.4 0 0.6
v 0.4 0 0.3
v 0.4 0 -0.3
v 0.4 0 -0.6
v 0.4 0.1 0.6
v 0.4 0.1 0.5
v 0.4 0.1 0.3
v 0.4 0.1 -0.3
v 0.4 0.1 -0.4
v 0.4 0.1 -0.6
v 0.4 0.5 0.3
v 0.4 0.5 -0.4
v 0.4 0.8 0.7
v 0.4 0.8 0.5
v 0.4 0.8 0.4
v 0.4 0.9 0.8
v 0.4 0.9 0.7
v 0.4 0.9 0.4
v 0.4 0.9 0.3
v 0.4 0.9 -0.5
v 0.4 0.9 -0.6
v 0.4 1 0.3
v 0.4 1 -0.5
v 0.4 1.6 0.8
v 0.4 1.6 0.7
v 0.4 1.6 0.4
v 0.4 1.7 0.7
v 0.4 1.7 0.4
v 0.5 0.9 0.7
v 0.5 0.9 0.3
v 0.5 1.2 0.6
v 0.5 1.2 0.5
v 0.5 1.4 0.6
v 0.5 1.4 0.5
v 0.5 1.6 0.7
v 0.5 1.6 0.3
v 0.6 1.2 0.6
v 0.6 1.2 0.5
v 0.6 1.4 0.6
v 0.6 1.4 0.5
v -0.2 1 1.1
v -0.2 1.2 1.1
v -0.1 1.1 1.1
v -0.1 1.2 1.1
v 0.2 1.1 1.1
v 0.2 1.2 1.1
v 0.3 1 1.1
v 0.3 1.2 1.1
v -0.2 1.2 0.9
v -0.2 1.5 0.9
v -0.1 1.3 0.9
v -0.1 1.4 0.9
v 0 1.3 0.9
v 0 1.4 0.9
v 0.1 1.3 0.9
v 0.1 1.4 0.9
v 0.2 1.3 0.9
v 0.2 1.4 0.9
v 0.3 1.2 0.9
v 0.3 1.5 0.9
v -0.3 0.9 0.8
v -0.3 1.6 0.8
v -0.2 1 0.8
v -0.2 1.5 0.8
v 0.3 1 0.8
v 0.3 1.5 0.8
v 0.4 0.9 0.8
v 0.4 1.6 0.8
v -0.4 0.9 0.7
v -0.4 1.6 0.7
v -0.3 0.8 0.7
v -0.3 0.9 0.7
v -0.3 1.6 0.7
v -0.3 1.7 0.7
v 0.4 0.8 0.7
v 0.4 0.9 0.7
v 0.4 1.6 0.7
v 0.4 1.7 0.7
v 0.5 0.9 0.7
v 0.5 1.6 0.7
v -0.5 1.2 0.6
v -0.5 1.4 0.6
v -0.4 1.2 0.6
v -0.4 1.4 0.6
v -0.3 0 0.6
v -0.3 0.1 0.6
v -0.1 0 0.6
v -0.1 0.1 0.6
v 0.2 0 0.6
v 0.2 0.1 0.6
v 0.4 0 0.6
v 0.4 0.1 0.6
v 0.5 1.2 0.6
v 0.5 1.4 0.6
v 0.6 1.2 0.6
v 0.6 1.4 0.6
v -0.3 0.1 0.5
v -0.3 0.8 0.5
v -0.1 0.1 0.5
v -0.1 0.5 0.5
v 0.2 0.1 0.5
v 0.2 0.5 0.5
v 0.4 0.1 0.5
v 0.4 0.8 0.5
v 0.2 0.8 0.1
v 0.2 0.9 0.1
v 0.3 0.8 0.1
v 0.3 0.9 0.1
v -0.3 0 -0.3
v -0.3 0.1 -0.3
v -0.1 0 -0.3
v -0.1 0.1 -0.3
v 0.2 0 -0.3
v 0.2 0.1 -0.3
v 0.4 0 -0.3
v 0.4 0.1 -0.3
v -0.3 0.1 -0.4
v -0.3 0.5 -0.4
v -0.1 0.1 -0.4
v -0.1 0.5 -0.4
v 0.2 0.1 -0.4
v 0.2 0.5 -0.4
v 0.4 0.1 -0.4
v 0.4 0.5 -0.4
v 0 0.6 -0.8
v 0 0.7 -0.8
v 0.1 0.6 -0.8
v 0.1 0.7 -0.8
v -0.5 1.2 0.5
v -0.5 1.4 0.5
v -0.4 1.2 0.5
v -0.4 1.4 0.5
v 0.5 1.2 0.5
v 0.5 1.4 0.5
v 0.6 1.2 0.5
v 0.6 1.4 0.5
v -0.4 0.9 0.4
v -0.4 1.6 0.4
v -0.3 0.9 0.4
v -0.3 1.6 0.4
v -0.3 1.7 0.4
v 0.4 1.6 0.4
v 0.4 1.7 0.4
v -0.3 0 0.3
v -0.3 0.1 0.3
v -0.3 0.5 0.3
v -0.3 1 0.3
v -0.3 1.6 0.3
v -0.2 1 0.3
v -0.2 1.1 0.3
v -0.1 0 0.3
v -0.1 0.1 0.3
v -0.1 0.5 0.3
v 0.2 0 0.3
v 0.2 0.1 0.3
v 0.2 0.5 0.3
v 0.3 1 0.3
v 0.3 1.1 0.3
v 0.4 0 0.3
v 0.4 0.1 0.3
v 0.4 0.5 0.3
v 0.4 0.9 0.3
v 0.4 1 0.3
v 0.5 0.9 0.3
v 0.5 1.6 0.3
v 0.2 0.8 0.2
v 0.2 0.9 0.2
v 0.3 0.8 0.2
v 0.3 0.9 0.2
v -0.3 0.9 -0.5
v -0.3 1 -0.5
v -0.2 0.9 -0.5
v -0.2 1 -0.5
v -0.2 1.1 -0.5
v 0.3 0.9 -0.5
v 0.3 1 -0.5
v 0.3 1.1 -0.5
v 0.4 0.9 -0.5
v 0.4 1 -0.5
v -0.3 0 -0.6
v -0.3 0.1 -0.6
v -0.3 0.9 -0.6
v -0.2 0.6 -0.6
v -0.2 0.9 -0.6
v -0.2 1 -0.6
v -0.1 0 -0.6
v -0.1 0.1 -0.6
v -0.1 0.5 -0.6
v 0.2 0 -0.6
v 0.2 0.1 -0.6
v 0.2 0.5 -0.6
v 0.3 0.6 -0.6
v 0.3 0.9 -0.6
v 0.3 1 -0.6
v 0.4 0 -0.6
v 0.4 0.1 -0.6
v 0.4 0.9 -0.6
v -0.2 0.6 -0.7
v -0.2 0.9 -0.7
v 0 0.7 -0.7
v 0 0.8 -0.7
v 0.1 0.7 -0.7
v 0.1 0.8 -0.7
v 0.3 0.6 -0.7
v 0.3 0.9 -0.7
v 0 0.7 -0.9
v 0 0.8 -0.9
v 0.1 0.7 -0.9
v 0.1 0.8 -0.9
v 0 0.6 -1.1
v 0 0.7 -1.1
v 0.1 0.6 -1.1
v 0.1 0.7 -1.1
v -0.3 0 0.6
v -0.1 0 0.6
v 0.2 0 0.6
v 0.4 0 0.6
v -0.3 0 0.3
v -0.1 0 0.3
v 0.2 0 0.3
v 0.4 0 0.3
v -0.3 0 -0.3
v -0.1 0 -0.3
v 0.2 0 -0.3
v 0.4 0 -0.3
v -0.3 0 -0.6
v -0.1 0 -0.6
v 0.2 0 -0.6
v 0.4 0 -0.6
v -0.1 0.5 0.5
v 0.2 0.5 0.5
v -0.3 0.5 0.3
v -0.1 0.5 0.3
v 0.2 0.5 0.3
v 0.4 0.5 0.3
v -0.3 0.5 -0.4
v -0.1 0.5 -0.4
v 0.2 0.5 -0.4
v 0.4 0.5 -0.4
v -0.1 0.5 -0.6
v 0.2 0.5 -0.6
v -0.2 0.6 -0.6
v 0.3 0.6 -0.6
v -0.2 0.6 -0.7
v 0.3 0.6 -0.7
v 0 0.6 -0.8
v 0.1 0.6 -0.8
v 0 0.6 -1
v 0.1 0.6 -1
v 0 0.6 -1.1
v 0.1 0.6 -1.1
v 0 0.7 -0.7
v 0.1 0.7 -0.7
v 0 0.7 -0.8
v 0.1 0.7 -0.8
v -0.3 0.8 0.7
v 0.4 0.8 0.7
v -0.3 0.8 0.5
v 0.4 0.8 0.5
v -0.3 0.9 0.8
v 0.4 0.9 0.8
v -0.4 0.9 0.7
v -0.3 0.9 0.7
v 0.4 0.9 0.7
v 0.5 0.9 0.7
v -0.4 0.9 0.4
v -0.3 0.9 0.4
v 0.4 0.9 0.4
v 0.4 0.9 0.3
v 0.5 0.9 0.3
v 0.2 0.9 0.2
v 0.3 0.9 0.2
v 0.2 0.9 0.1
v 0.3 0.9 0.1
v -0.2 1 1.1
v 0.3 1 1.1
v -0.2 1 0.8
v 0.3 1 0.8
v -0.5 1.2 0.6
v -0.4 1.2 0.6
v 0.5 1.2 0.6
v 0.6 1.2 0.6
v -0.5 1.2 0.5
v -0.4 1.2 0.5
v 0.5 1.2 0.5
v 0.6 1.2 0.5
v -0.3 0.1 0.6
v -0.1 0.1 0.6
v 0.2 0.1 0.6
v 0.4 0.1 0.6
v -0.3 0.1 0.5
v -0.1 0.1 0.5
v 0.2 0.1 0.5
v 0.4 0.1 0.5
v -0.3 0.1 -0.3
v -0.1 0.1 -0.3
v 0.2 0.1 -0.3
v 0.4 0.1 -0.3
v -0.3 0.1 -0.4
v -0.1 0.1 -0.4
v 0.2 0.1 -0.4
v 0.4 0.1 -0.4
v 0 0.7 -0.9
v 0.1 0.7 -0.9
v 0 0.7 -1
v 0.1 0.7 -1
v 0 0.7 -1.1
v 0.1 0.7 -1.1
v 0.2 0.8 0.2
v 0.3 0.8 0.2
v 0.2 0.8 0.1
v 0.3 0.8 0.1
v 0 0.8 -0.7
v 0.1 0.8 -0.7
v 0 0.8 -0.9
v 0.1 0.8 -0.9
v -0.3 0.9 -0.5
v -0.2 0.9 -0.5
v 0.3 0.9 -0.5
v 0.4 0.9 -0.5
v -0.3 0.9 -0.6
v -0.2 0.9 -0.6
v 0.3 0.9 -0.6
v 0.4 0.9 -0.6
v -0.2 0.9 -0.7
v 0.3 0.9 -0.7
v -0.3 1 0.3
v -0.2 1 0.3
v 0.3 1 0.3
v 0.4 1 0.3
v -0.3 1 -0.5
v -0.2 1 -0.5
v 0.3 1 -0.5
v 0.4 1 -0.5
v -0.2 1 -0.6
v 0.3 1 -0.6
v -0.2 1.1 0.3
v 0.3 1.1 0.3
v -0.2 1.1 -0.5
v 0.3 1.1 -0.5
v -0.2 1.2 1.1
v -0.1 1.2 1.1
v 0.2 1.2 1.1
v 0.3 1.2 1.1
v -0.1 1.2 1
v 0.2 1.2 1
v -0.2 1.2 0.9
v 0.3 1.2 0.9
v -0.5 1.4 0.6
v -0.4 1.4 0.6
v 0.5 1.4 0.6
v 0.6 1.4 0.6
v -0.5 1.4 0.5
v -0.4 1.4 0.5
v 0.5 1.4 0.5
v 0.6 1.4 0.5
v -0.2 1.5 0.9
v 0.3 1.5 0.9
v -0.2 1.5 0.8
v 0.3 1.5 0.8
v -0.3 1.6 0.8
v 0.4 1.6 0.8
v -0.4 1.6 0.7
v -0.3 1.6 0.7
v 0.4 1.6 0.7
v 0.5 1.6 0.7
v -0.4 1.6 0.4
v -0.3 1.6 0.4
v 0.4 1.6 0.4
v -0.3 1.6 0.3
v 0.5 1.6 0.3
v -0.3 1.7 0.7
v 0.4 1.7 0.7
v -0.3 1.7 0.4
v 0.4 1.7 0.4

# faces
f 3/1/1 2/1/1 1/1/1
f 4/1/1 2/1/1 3/1/1
f 7/3/1 6/3/1 5/3/1
f 8/3/1 6/3/1 7/3/1
f 9/3/1 7/3/1 5/3/1
f 10/3/1 6/3/1 8/3/1
f 11/3/1 9/3/1 5/3/1
f 11/3/1 10/3/1 9/3/1
f 12/3/1 6/3/1 10/3/1
f 12/3/1 10/3/1 11/3/1
f 17/2/1 14/2/1 13/2/1
f 18/2/1 14/2/1 17/2/1
f 19/2/1 14/2/1 18/2/1
f 20/2/1 16/2/1 15/2/1
f 21/2/1 16/2/1 20/2/1
f 22/2/1 16/2/1 21/2/1
f 23/1/1 19/1/1 18/1/1
f 24/1/1 22/1/1 21/1/1
f 26/1/1 23/1/1 18/1/1
f 26/1/1 24/1/1 23/1/1
f 27/1/1 24/1/1 26/1/1
f 29/3/1 26/3/1 25/3/1
f 29/3/1 27/3/1 26/3/1
f 30/1/1 24/1/1 27/1/1
f 30/3/1 27/3/1 29/3/1
f 31/1/1 24/1/1 30/1/1
f 32/1/1 22/1/1 24/1/1
f 32/1/1 24/1/1 31/1/1
f 33/1/1 22/1/1 32/1/1
f 34/3/1 31/3/1 30/3/1
f 34/1/1 32/1/1 31/1/1
f 35/1/1 32/1/1 34/1/1
f 36/3/1 29/3/1 28/3/1
f 37/3/1 29/3/1 36/3/1
f 38/3/1 34/3/1 30/3/1
f 39/3/1 34/3/1 38/3/1
f 40/3/1 38/3/1 37/3/1
f 41/3/1 38/3/1 40/3/1
f 45/1/1 43/1/1 42/1/1
f 46/1/1 43/1/1 45/1/1
f 50/1/1 45/1/1 44/1/1
f 51/1/1 45/1/1 50/1/1
f 52/1/1 50/1/1 49/1/1
f 53/1/1 50/1/1 52/1/1
f 54/1/1 48/1/1 47/1/1
f 55/1/1 48/1/1 54/1/1
f 56/1/1 48/1/1 55/1/1
f 57/1/1 48/1/1 56/1/1
f 62/1/1 59/1/1 58/1/1
f 63/1/1 59/1/1 62/1/1
f 64/3/1 60/3/1 59/3/1
f 64/1/1 59/1/1 63/1/1
f 65/3/1 60/3/1 64/3/1
f 66/1/1 63/1/1 62/1/1
f 66/1/1 62/1/1 61/1/1
f 67/1/1 63/1/1 66/1/1
f 72/2/1 69/2/1 68/2/1
f 73/2/1 69/2/1 72/2/1
f 74/2/1 69/2/1 73/2/1
f 75/2/1 71/2/1 70/2/1
f 76/2/1 71/2/1 75/2/1
f 77/2/1 71/2/1 76/2/1
f 78/1/1 74/1/1 73/1/1
f 79/1/1 74/1/1 78/1/1
f 80/1/1 77/1/1 76/1/1
f 81/1/1 77/1/1 80/1/1
f 84/1/1 83/1/1 82/1/1
f 85/1/1 83/1/1 84/1/1
f 86/2/2 87/2/2 90/2/2
f 90/2/2 87/2/2 91/2/2
f 91/2/2 87/2/2 92/2/2
f 88/2/2 89/2/2 93/2/2
f 93/2/2 89/2/2 94/2/2
f 94/2/2 89/2/2 95/2/2
f 91/1/2 92/1/2 96/1/2
f 96/1/2 92/1/2 97/1/2
f 94/1/2 95/1/2 98/1/2
f 98/1/2 95/1/2 99/1/2
f 100/1/2 101/1/2 104/1/2
f 104/1/2 101/1/2 105/1/2
f 101/3/2 102/3/2 106/3/2
f 105/1/2 101/1/2 106/1/2
f 106/3/2 102/3/2 107/3/2
f 104/1/2 105/1/2 108/1/2
f 103/1/2 104/1/2 108/1/2
f 108/1/2 105/1/2 109/1/2
f 110/1/2 111/1/2 112/1/2
f 112/1/2 111/1/2 113/1/2
f 114/1/2 115/1/2 117/1/2
f 117/1/2 115/1/2 118/1/2
f 116/1/2 117/1/2 122/1/2
f 122/1/2 117/1/2 123/1/2
f 121/1/2 122/1/2 124/1/2
f 124/1/2 122/1/2 125/1/2
f 119/1/2 120/1/2 126/1/2
f 126/1/2 120/1/2 127/1/2
f 127/1/2 120/1/2 128/1/2
f 128/1/2 120/1/2 129/1/2
f 130/2/2 131/2/2 134/2/2
f 134/2/2 131/2/2 135/2/2
f 135/2/2 131/2/2 136/2/2
f 132/2/2 133/2/2 137/2/2
f 137/2/2 133/2/2 138/2/2
f 138/2/2 133/2/2 139/2/2
f 135/1/2 136/1/2 140/1/2
f 138/1/2 139/1/2 141/1/2
f 135/1/2 140/1/2 143/1/2
f 140/1/2 141/1/2 143/1/2
f 143/1/2 141/1/2 144/1/2
f 142/3/2 143/3/2 146/3/2
f 143/3/2 144/3/2 146/3/2
f 144/1/2 141/1/2 147/1/2
f 146/3/2 144/3/2 147/3/2
f 147/1/2 141/1/2 148/1/2
f 141/1/2 139/1/2 149/1/2
f 148/1/2 141/1/2 149/1/2
f 149/1/2 139/1/2 150/1/2
f 148/1/2 149/1/2 151/1/2
f 151/1/2 149/1/2 152/1/2
f 145/3/2 146/3/2 153/3/2
f 153/3/2 146/3/2 154/3/2
f 154/3/2 155/3/2 156/3/2
f 156/3/2 155/3/2 157/3/2
f 158/3/2 159/3/2 160/3/2
f 160/3/2 159/3/2 161/3/2
f 158/3/2 160/3/2 162/3/2
f 161/3/2 159/3/2 163/3/2
f 158/3/2 162/3/2 164/3/2
f 162/3/2 163/3/2 164/3/2
f 163/3/2 159/3/2 165/3/2
f 164/3/2 163/3/2 165/3/2
f 166/1/2 167/1/2 168/1/2
f 168/1/2 167/1/2 169/1/2
f 172/1/3 171/1/3 170/1/3
f 173/1/3 171/1/3 172/1/3
f 174/1/3 172/1/3 170/1/3
f 174/2/3 173/2/3 172/2/3
f 175/2/3 173/2/3 174/2/3
f 176/1/3 174/1/3 170/1/3
f 176/1/3 175/1/3 174/1/3
f 177/1/3 175/1/3 176/1/3
f 180/1/3 179/1/3 178/1/3
f 181/1/3 179/1/3 180/1/3
f 182/1/3 180/1/3 178/1/3
f 182/4/3 181/4/3 180/4/3
f 183/1/3 179/1/3 181/1/3
f 183/4/3 181/4/3 182/4/3
f 184/1/3 182/1/3 178/1/3
f 184/1/3 183/1/3 182/1/3
f 185/1/3 179/1/3 183/1/3
f 185/1/3 183/1/3 184/1/3
f 186/1/3 184/1/3 178/1/3
f 186/4/3 185/4/3 184/4/3
f 187/1/3 179/1/3 185/1/3
f 187/4/3 185/4/3 186/4/3
f 188/1/3 186/1/3 178/1/3
f 188/1/3 187/1/3 186/1/3
f 189/1/3 179/1/3 187/1/3
f 189/1/3 187/1/3 188/1/3
f 192/3/3 191/3/3 190/3/3
f 193/3/3 191/3/3 192/3/3
f 194/3/3 192/3/3 190/3/3
f 195/3/3 191/3/3 193/3/3
f 196/3/3 194/3/3 190/3/3
f 196/3/3 195/3/3 194/3/3
f 197/3/3 191/3/3 195/3/3
f 197/3/3 195/3/3 196/3/3
f 201/3/3 199/3/3 198/3/3
f 202/3/3 199/3/3 201/3/3
f 204/3/3 201/3/3 200/3/3
f 205/3/3 201/3/3 204/3/3
f 206/3/3 203/3/3 202/3/3
f 207/3/3 203/3/3 206/3/3
f 208/3/3 206/3/3 205/3/3
f 209/3/3 206/3/3 208/3/3
f 212/1/3 211/1/3 210/1/3
f 213/1/3 211/1/3 212/1/3
f 216/2/3 215/2/3 214/2/3
f 217/2/3 215/2/3 216/2/3
f 220/2/3 219/2/3 218/2/3
f 221/2/3 219/2/3 220/2/3
f 224/1/3 223/1/3 222/1/3
f 225/1/3 223/1/3 224/1/3
f 228/1/3 227/1/3 226/1/3
f 229/1/3 227/1/3 228/1/3
f 231/1/3 227/1/3 229/1/3
f 232/1/3 231/1/3 230/1/3
f 233/1/3 227/1/3 231/1/3
f 233/1/3 231/1/3 232/1/3
f 236/1/3 235/1/3 234/1/3
f 237/1/3 235/1/3 236/1/3
f 240/2/3 239/2/3 238/2/3
f 241/2/3 239/2/3 240/2/3
f 244/2/3 243/2/3 242/2/3
f 245/2/3 243/2/3 244/2/3
f 248/1/3 247/1/3 246/1/3
f 249/1/3 247/1/3 248/1/3
f 252/1/3 251/1/3 250/1/3
f 253/1/3 251/1/3 252/1/3
f 256/1/3 255/1/3 254/1/3
f 257/1/3 255/1/3 256/1/3
f 258/1/4 259/1/4 260/1/4
f 260/1/4 259/1/4 261/1/4
f 262/1/4 263/1/4 264/1/4
f 264/1/4 263/1/4 265/1/4
f 266/3/4 267/3/4 268/3/4
f 268/3/4 267/3/4 269/3/4
f 269/3/4 270/3/4 271/3/4
f 271/3/4 270/3/4 272/3/4
f 276/3/4 277/3/4 278/3/4
f 278/3/4 277/3/4 279/3/4
f 273/2/4 274/2/4 280/2/4
f 274/1/4 275/1/4 281/1/4
f 280/2/4 274/2/4 281/2/4
f 281/1/4 275/1/4 282/1/4
f 279/3/4 277/3/4 287/3/4
f 283/2/4 284/2/4 288/2/4
f 284/1/4 285/1/4 289/1/4
f 288/2/4 284/2/4 289/2/4
f 289/1/4 285/1/4 290/1/4
f 286/3/4 287/3/4 292/3/4
f 291/3/4 292/3/4 293/3/4
f 292/3/4 287/3/4 294/3/4
f 293/3/4 292/3/4 294/3/4
f 287/3/4 277/3/4 294/3/4
f 295/1/4 296/1/4 297/1/4
f 297/1/4 296/1/4 298/1/4
f 299/1/4 300/1/4 301/1/4
f 301/1/4 300/1/4 302/1/4
f 302/1/4 303/1/4 305/1/4
f 305/1/4 303/1/4 306/1/4
f 304/1/4 305/1/4 307/1/4
f 307/1/4 305/1/4 308/1/4
f 310/1/4 311/1/4 312/1/4
f 312/1/4 311/1/4 313/1/4
f 309/2/4 310/2/4 315/2/4
f 310/1/4 312/1/4 316/1/4
f 315/2/4 310/2/4 316/2/4
f 316/1/4 312/1/4 317/1/4
f 317/1/4 312/1/4 320/1/4
f 320/1/4 312/1/4 321/1/4
f 319/1/4 320/1/4 321/1/4
f 313/1/4 314/1/4 322/1/4
f 322/1/4 314/1/4 323/1/4
f 318/2/4 319/2/4 324/2/4
f 319/1/4 321/1/4 325/1/4
f 324/2/4 319/2/4 325/2/4
f 321/1/4 322/1/4 325/1/4
f 325/1/4 322/1/4 326/1/4
f 327/1/4 328/1/4 329/1/4
f 329/1/4 328/1/4 330/1/4
f 327/1/4 329/1/4 331/1/4
f 330/1/4 328/1/4 332/1/4
f 327/1/4 331/1/4 333/1/4
f 331/1/4 332/1/4 333/1/4
f 332/1/4 328/1/4 334/1/4
f 333/1/4 332/1/4 334/1/4
f 335/1/4 336/1/4 337/1/4
f 337/1/4 336/1/4 338/1/4
f 339/3/4 340/3/4 341/3/4
f 341/3/4 340/3/4 342/3/4
f 347/2/5 344/2/5 343/2/5
f 348/2/5 344/2/5 347/2/5
f 349/2/5 346/2/5 345/2/5
f 350/2/5 346/2/5 349/2/5
f 355/2/5 352/2/5 351/2/5
f 356/2/5 352/2/5 355/2/5
f 357/2/5 354/2/5 353/2/5
f 358/2/5 354/2/5 357/2/5
f 362/1/5 360/1/5 359/1/5
f 363/1/5 360/1/5 362/1/5
f 365/1/5 362/1/5 361/1/5
f 365/1/5 364/1/5 363/1/5
f 365/1/5 363/1/5 362/1/5
f 366/1/5 364/1/5 365/1/5
f 367/1/5 364/1/5 366/1/5
f 368/1/5 364/1/5 367/1/5
f 369/1/5 367/1/5 366/1/5
f 370/1/5 367/1/5 369/1/5
f 373/1/5 372/1/5 371/1/5
f 374/1/5 372/1/5 373/1/5
f 377/1/5 376/1/5 375/1/5
f 378/1/5 376/1/5 377/1/5
f 379/3/5 378/3/5 377/3/5
f 380/3/5 378/3/5 379/3/5
f 383/1/5 382/1/5 381/1/5
f 384/1/5 382/1/5 383/1/5
f 387/3/5 386/3/5 385/3/5
f 388/3/5 386/3/5 387/3/5
f 392/3/5 390/3/5 389/3/5
f 393/3/5 390/3/5 392/3/5
f 395/3/5 392/3/5 391/3/5
f 396/3/5 392/3/5 395/3/5
f 397/3/5 394/3/5 393/3/5
f 398/3/5 394/3/5 397/3/5
f 399/3/5 394/3/5 398/3/5
f 402/1/5 401/1/5 400/1/5
f 403/1/5 401/1/5 402/1/5
f 406/1/5 405/1/5 404/1/5
f 407/1/5 405/1/5 406/1/5
f 412/1/5 409/1/5 408/1/5
f 413/1/5 409/1/5 412/1/5
f 414/1/5 411/1/5 410/1/5
f 415/1/5 411/1/5 414/1/5
f 416/2/6 417/2/6 420/2/6
f 420/2/6 417/2/6 421/2/6
f 418/2/6 419/2/6 422/2/6
f 422/2/6 419/2/6 423/2/6
f 424/2/6 425/2/6 428/2/6
f 428/2/6 425/2/6 429/2/6
f 426/2/6 427/2/6 430/2/6
f 430/2/6 427/2/6 431/2/6
f 432/1/6 433/1/6 434/1/6
f 434/1/6 433/1/6 435/1/6
f 434/3/6 435/3/6 436/3/6
f 436/3/6 435/3/6 437/3/6
f 438/1/6 439/1/6 440/1/6
f 440/1/6 439/1/6 441/1/6
f 442/1/6 443/1/6 444/1/6
f 444/1/6 443/1/6 445/1/6
f 446/1/6 447/1/6 450/1/6
f 450/1/6 447/1/6 451/1/6
f 448/1/6 449/1/6 452/1/6
f 452/1/6 449/1/6 453/1/6
f 451/1/6 452/1/6 454/1/6
f 454/1/6 452/1/6 455/1/6
f 456/1/6 457/1/6 460/1/6
f 460/1/6 457/1/6 461/1/6
f 458/1/6 459/1/6 462/1/6
f 462/1/6 459/1/6 463/1/6
f 461/1/6 462/1/6 464/1/6
f 464/1/6 462/1/6 465/1/6
f 466/1/6 467/1/6 468/1/6
f 468/1/6 467/1/6 469/1/6
f 470/1/6 471/1/6 474/1/6
f 471/2/6 472/2/6 474/2/6
f 472/1/6 473/1/6 475/1/6
f 474/2/6 472/2/6 475/2/6
f 470/1/6 474/1/6 476/1/6
f 474/1/6 475/1/6 476/1/6
f 475/1/6 473/1/6 477/1/6
f 476/1/6 475/1/6 477/1/6
f 478/1/6 479/1/6 482/1/6
f 482/1/6 479/1/6 483/1/6
f 480/1/6 481/1/6 484/1/6
f 484/1/6 481/1/6 485/1/6
f 486/1/6 487/1/6 488/1/6
f 488/1/6 487/1/6 489/1/6
f 490/3/6 491/3/6 493/3/6
f 493/3/6 491/3/6 494/3/6
f 492/3/6 493/3/6 496/3/6
f 496/3/6 493/3/6 497/3/6
f 494/3/6 495/3/6 498/3/6
f 497/3/6 498/3/6 499/3/6
f 498/3/6 495/3/6 500/3/6
f 499/3/6 498/3/6 500/3/6
f 501/3/6 502/3/6 503/3/6
f 503/3/6 502/3/6 504/3/6
